{
.appVersion = "1119";
copyright = "Copyright (c) 2010-2016, Khaled Hosny <khaledhosny@eglug.org>.\012Portions copyright (c) 2010, Sebastian Kosch <sebastian@aldusleaf.org>.";
customParameters = (
{
name = licenseURL;
value = "http://scripts.sil.org/OFL";
},
{
name = license;
value = "This Font Software is licensed under the SIL Open Font License, Version 1.1. This Font Software is distributed on an \"AS IS\" BASIS, WITHOUT WARRANTIES OR CONDITIONS OF ANY KIND, either express or implied. See the SIL Open Font License for the specific language, permissions and limitations governing your use of this Font Software.";
},
{
name = vendorID;
value = "BLQ ";
},
{
name = panose;
value = (
0,
0,
5,
0,
0,
0,
0,
0,
0,
0
);
},
{
name = unicodeRanges;
value = (
0,
1,
2,
3,
5,
6,
13,
29,
31,
33,
38,
45,
63,
67
);
},
{
name = codePageRanges;
value = (
1252,
1250,
1254,
1256,
1257,
864
);
},
{
name = glyphOrder;
value = (
A,
B,
C,
D,
E,
F,
G,
H,
I,
J,
K,
L,
M,
N,
O,
P,
Thorn,
Q,
R,
S,
T,
U,
V,
W,
X,
Y,
Z,
a,
b,
c,
d,
eth,
e,
f,
g,
h,
i,
j,
k,
l,
m,
n,
o,
p,
thorn,
q,
r,
s,
t,
u,
v,
w,
x,
y,
z
);
}
);
date = "2010-05-07 21:08:01 +0000";
designer = "Khaled Hosny";
designerURL = "http://www.khaledhosny.org";
disablesNiceNames = 1;
familyName = Amiri;
featurePrefixes = (
{
code = "lookup lookup_0 {\012sub uni0670 by uni0670.isol;\012} lookup_0;\012";
name = lookup_0;
},
{
code = "lookup lookup_1 {\012sub uni0670.isol by uni0670.medi;\012} lookup_1;\012";
name = lookup_1;
},
{
code = "lookup lookup_10 {\012sub uni0600 by uni0600.3;\012sub uni0603 by uni0603.3;\012} lookup_10;\012";
name = lookup_10;
},
{
code = "lookup lookup_100 {\012sub uni064D by uni064D uni0640.2;\012sub uni0650 by uni0650 uni0640.2;\012sub uni06ED by uni06ED uni0640.2 uni0640.05;\012sub uni08F2 by uni08F2 uni0640.2;\012} lookup_100;\012";
name = lookup_100;
},
{
code = "lookup lookup_11 {\012sub uni0644.init by uni0644.init_LamLamInit;\012sub uni0644.medi by uni0644.medi_LamLamInit;\012} lookup_11;\012";

glyphs = (
{
glyphname = A;
lastChange = "2018-03-12 14:51:37 +0000";
layers = (
{
layerId = "14E94935-86A2-4797-A25C-C4BEBC72BEDE";
paths = (
{
closed = 1;
nodes = (
"351 -3 OFFCURVE",
"389 1 OFFCURVE",
"420 2 OFFCURVE",
"439 2 QCURVE SMOOTH",
"456 2 OFFCURVE",
"548 -3 QCURVE",
"550 0 OFFCURVE",
"553 20 OFFCURVE",
"551 26 QCURVE",
"547 26 OFFCURVE",
"531 28 OFFCURVE",
"508 34 OFFCURVE",
"490 48 OFFCURVE",
"488 58 QCURVE SMOOTH",
"487 65 OFFCURVE",
"477 126 QCURVE SMOOTH",
"391 660 LINE",
"389 663 OFFCURVE",
"386 663 QCURVE SMOOTH",
"379 663 OFFCURVE",
"352 645 OFFCURVE",
"346 634 QCURVE SMOOTH",
"70 139 LINE SMOOTH",
"32 71 OFFCURVE",
"8 45 QCURVE SMOOTH",
"-1 37 OFFCURVE",
"-38 26 OFFCURVE",
"-50 26 QCURVE",
"-53 21 OFFCURVE",
"-57 -1 OFFCURVE",
"-56 -3 QCURVE",
"-40 -3 OFFCURVE",
"-5 1 OFFCURVE",
"24 2 OFFCURVE",
"43 2 QCURVE SMOOTH",
"61 2 OFFCURVE",
"88 1 OFFCURVE",
"118 -3 OFFCURVE",
"132 -3 QCURVE",
"134 2 OFFCURVE",
"137 24 OFFCURVE",
"136 26 QCURVE",
"131 26 OFFCURVE",
"115 28 OFFCURVE",
"91 32 OFFCURVE",
"74 43 OFFCURVE",
"74 50 QCURVE SMOOTH",
"74 70 OFFCURVE",
"103 125 QCURVE SMOOTH",
"124 165 OFFCURVE",
"174 256 QCURVE",
"373 256 LINE",
"395 106 LINE SMOOTH",
"398 87 OFFCURVE",
"398 57 QCURVE SMOOTH",
"398 42 OFFCURVE",
"368 26 OFFCURVE",
"341 26 QCURVE",
"337 22 OFFCURVE",
"332 1 OFFCURVE",
"335 -3 QCURVE"
);
},
{
closed = 1;
nodes = (
"368 289 LINE",
"192 289 LINE",
"329 535 LINE"
);
}
);
width = 586;
}
);
leftKerningGroup = A;
note = A;
rightKerningGroup = A;
unicode = 0041;
},
{
glyphname = B;
lastChange = "2018-03-12 14:51:37 +0000";
layers = (
{
layerId = "14E94935-86A2-4797-A25C-C4BEBC72BEDE";
paths = (
{
closed = 1;
nodes = (
"263 607 OFFCURVE",
"271 620 QCURVE SMOOTH",
"276 630 OFFCURVE",
"320 630 QCURVE SMOOTH",
"380 630 OFFCURVE",
"433 569 OFFCURVE",
"433 522 QCURVE SMOOTH",
"433 459 OFFCURVE",
"363 370 OFFCURVE",
"312 370 QCURVE SMOOTH",
"218 370 LINE",
"252 545 LINE SMOOTH"
);
},
{
closed = 1;
nodes = (
"298 339 OFFCURVE",
"345 329 OFFCURVE",
"374 314 OFFCURVE",
"394 289 OFFCURVE",
"404 271 OFFCURVE",
"409 242 OFFCURVE",
"409 231 OFFCURVE",
"409 220 QCURVE SMOOTH",
"409 129 OFFCURVE",
"311 26 OFFCURVE",
"232 26 QCURVE SMOOTH",
"201 26 OFFCURVE",
"169 32 OFFCURVE",
"162 43 QCURVE",
"159 53 OFFCURVE",
"164 99 OFFCURVE",
"167 114 QCURVE SMOOTH",
"212 339 LINE",
"269 339 LINE SMOOTH"
);
},
{
closed = 1;
nodes = (
"120 659 OFFCURVE",
"117 637 OFFCURVE",
"120 633 QCURVE",
"135 633 OFFCURVE",
"180 625 OFFCURVE",
"181 617 QCURVE",
"181 597 OFFCURVE",
"171 543 QCURVE SMOOTH",
"88 116 LINE SMOOTH",
"76 56 OFFCURVE",
"69 42 QCURVE",
"66 35 OFFCURVE",
"16 26 OFFCURVE",
"2 26 QCURVE",
"-3 22 OFFCURVE",
"-8 1 OFFCURVE",
"-5 -3 QCURVE",
"210 -3 LINE SMOOTH",
"337 -3 OFFCURVE",
"504 125 OFFCURVE",
"504 226 QCURVE SMOOTH",
"504 284 OFFCURVE",
"439 363 OFFCURVE",
"401 366 QCURVE",
"521 429 OFFCURVE",
"521 537 QCURVE SMOOTH",
"521 598 OFFCURVE",
"434 659 OFFCURVE",
"366 659 QCURVE SMOOTH",
"336 659 OFFCURVE",
"249 657 OFFCURVE",
"234 657 QCURVE SMOOTH",
"220 657 OFFCURVE",
"125 662 QCURVE"
);
}
);
width = 566;
}
);
leftKerningGroup = B;
note = B;
rightKerningGroup = B;
unicode = 0042;
},
{
glyphname = C;
lastChange = "2018-03-12 14:51:37 +0000";
layers = (
{
layerId = "14E94935-86A2-4797-A25C-C4BEBC72BEDE";
paths = (
{
closed = 1;
nodes = (
"315 21 OFFCURVE",
"244 53 OFFCURVE",
"199 105 OFFCURVE",
"168 174 OFFCURVE",
"154 245 OFFCURVE",
"154 282 QCURVE SMOOTH",
"154 362 OFFCURVE",
"198 496 OFFCURVE",
"275 585 OFFCURVE",
"378 635 OFFCURVE",
"436 635 QCURVE SMOOTH",
"500 635 OFFCURVE",
"589 553 OFFCURVE",
"585 494 QCURVE",
"595 489 OFFCURVE",
"608 489 QCURVE SMOOTH",
"615 489 OFFCURVE",
"616 494 QCURVE",
"620 531 OFFCURVE",
"626 640 QCURVE",
"524 665 OFFCURVE",
"465 666 QCURVE SMOOTH",
"403 667 OFFCURVE",
"284 634 OFFCURVE",
"181 565 OFFCURVE",
"104 469 OFFCURVE",
"59 339 OFFCURVE",
"59 265 QCURVE SMOOTH",
"59 191 OFFCURVE",
"126 67 OFFCURVE",
"251 -8 OFFCURVE",
"330 -8 QCURVE SMOOTH",
"397 -8 OFFCURVE",
"486 8 OFFCURVE",
"525 28 QCURVE",
"536 37 OFFCURVE",
"594 149 OFFCURVE",
"597 165 QCURVE",
"593 167 LINE SMOOTH",
"589 169 OFFCURVE",
"575 173 OFFCURVE",
"569 173 QCURVE",
"490 21 OFFCURVE",
"358 21 QCURVE SMOOTH"
);
}
);
width = 645;
}
);
leftKerningGroup = C;
note = C;
rightKerningGroup = C;
unicode = 0043;
},
{
glyphname = D;
lastChange = "2018-03-12 14:51:37 +0000";
layers = (
{
layerId = "14E94935-86A2-4797-A25C-C4BEBC72BEDE";
paths = (
{
closed = 1;
nodes = (
"277 631 OFFCURVE",
"338 631 QCURVE SMOOTH",
"397 631 OFFCURVE",
"487 595 OFFCURVE",
"549 519 OFFCURVE",
"565 398 OFFCURVE",
"550 313 QCURVE SMOOTH",
"536 242 OFFCURVE",
"473 131 OFFCURVE",
"387 62 OFFCURVE",
"287 26 OFFCURVE",
"232 26 QCURVE SMOOTH",
"166 26 OFFCURVE",
"159 40 QCURVE SMOOTH",
"157 44 OFFCURVE",
"164 98 OFFCURVE",
"167 112 QCURVE SMOOTH",
"252 546 LINE SMOOTH",
"263 604 OFFCURVE",
"271 620 QCURVE SMOOTH"
);
},
{
closed = 1;
nodes = (
"220 657 OFFCURVE",
"125 662 QCURVE",
"120 659 OFFCURVE",
"117 637 OFFCURVE",
"120 633 QCURVE",
"134 633 OFFCURVE",
"180 624 OFFCURVE",
"181 617 QCURVE",
"183 602 OFFCURVE",
"171 543 QCURVE SMOOTH",
"88 116 LINE SMOOTH",
"76 56 OFFCURVE",
"69 42 QCURVE",
"66 35 OFFCURVE",
"16 26 OFFCURVE",
"2 26 QCURVE",
"-3 22 OFFCURVE",
"-8 1 OFFCURVE",
"-5 -3 QCURVE",
"229 -3 LINE SMOOTH",
"307 -3 OFFCURVE",
"438 36 OFFCURVE",
"529 99 OFFCURVE",
"597 187 OFFCURVE",
"635 281 OFFCURVE",
"646 334 QCURVE SMOOTH",
"655 390 OFFCURVE",
"647 488 OFFCURVE",
"604 569 OFFCURVE",
"535 626 OFFCURVE",
"432 658 OFFCURVE",
"369 658 QCURVE SMOOTH",
"348 658 OFFCURVE",
"251 657 OFFCURVE",
"234 657 QCURVE SMOOTH"
);
}
);
width = 684;
}
);
leftKerningGroup = B;
note = D;
rightKerningGroup = D;
unicode = 0044;
},
{
glyphname = E;
lastChange = "2018-03-12 14:51:37 +0000";
layers = (
{
layerId = "14E94935-86A2-4797-A25C-C4BEBC72BEDE";
paths = (
{
closed = 1;
nodes = (
"120 659 OFFCURVE",
"116 637 OFFCURVE",
"118 633 QCURVE",
"132 633 OFFCURVE",
"179 624 OFFCURVE",
"179 617 QCURVE",
"181 599 OFFCURVE",
"170 543 QCURVE SMOOTH",
"87 116 LINE SMOOTH",
"75 56 OFFCURVE",
"68 42 QCURVE",
"65 35 OFFCURVE",
"14 26 OFFCURVE",
"0 26 QCURVE",
"-4 22 OFFCURVE",
"-8 1 OFFCURVE",
"-5 -3 QCURVE",
"12 -3 OFFCURVE",
"83 0 OFFCURVE",
"106 0 QCURVE SMOOTH",
"171 0 OFFCURVE",
"375 -4 OFFCURVE",
"422 -4 QCURVE",
"429 16 OFFCURVE",
"455 69 OFFCURVE",
"499 150 OFFCURVE",
"505 162 QCURVE",
"501 168 OFFCURVE",
"483 168 QCURVE SMOOTH",
"471 168 OFFCURVE",
"468 162 QCURVE SMOOTH",
"435 91 OFFCURVE",
"390 61 QCURVE SMOOTH",
"343 30 OFFCURVE",
"266 30 QCURVE SMOOTH",
"222 30 LINE SMOOTH",
"189 30 OFFCURVE",
"165 33 OFFCURVE",
"158 40 QCURVE SMOOTH",
"153 46 OFFCURVE",
"165 109 QCURVE SMOOTH",
"204 307 LINE SMOOTH",
"206 316 OFFCURVE",
"273 316 QCURVE SMOOTH",
"360 316 OFFCURVE",
"370 308 QCURVE",
"376 303 OFFCURVE",
"381 279 OFFCURVE",
"383 238 QCURVE",
"385 230 OFFCURVE",
"396 230 QCURVE SMOOTH",
"408 230 OFFCURVE",
"412 234 QCURVE",
"448 423 LINE",
"445 428 OFFCURVE",
"434 428 QCURVE SMOOTH",
"421 428 OFFCURVE",
"418 421 QCURVE SMOOTH",
"417 418 OFFCURVE",
"414 412 QCURVE SMOOTH",
"408 397 OFFCURVE",
"399 378 OFFCURVE",
"387 363 OFFCURVE",
"375 355 OFFCURVE",
"351 350 OFFCURVE",
"325 349 OFFCURVE",
"302 349 QCURVE SMOOTH",
"253 349 LINE SMOOTH",
"245 349 OFFCURVE",
"232 350 OFFCURVE",
"220 351 OFFCURVE",
"214 353 OFFCURVE",
"214 355 QCURVE",
"251 547 LINE SMOOTH",
"261 598 OFFCURVE",
"271 619 QCURVE SMOOTH",
"277 630 OFFCURVE",
"337 630 QCURVE SMOOTH",
"417 630 LINE SMOOTH",
"457 630 OFFCURVE",
"502 587 OFFCURVE",
"505 530 QCURVE",
"505 523 OFFCURVE",
"516 523 QCURVE SMOOTH",
"529 523 OFFCURVE",
"534 528 QCURVE",
"534 537 OFFCURVE",
"531 652 OFFCURVE",
"533 664 QCURVE",
"481 664 OFFCURVE",
"275 657 OFFCURVE",
"233 657 QCURVE SMOOTH",
"219 657 OFFCURVE",
"124 662 QCURVE"
);
}
);
width = 554;
}
);
leftKerningGroup = B;
note = E;
rightKerningGroup = E;
unicode = 0045;
},
{
glyphname = F;
lastChange = "2018-03-12 14:51:37 +0000";
layers = (
{
layerId = "14E94935-86A2-4797-A25C-C4BEBC72BEDE";
paths = (
{
closed = 1;
nodes = (
"120 659 OFFCURVE",
"116 637 OFFCURVE",
"118 633 QCURVE",
"132 633 OFFCURVE",
"179 624 OFFCURVE",
"179 617 QCURVE",
"181 599 OFFCURVE",
"170 543 QCURVE SMOOTH",
"87 116 LINE SMOOTH",
"75 56 OFFCURVE",
"68 42 QCURVE",
"65 35 OFFCURVE",
"14 26 OFFCURVE",
"0 26 QCURVE",
"-4 22 OFFCURVE",
"-8 1 OFFCURVE",
"-5 -3 QCURVE",
"12 -3 OFFCURVE",
"82 2 OFFCURVE",
"105 2 QCURVE SMOOTH",
"127 2 OFFCURVE",
"222 -3 QCURVE",
"227 1 OFFCURVE",
"231 23 OFFCURVE",
"228 26 QCURVE",
"213 26 OFFCURVE",
"159 35 OFFCURVE",
"158 42 QCURVE",
"156 60 OFFCURVE",
"167 116 QCURVE SMOOTH",
"204 307 LINE SMOOTH",
"206 316 OFFCURVE",
"273 316 QCURVE SMOOTH",
"360 316 OFFCURVE",
"370 308 QCURVE",
"376 303 OFFCURVE",
"381 279 OFFCURVE",
"383 238 QCURVE",
"385 230 OFFCURVE",
"396 230 QCURVE SMOOTH",
"408 230 OFFCURVE",
"412 234 QCURVE",
"448 423 LINE",
"445 428 OFFCURVE",
"434 428 QCURVE SMOOTH",
"421 428 OFFCURVE",
"418 421 QCURVE SMOOTH",
"417 418 OFFCURVE",
"414 412 QCURVE SMOOTH",
"408 397 OFFCURVE",
"399 378 OFFCURVE",
"387 363 OFFCURVE",
"375 355 OFFCURVE",
"351 350 OFFCURVE",
"325 349 OFFCURVE",
"302 349 QCURVE SMOOTH",
"253 349 LINE SMOOTH",
"245 349 OFFCURVE",
"232 350 OFFCURVE",
"220 351 OFFCURVE",
"214 353 OFFCURVE",
"214 355 QCURVE",
"251 547 LINE SMOOTH",
"261 598 OFFCURVE",
"271 619 QCURVE SMOOTH",
"277 630 OFFCURVE",
"337 630 QCURVE SMOOTH",
"417 630 LINE SMOOTH",
"457 630 OFFCURVE",
"502 587 OFFCURVE",
"505 530 QCURVE",
"505 523 OFFCURVE",
"516 523 QCURVE SMOOTH",
"529 523 OFFCURVE",
"534 528 QCURVE",
"534 537 OFFCURVE",
"531 652 OFFCURVE",
"533 664 QCURVE",
"481 664 OFFCURVE",
"275 657 OFFCURVE",
"233 657 QCURVE SMOOTH",
"219 657 OFFCURVE",
"124 662 QCURVE"
);
}
);
width = 508;
}
);
leftKerningGroup = B;
note = F;
rightKerningGroup = F;
unicode = 0046;
},
{
glyphname = G;
lastChange = "2018-03-12 14:51:37 +0000";
layers = (
{
layerId = "14E94935-86A2-4797-A25C-C4BEBC72BEDE";
paths = (
{
closed = 1;
nodes = (
"615 489 OFFCURVE",
"616 494 QCURVE",
"616 496 OFFCURVE",
"625 619 OFFCURVE",
"626 640 QCURVE",
"524 665 OFFCURVE",
"465 666 QCURVE SMOOTH",
"403 667 OFFCURVE",
"284 634 OFFCURVE",
"181 565 OFFCURVE",
"104 469 OFFCURVE",
"59 339 OFFCURVE",
"59 192 OFFCURVE",
"127 67 OFFCURVE",
"249 -8 OFFCURVE",
"324 -8 QCURVE SMOOTH",
"406 -8 OFFCURVE",
"464 11 QCURVE SMOOTH",
"492 20 OFFCURVE",
"543 46 QCURVE SMOOTH",
"565 58 OFFCURVE",
"565 68 QCURVE SMOOTH",
"565 69 OFFCURVE",
"560 95 OFFCURVE",
"563 104 QCURVE",
"577 175 LINE SMOOTH",
"589 235 OFFCURVE",
"596 249 QCURVE SMOOTH",
"600 256 OFFCURVE",
"647 265 OFFCURVE",
"660 265 QCURVE",
"664 269 OFFCURVE",
"667 290 OFFCURVE",
"664 294 QCURVE",
"567 289 OFFCURVE",
"554 289 QCURVE SMOOTH",
"541 289 OFFCURVE",
"446 294 QCURVE",
"442 291 OFFCURVE",
"439 269 OFFCURVE",
"441 265 QCURVE",
"456 265 OFFCURVE",
"507 256 OFFCURVE",
"507 249 QCURVE",
"509 234 OFFCURVE",
"497 175 QCURVE SMOOTH",
"477 72 LINE",
"476 61 OFFCURVE",
"467 55 QCURVE SMOOTH",
"448 42 OFFCURVE",
"388 21 OFFCURVE",
"355 21 QCURVE SMOOTH",
"313 21 OFFCURVE",
"244 53 OFFCURVE",
"199 105 OFFCURVE",
"168 173 OFFCURVE",
"154 245 OFFCURVE",
"154 282 QCURVE SMOOTH",
"154 362 OFFCURVE",
"198 496 OFFCURVE",
"275 585 OFFCURVE",
"378 635 OFFCURVE",
"436 635 QCURVE SMOOTH",
"500 635 OFFCURVE",
"589 553 OFFCURVE",
"585 494 QCURVE",
"595 489 OFFCURVE",
"608 489 QCURVE SMOOTH"
);
}
);
width = 697;
}
);
leftKerningGroup = C;
note = G;
rightKerningGroup = G;
unicode = 0047;
},
{
glyphname = H;
lastChange = "2018-03-12 14:51:37 +0000";
layers = (
{
layerId = "14E94935-86A2-4797-A25C-C4BEBC72BEDE";
paths = (
{
closed = 1;
nodes = (
"499 316 LINE",
"460 116 LINE SMOOTH",
"448 56 OFFCURVE",
"441 42 QCURVE",
"438 35 OFFCURVE",
"387 26 OFFCURVE",
"373 26 QCURVE",
"369 22 OFFCURVE",
"365 1 OFFCURVE",
"368 -3 QCURVE",
"465 2 OFFCURVE",
"478 2 QCURVE SMOOTH",
"491 2 OFFCURVE",
"586 -3 QCURVE",
"590 1 OFFCURVE",
"594 23 OFFCURVE",
"592 26 QCURVE",
"578 26 OFFCURVE",
"531 35 OFFCURVE",
"531 42 QCURVE",
"529 57 OFFCURVE",
"541 116 QCURVE SMOOTH",
"624 543 LINE SMOOTH",
"636 603 OFFCURVE",
"643 617 QCURVE",
"646 624 OFFCURVE",
"696 633 OFFCURVE",
"710 633 QCURVE",
"714 637 OFFCURVE",
"719 658 OFFCURVE",
"716 662 QCURVE",
"618 657 OFFCURVE",
"606 657 QCURVE SMOOTH",
"592 657 OFFCURVE",
"497 662 QCURVE",
"492 659 OFFCURVE",
"488 637 OFFCURVE",
"491 633 QCURVE",
"505 633 OFFCURVE",
"551 624 OFFCURVE",
"552 617 QCURVE",
"554 602 OFFCURVE",
"543 543 QCURVE SMOOTH",
"507 356 LINE",
"215 356 LINE",
"251 543 LINE SMOOTH",
"261 600 OFFCURVE",
"270 617 QCURVE",
"273 624 OFFCURVE",
"323 633 OFFCURVE",
"337 633 QCURVE",
"341 637 OFFCURVE",
"346 658 OFFCURVE",
"343 662 QCURVE",
"245 657 OFFCURVE",
"233 657 QCURVE SMOOTH",
"219 657 OFFCURVE",
"124 662 QCURVE",
"119 659 OFFCURVE",
"115 637 OFFCURVE",
"118 633 QCURVE",
"132 633 OFFCURVE",
"178 624 OFFCURVE",
"179 617 QCURVE",
"181 599 OFFCURVE",
"170 543 QCURVE SMOOTH",
"87 116 LINE SMOOTH",
"75 56 OFFCURVE",
"68 42 QCURVE",
"65 35 OFFCURVE",
"14 26 OFFCURVE",
"-1 26 QCURVE",
"-5 22 OFFCURVE",
"-9 1 OFFCURVE",
"-6 -3 QCURVE",
"92 2 OFFCURVE",
"106 2 QCURVE SMOOTH",
"118 2 OFFCURVE",
"213 -3 QCURVE",
"217 1 OFFCURVE",
"221 23 OFFCURVE",
"219 26 QCURVE",
"205 26 OFFCURVE",
"158 35 OFFCURVE",
"158 42 QCURVE",
"156 54 OFFCURVE",
"168 116 QCURVE SMOOTH",
"207 316 LINE"
);
}
);
width = 686;
}
);
leftKerningGroup = B;
note = H;
rightKerningGroup = H;
unicode = 0048;
},
{
glyphname = I;
lastChange = "2018-03-12 14:51:37 +0000";
layers = (
{
layerId = "14E94935-86A2-4797-A25C-C4BEBC72BEDE";
paths = (
{
closed = 1;
nodes = (
"119 659 OFFCURVE",
"115 637 OFFCURVE",
"118 633 QCURVE",
"132 633 OFFCURVE",
"178 624 OFFCURVE",
"179 617 QCURVE",
"181 599 OFFCURVE",
"170 543 QCURVE SMOOTH",
"87 116 LINE SMOOTH",
"75 56 OFFCURVE",
"68 42 QCURVE",
"65 35 OFFCURVE",
"14 26 OFFCURVE",
"-1 26 QCURVE",
"-5 22 OFFCURVE",
"-9 1 OFFCURVE",
"-6 -3 QCURVE",
"92 2 OFFCURVE",
"106 2 QCURVE SMOOTH",
"118 2 OFFCURVE",
"213 -3 QCURVE",
"217 1 OFFCURVE",
"221 23 OFFCURVE",
"219 26 QCURVE",
"205 26 OFFCURVE",
"158 35 OFFCURVE",
"158 42 QCURVE",
"156 57 OFFCURVE",
"168 116 QCURVE SMOOTH",
"251 543 LINE SMOOTH",
"263 603 OFFCURVE",
"270 617 QCURVE",
"273 624 OFFCURVE",
"323 633 OFFCURVE",
"337 633 QCURVE",
"341 637 OFFCURVE",
"346 658 OFFCURVE",
"343 662 QCURVE",
"245 657 OFFCURVE",
"233 657 QCURVE SMOOTH",
"219 657 OFFCURVE",
"124 662 QCURVE"
);
}
);
width = 313;
}
);
leftKerningGroup = B;
note = I;
rightKerningGroup = H;
unicode = 0049;
},
{
glyphname = J;
lastChange = "2018-03-12 14:51:37 +0000";
layers = (
{
layerId = "14E94935-86A2-4797-A25C-C4BEBC72BEDE";
paths = (
{
closed = 1;
nodes = (
"57 -42 OFFCURVE",
"-26 -189 OFFCURVE",
"-107 -214 QCURVE",
"-108 -220 LINE",
"-108 -229 OFFCURVE",
"-105 -233 QCURVE",
"-80 -233 OFFCURVE",
"-23 -212 OFFCURVE",
"43 -160 OFFCURVE",
"100 -83 OFFCURVE",
"150 40 OFFCURVE",
"164 116 QCURVE SMOOTH",
"245 543 LINE SMOOTH",
"255 600 OFFCURVE",
"264 617 QCURVE",
"267 624 OFFCURVE",
"317 633 OFFCURVE",
"331 633 QCURVE",
"335 637 OFFCURVE",
"340 658 OFFCURVE",
"337 662 QCURVE",
"239 657 OFFCURVE",
"227 657 QCURVE SMOOTH",
"213 657 OFFCURVE",
"118 662 QCURVE",
"113 659 OFFCURVE",
"109 637 OFFCURVE",
"112 633 QCURVE",
"126 633 OFFCURVE",
"172 624 OFFCURVE",
"173 617 QCURVE",
"175 602 OFFCURVE",
"164 543 QCURVE SMOOTH",
"84 109 LINE SMOOTH"
);
}
);
width = 313;
}
);
leftKerningGroup = J;
note = J;
rightKerningGroup = J;
unicode = 004A;
},
{
glyphname = K;
lastChange = "2018-03-12 14:51:37 +0000";
layers = (
{
layerId = "14E94935-86A2-4797-A25C-C4BEBC72BEDE";
paths = (
{
closed = 1;
nodes = (
"294 360 OFFCURVE",
"302 366 QCURVE SMOOTH",
"316 378 OFFCURVE",
"415 464 OFFCURVE",
"451 496 OFFCURVE",
"524 562 OFFCURVE",
"559 595 QCURVE SMOOTH",
"567 603 OFFCURVE",
"585 615 OFFCURVE",
"603 622 OFFCURVE",
"619 628 OFFCURVE",
"636 630 OFFCURVE",
"646 632 OFFCURVE",
"657 632 OFFCURVE",
"658 632 QCURVE SMOOTH",
"661 632 OFFCURVE",
"667 657 OFFCURVE",
"666 662 QCURVE",
"657 662 OFFCURVE",
"588 656 OFFCURVE",
"564 656 QCURVE SMOOTH",
"549 656 OFFCURVE",
"513 658 OFFCURVE",
"470 662 OFFCURVE",
"459 662 QCURVE",
"455 655 OFFCURVE",
"451 637 OFFCURVE",
"453 632 QCURVE",
"459 632 OFFCURVE",
"470 631 OFFCURVE",
"491 627 OFFCURVE",
"501 616 OFFCURVE",
"500 607 QCURVE SMOOTH",
"497 595 OFFCURVE",
"481 576 QCURVE SMOOTH",
"468 562 OFFCURVE",
"453 546 OFFCURVE",
"432 525 OFFCURVE",
"425 518 OFFCURVE",
"399 494 OFFCURVE",
"389 486 OFFCURVE",
"347 449 OFFCURVE",
"336 439 QCURVE SMOOTH",
"243 359 OFFCURVE",
"212 340 QCURVE",
"251 543 LINE SMOOTH",
"263 603 OFFCURVE",
"270 617 QCURVE",
"273 624 OFFCURVE",
"324 633 OFFCURVE",
"338 633 QCURVE",
"342 637 OFFCURVE",
"346 658 OFFCURVE",
"343 662 QCURVE",
"245 657 OFFCURVE",
"234 657 QCURVE SMOOTH",
"220 657 OFFCURVE",
"125 662 QCURVE",
"120 659 OFFCURVE",
"116 637 OFFCURVE",
"119 633 QCURVE",
"133 633 OFFCURVE",
"179 624 OFFCURVE",
"180 617 QCURVE",
"182 602 OFFCURVE",
"170 543 QCURVE SMOOTH",
"87 116 LINE SMOOTH",
"75 56 OFFCURVE",
"68 42 QCURVE",
"65 35 OFFCURVE",
"15 26 OFFCURVE",
"1 26 QCURVE",
"-4 22 OFFCURVE",
"-8 1 OFFCURVE",
"-5 -3 QCURVE",
"93 2 OFFCURVE",
"106 2 QCURVE SMOOTH",
"119 2 OFFCURVE",
"214 -3 QCURVE",
"218 1 OFFCURVE",
"222 23 OFFCURVE",
"220 26 QCURVE",
"206 26 OFFCURVE",
"159 35 OFFCURVE",
"159 42 QCURVE",
"157 60 OFFCURVE",
"168 116 QCURVE SMOOTH",
"205 305 LINE",
"209 307 OFFCURVE",
"214 307 QCURVE SMOOTH",
"221 307 OFFCURVE",
"222 304 QCURVE",
"358 84 OFFCURVE",
"382 51 QCURVE SMOOTH",
"404 22 OFFCURVE",
"437 8 QCURVE SMOOTH",
"463 -3 OFFCURVE",
"567 -3 QCURVE",
"569 2 OFFCURVE",
"575 23 OFFCURVE",
"573 26 QCURVE",
"538 29 OFFCURVE",
"497 52 OFFCURVE",
"481 72 QCURVE SMOOTH",
"454 106 OFFCURVE",
"388 207 OFFCURVE",
"346 273 OFFCURVE",
"300 350 QCURVE SMOOTH"
);
}
);
width = 614;
}
);
leftKerningGroup = B;
note = K;
rightKerningGroup = K;
unicode = 004B;
},
{
glyphname = L;
lastChange = "2018-03-12 14:51:37 +0000";
layers = (
{
layerId = "14E94935-86A2-4797-A25C-C4BEBC72BEDE";
paths = (
{
closed = 1;
nodes = (
"262 600 OFFCURVE",
"271 617 QCURVE",
"274 624 OFFCURVE",
"324 633 OFFCURVE",
"338 633 QCURVE",
"342 637 OFFCURVE",
"347 658 OFFCURVE",
"344 662 QCURVE",
"246 657 OFFCURVE",
"234 657 QCURVE SMOOTH",
"220 657 OFFCURVE",
"125 662 QCURVE",
"120 659 OFFCURVE",
"117 637 OFFCURVE",
"120 633 QCURVE",
"134 633 OFFCURVE",
"180 624 OFFCURVE",
"181 617 QCURVE",
"183 602 OFFCURVE",
"171 543 QCURVE SMOOTH",
"88 116 LINE SMOOTH",
"76 56 OFFCURVE",
"69 42 QCURVE",
"66 35 OFFCURVE",
"16 26 OFFCURVE",
"2 26 QCURVE",
"-3 22 OFFCURVE",
"-8 1 OFFCURVE",
"-5 -3 QCURVE",
"13 -3 OFFCURVE",
"84 0 OFFCURVE",
"107 0 QCURVE SMOOTH",
"172 0 OFFCURVE",
"375 -4 OFFCURVE",
"423 -4 QCURVE",
"429 16 OFFCURVE",
"455 69 OFFCURVE",
"499 150 OFFCURVE",
"506 162 QCURVE",
"502 168 OFFCURVE",
"484 168 QCURVE SMOOTH",
"472 168 OFFCURVE",
"469 162 QCURVE SMOOTH",
"432 85 OFFCURVE",
"383 57 QCURVE SMOOTH",
"335 30 OFFCURVE",
"275 30 QCURVE SMOOTH",
"222 30 LINE SMOOTH",
"189 30 OFFCURVE",
"165 33 OFFCURVE",
"158 40 QCURVE SMOOTH",
"153 46 OFFCURVE",
"166 112 QCURVE SMOOTH",
"252 543 LINE SMOOTH"
);
}
);
width = 530;
}
);
leftKerningGroup = B;
note = L;
rightKerningGroup = L;
unicode = 004C;
},
{
glyphname = M;
lastChange = "2018-03-12 14:51:37 +0000";
layers = (
{
layerId = "14E94935-86A2-4797-A25C-C4BEBC72BEDE";
paths = (
{
closed = 1;
nodes = (
"678 492 OFFCURVE",
"638 240 OFFCURVE",
"613 85 OFFCURVE",
"611 79 QCURVE SMOOTH",
"603 42 OFFCURVE",
"595 37 QCURVE SMOOTH",
"587 33 OFFCURVE",
"543 26 OFFCURVE",
"532 26 QCURVE",
"529 21 OFFCURVE",
"525 -1 OFFCURVE",
"526 -3 QCURVE",
"634 2 OFFCURVE",
"639 2 QCURVE SMOOTH",
"657 2 OFFCURVE",
"749 -3 QCURVE",
"751 0 OFFCURVE",
"754 19 OFFCURVE",
"752 26 QCURVE",
"738 26 OFFCURVE",
"693 34 OFFCURVE",
"691 43 QCURVE SMOOTH",
"686 73 OFFCURVE",
"698 140 QCURVE SMOOTH",
"774 577 LINE SMOOTH",
"778 601 OFFCURVE",
"786 615 QCURVE",
"791 622 OFFCURVE",
"843 633 OFFCURVE",
"856 633 QCURVE",
"858 662 LINE",
"810 658 OFFCURVE",
"766 658 QCURVE SMOOTH",
"754 658 OFFCURVE",
"696 662 QCURVE",
"632 542 LINE",
"576 441 LINE SMOOTH",
"519 340 OFFCURVE",
"463 240 QCURVE SMOOTH",
"407 139 OFFCURVE",
"407 139 QCURVE",
"408 139 OFFCURVE",
"360 373 OFFCURVE",
"310 635 OFFCURVE",
"307 662 QCURVE",
"265 658 OFFCURVE",
"226 658 QCURVE SMOOTH",
"194 658 OFFCURVE",
"136 662 QCURVE",
"133 660 OFFCURVE",
"129 638 OFFCURVE",
"130 633 QCURVE",
"142 633 OFFCURVE",
"191 620 OFFCURVE",
"191 612 QCURVE",
"193 601 OFFCURVE",
"187 572 QCURVE",
"178 516 OFFCURVE",
"81 94 QCURVE SMOOTH",
"73 59 OFFCURVE",
"60 44 QCURVE SMOOTH",
"53 36 OFFCURVE",
"-3 26 OFFCURVE",
"-18 26 QCURVE",
"-22 21 OFFCURVE",
"-25 -1 OFFCURVE",
"-24 -3 QCURVE",
"-9 -3 OFFCURVE",
"33 1 OFFCURVE",
"67 2 OFFCURVE",
"86 2 QCURVE SMOOTH",
"105 2 OFFCURVE",
"134 1 OFFCURVE",
"171 -3 OFFCURVE",
"183 -3 QCURVE",
"185 0 OFFCURVE",
"189 22 OFFCURVE",
"187 26 QCURVE",
"172 26 OFFCURVE",
"119 35 OFFCURVE",
"117 44 QCURVE",
"115 58 OFFCURVE",
"119 75 QCURVE",
"120 77 OFFCURVE",
"155 238 OFFCURVE",
"210 488 OFFCURVE",
"230 584 QCURVE",
"344 0 LINE",
"351 -3 OFFCURVE",
"352 -2 QCURVE",
"359 -1 OFFCURVE",
"392 39 OFFCURVE",
"397 49 QCURVE SMOOTH",
"690 566 LINE"
);
}
);
width = 838;
}
);
leftKerningGroup = M;
note = M;
rightKerningGroup = M;
unicode = 004D;
},
{
glyphname = N;
lastChange = "2018-03-12 14:51:37 +0000";
layers = (
{
layerId = "14E94935-86A2-4797-A25C-C4BEBC72BEDE";
paths = (
{
closed = 1;
nodes = (
"517 242 OFFCURVE",
"301 623 OFFCURVE",
"285 662 QCURVE",
"233 658 OFFCURVE",
"203 658 QCURVE SMOOTH",
"202 658 OFFCURVE",
"118 662 QCURVE",
"109 650 OFFCURVE",
"113 633 QCURVE",
"128 633 OFFCURVE",
"179 624 OFFCURVE",
"181 616 QCURVE",
"185 603 OFFCURVE",
"183 579 OFFCURVE",
"177 548 QCURVE SMOOTH",
"93 114 LINE SMOOTH",
"84 65 OFFCURVE",
"70 46 QCURVE SMOOTH",
"64 38 OFFCURVE",
"7 26 OFFCURVE",
"-6 26 QCURVE",
"-11 19 OFFCURVE",
"-14 0 OFFCURVE",
"-12 -3 QCURVE",
"4 -3 OFFCURVE",
"41 1 OFFCURVE",
"72 2 OFFCURVE",
"91 2 QCURVE SMOOTH",
"103 2 OFFCURVE",
"195 -3 QCURVE",
"198 3 OFFCURVE",
"201 20 OFFCURVE",
"199 26 QCURVE",
"186 26 OFFCURVE",
"135 39 OFFCURVE",
"132 46 QCURVE",
"128 62 OFFCURVE",
"130 85 OFFCURVE",
"136 115 QCURVE SMOOTH",
"224 569 LINE",
"524 18 LINE",
"529 8 OFFCURVE",
"545 -5 OFFCURVE",
"551 -5 QCURVE SMOOTH",
"564 -5 OFFCURVE",
"568 -1 QCURVE",
"575 43 OFFCURVE",
"593 139 QCURVE SMOOTH",
"672 546 LINE SMOOTH",
"678 576 OFFCURVE",
"686 603 OFFCURVE",
"694 614 QCURVE SMOOTH",
"700 622 OFFCURVE",
"756 633 OFFCURVE",
"769 633 QCURVE",
"779 648 OFFCURVE",
"773 662 QCURVE",
"687 658 OFFCURVE",
"669 658 QCURVE SMOOTH",
"641 658 OFFCURVE",
"567 662 QCURVE",
"565 658 OFFCURVE",
"562 639 OFFCURVE",
"564 633 QCURVE",
"581 633 OFFCURVE",
"628 622 OFFCURVE",
"631 613 QCURVE SMOOTH",
"638 594 OFFCURVE",
"628 541 QCURVE SMOOTH",
"554 162 LINE"
);
}
);
width = 732;
}
);
leftKerningGroup = N;
note = N;
rightKerningGroup = N;
unicode = 004E;
},
{
glyphname = O;
lastChange = "2018-03-12 14:51:37 +0000";
layers = (
{
layerId = "14E94935-86A2-4797-A25C-C4BEBC72BEDE";
paths = (
{
closed = 1;
nodes = (
"578 326 OFFCURVE",
"542 192 OFFCURVE",
"479 85 OFFCURVE",
"384 18 OFFCURVE",
"328 18 QCURVE SMOOTH",
"289 18 OFFCURVE",
"227 49 OFFCURVE",
"189 97 OFFCURVE",
"165 164 OFFCURVE",
"155 231 OFFCURVE",
"155 268 QCURVE SMOOTH",
"155 345 OFFCURVE",
"198 483 OFFCURVE",
"269 579 OFFCURVE",
"359 635 OFFCURVE",
"406 635 QCURVE SMOOTH",
"447 635 OFFCURVE",
"509 603 OFFCURVE",
"546 553 OFFCURVE",
"570 486 OFFCURVE",
"578 425 OFFCURVE",
"578 393 QCURVE SMOOTH"
);
},
{
closed = 1;
nodes = (
"61 194 OFFCURVE",
"122 66 OFFCURVE",
"240 -11 OFFCURVE",
"319 -11 QCURVE SMOOTH",
"391 -11 OFFCURVE",
"520 47 OFFCURVE",
"616 148 OFFCURVE",
"672 297 OFFCURVE",
"672 382 QCURVE SMOOTH",
"672 462 OFFCURVE",
"610 590 OFFCURVE",
"492 665 OFFCURVE",
"415 665 QCURVE SMOOTH",
"347 665 OFFCURVE",
"219 607 OFFCURVE",
"121 505 OFFCURVE",
"61 357 OFFCURVE",
"61 273 QCURVE SMOOTH"
);
}
);
width = 710;
}
);
leftKerningGroup = C;
note = O;
rightKerningGroup = O;
unicode = 004F;
},
{
glyphname = P;
lastChange = "2018-03-12 14:51:37 +0000";
layers = (
{
layerId = "14E94935-86A2-4797-A25C-C4BEBC72BEDE";
paths = (
{
closed = 1;
nodes = (
"312 659 OFFCURVE",
"250 657 OFFCURVE",
"235 657 QCURVE SMOOTH",
"219 657 OFFCURVE",
"124 662 QCURVE",
"119 659 OFFCURVE",
"115 637 OFFCURVE",
"118 633 QCURVE",
"132 633 OFFCURVE",
"178 624 OFFCURVE",
"179 617 QCURVE",
"181 599 OFFCURVE",
"170 543 QCURVE SMOOTH",
"87 116 LINE SMOOTH",
"75 56 OFFCURVE",
"68 42 QCURVE",
"65 35 OFFCURVE",
"14 26 OFFCURVE",
"-1 26 QCURVE",
"-5 22 OFFCURVE",
"-9 1 OFFCURVE",
"-6 -3 QCURVE",
"92 2 OFFCURVE",
"105 2 QCURVE SMOOTH",
"118 2 OFFCURVE",
"213 -3 QCURVE",
"217 1 OFFCURVE",
"221 23 OFFCURVE",
"219 26 QCURVE",
"205 26 OFFCURVE",
"158 35 OFFCURVE",
"158 42 QCURVE",
"156 57 OFFCURVE",
"167 116 QCURVE SMOOTH",
"251 545 LINE SMOOTH",
"264 610 OFFCURVE",
"270 620 QCURVE SMOOTH",
"276 630 OFFCURVE",
"318 630 QCURVE SMOOTH",
"434 630 OFFCURVE",
"434 494 QCURVE SMOOTH",
"434 454 OFFCURVE",
"405 383 OFFCURVE",
"359 335 OFFCURVE",
"302 308 OFFCURVE",
"274 308 QCURVE SMOOTH",
"249 308 OFFCURVE",
"241 312 QCURVE",
"237 310 OFFCURVE",
"237 308 QCURVE SMOOTH",
"237 300 OFFCURVE",
"245 292 QCURVE",
"250 289 OFFCURVE",
"275 282 OFFCURVE",
"290 282 QCURVE SMOOTH",
"350 282 OFFCURVE",
"457 341 OFFCURVE",
"523 446 OFFCURVE",
"523 508 QCURVE SMOOTH",
"523 576 OFFCURVE",
"422 659 OFFCURVE",
"342 659 QCURVE SMOOTH"
);
}
);
width = 511;
}
);
leftKerningGroup = B;
note = P;
rightKerningGroup = P;
unicode = 0050;
},
{
glyphname = Thorn;
lastChange = "2018-03-12 14:51:37 +0000";
layers = (
{
layerId = "14E94935-86A2-4797-A25C-C4BEBC72BEDE";
paths = (
{
closed = 1;
nodes = (
"405 482 OFFCURVE",
"405 346 QCURVE SMOOTH",
"405 306 OFFCURVE",
"376 235 OFFCURVE",
"330 187 OFFCURVE",
"273 160 OFFCURVE",
"245 160 QCURVE SMOOTH",
"220 160 OFFCURVE",
"212 164 QCURVE",
"208 162 OFFCURVE",
"208 160 QCURVE SMOOTH",
"208 152 OFFCURVE",
"216 144 QCURVE",
"221 141 OFFCURVE",
"247 134 OFFCURVE",
"261 134 QCURVE SMOOTH",
"322 134 OFFCURVE",
"429 193 OFFCURVE",
"494 298 OFFCURVE",
"494 360 QCURVE SMOOTH",
"494 428 OFFCURVE",
"393 511 OFFCURVE",
"313 511 QCURVE SMOOTH",
"270 511 OFFCURVE",
"242 500 QCURVE",
"251 543 LINE SMOOTH",
"263 603 OFFCURVE",
"270 617 QCURVE",
"273 624 OFFCURVE",
"323 633 OFFCURVE",
"337 633 QCURVE",
"341 637 OFFCURVE",
"346 658 OFFCURVE",
"343 662 QCURVE",
"246 657 OFFCURVE",
"233 657 QCURVE SMOOTH",
"219 657 OFFCURVE",
"124 662 QCURVE",
"120 659 OFFCURVE",
"116 637 OFFCURVE",
"118 633 QCURVE",
"132 633 OFFCURVE",
"179 624 OFFCURVE",
"179 617 QCURVE",
"181 599 OFFCURVE",
"170 543 QCURVE SMOOTH",
"87 116 LINE SMOOTH",
"75 56 OFFCURVE",
"68 42 QCURVE",
"65 35 OFFCURVE",
"14 26 OFFCURVE",
"0 26 QCURVE",
"-4 22 OFFCURVE",
"-8 1 OFFCURVE",
"-5 -3 QCURVE",
"93 2 OFFCURVE",
"106 2 QCURVE SMOOTH",
"118 2 OFFCURVE",
"213 -3 QCURVE",
"218 1 OFFCURVE",
"222 23 OFFCURVE",
"219 26 QCURVE",
"205 26 OFFCURVE",
"159 35 OFFCURVE",
"158 42 QCURVE",
"156 57 OFFCURVE",
"168 116 QCURVE SMOOTH",
"234 458 OFFCURVE",
"234 458 QCURVE",
"236 466 OFFCURVE",
"250 476 OFFCURVE",
"269 481 OFFCURVE",
"283 482 OFFCURVE",
"289 482 QCURVE SMOOTH"
);
}
);
width = 470;
}
);
leftKerningGroup = B;
note = Thorn;
rightKerningGroup = Thorn;
unicode = 00DE;
},
{
glyphname = Q;
lastChange = "2018-03-12 14:51:37 +0000";
layers = (
{
layerId = "14E94935-86A2-4797-A25C-C4BEBC72BEDE";
paths = (
{
closed = 1;
nodes = (
"61 178 OFFCURVE",
"150 32 OFFCURVE",
"228 4 QCURVE SMOOTH",
"265 -9 OFFCURVE",
"347 -61 OFFCURVE",
"404 -103 OFFCURVE",
"476 -136 OFFCURVE",
"509 -136 QCURVE SMOOTH",
"577 -136 OFFCURVE",
"685 -81 QCURVE",
"685 -78 OFFCURVE",
"671 -68 OFFCURVE",
"666 -68 QCURVE",
"621 -81 OFFCURVE",
"575 -81 QCURVE SMOOTH",
"542 -81 OFFCURVE",
"489 -67 OFFCURVE",
"462 -53 OFFCURVE",
"403 -15 OFFCURVE",
"386 -5 QCURVE",
"447 8 OFFCURVE",
"551 74 OFFCURVE",
"628 173 OFFCURVE",
"672 307 OFFCURVE",
"672 382 QCURVE SMOOTH",
"672 462 OFFCURVE",
"610 590 OFFCURVE",
"492 665 OFFCURVE",
"415 665 QCURVE SMOOTH",
"347 665 OFFCURVE",
"219 607 OFFCURVE",
"121 505 OFFCURVE",
"61 357 OFFCURVE",
"61 273 QCURVE SMOOTH"
);
},
{
closed = 1;
nodes = (
"578 326 OFFCURVE",
"542 192 OFFCURVE",
"479 85 OFFCURVE",
"384 18 OFFCURVE",
"328 18 QCURVE SMOOTH",
"289 18 OFFCURVE",
"227 49 OFFCURVE",
"189 97 OFFCURVE",
"165 164 OFFCURVE",
"155 231 OFFCURVE",
"155 268 QCURVE SMOOTH",
"155 345 OFFCURVE",
"198 483 OFFCURVE",
"269 579 OFFCURVE",
"359 635 OFFCURVE",
"406 635 QCURVE SMOOTH",
"447 635 OFFCURVE",
"509 603 OFFCURVE",
"546 553 OFFCURVE",
"570 486 OFFCURVE",
"578 425 OFFCURVE",
"578 393 QCURVE SMOOTH"
);
}
);
width = 710;
}
);
leftKerningGroup = Q;
note = Q;
rightKerningGroup = Q;
unicode = 0051;
},
{
glyphname = R;
lastChange = "2018-03-12 14:51:37 +0000";
layers = (
{
layerId = "14E94935-86A2-4797-A25C-C4BEBC72BEDE";
paths = (
{
closed = 1;
nodes = (
"522 29 OFFCURVE",
"484 55 OFFCURVE",
"466 86 QCURVE SMOOTH",
"445 122 OFFCURVE",
"383 257 OFFCURVE",
"360 320 QCURVE",
"390 331 OFFCURVE",
"447 368 OFFCURVE",
"495 418 OFFCURVE",
"524 484 OFFCURVE",
"524 518 QCURVE SMOOTH",
"524 585 OFFCURVE",
"435 659 OFFCURVE",
"368 659 QCURVE SMOOTH",
"338 659 OFFCURVE",
"251 657 OFFCURVE",
"236 657 QCURVE SMOOTH",
"219 657 OFFCURVE",
"124 662 QCURVE",
"119 659 OFFCURVE",
"115 637 OFFCURVE",
"118 633 QCURVE",
"132 633 OFFCURVE",
"178 624 OFFCURVE",
"179 617 QCURVE",
"181 599 OFFCURVE",
"170 543 QCURVE SMOOTH",
"87 116 LINE SMOOTH",
"75 56 OFFCURVE",
"68 42 QCURVE",
"65 35 OFFCURVE",
"14 26 OFFCURVE",
"-1 26 QCURVE",
"-5 22 OFFCURVE",
"-9 1 OFFCURVE",
"-6 -3 QCURVE",
"92 2 OFFCURVE",
"106 2 QCURVE SMOOTH",
"118 2 OFFCURVE",
"213 -3 QCURVE",
"217 1 OFFCURVE",
"221 23 OFFCURVE",
"219 26 QCURVE",
"205 26 OFFCURVE",
"158 35 OFFCURVE",
"158 42 QCURVE",
"156 54 OFFCURVE",
"168 116 QCURVE SMOOTH",
"204 303 LINE",
"253 303 LINE SMOOTH",
"274 303 OFFCURVE",
"279 291 QCURVE SMOOTH",
"330 154 OFFCURVE",
"384 47 QCURVE SMOOTH",
"400 16 OFFCURVE",
"480 -3 OFFCURVE",
"553 -3 QCURVE",
"555 2 OFFCURVE",
"561 23 OFFCURVE",
"559 26 QCURVE"
);
},
{
closed = 1;
nodes = (
"264 610 OFFCURVE",
"270 620 QCURVE SMOOTH",
"275 630 OFFCURVE",
"319 630 QCURVE SMOOTH",
"348 630 OFFCURVE",
"392 613 OFFCURVE",
"416 588 OFFCURVE",
"431 554 OFFCURVE",
"435 527 OFFCURVE",
"435 512 QCURVE SMOOTH",
"435 469 OFFCURVE",
"403 398 OFFCURVE",
"351 356 OFFCURVE",
"290 333 OFFCURVE",
"260 333 QCURVE SMOOTH",
"210 333 LINE",
"251 545 LINE SMOOTH"
);
}
);
width = 579;
}
);
leftKerningGroup = B;
note = R;
rightKerningGroup = R;
unicode = 0052;
},
{
glyphname = S;
lastChange = "2018-03-12 14:51:37 +0000";
layers = (
{
layerId = "14E94935-86A2-4797-A25C-C4BEBC72BEDE";
paths = (
{
closed = 1;
nodes = (
"102 451 OFFCURVE",
"115 409 OFFCURVE",
"132 380 OFFCURVE",
"163 349 OFFCURVE",
"187 331 OFFCURVE",
"226 303 OFFCURVE",
"237 294 QCURVE SMOOTH",
"255 280 OFFCURVE",
"270 268 OFFCURVE",
"298 242 OFFCURVE",
"310 223 OFFCURVE",
"326 195 OFFCURVE",
"332 165 OFFCURVE",
"332 147 QCURVE SMOOTH",
"332 90 OFFCURVE",
"257 22 OFFCURVE",
"205 22 QCURVE SMOOTH",
"177 22 OFFCURVE",
"130 45 OFFCURVE",
"99 81 OFFCURVE",
"78 126 OFFCURVE",
"69 167 OFFCURVE",
"69 184 QCURVE",
"66 190 OFFCURVE",
"59 190 QCURVE SMOOTH",
"39 190 OFFCURVE",
"34 184 QCURVE",
"32 171 OFFCURVE",
"38 70 OFFCURVE",
"46 34 QCURVE",
"119 -8 OFFCURVE",
"193 -8 QCURVE SMOOTH",
"234 -8 OFFCURVE",
"315 21 OFFCURVE",
"380 71 OFFCURVE",
"421 148 OFFCURVE",
"421 193 QCURVE SMOOTH",
"421 216 OFFCURVE",
"409 256 OFFCURVE",
"393 283 OFFCURVE",
"362 313 OFFCURVE",
"341 330 OFFCURVE",
"304 358 OFFCURVE",
"295 364 QCURVE SMOOTH",
"288 370 OFFCURVE",
"250 399 OFFCURVE",
"233 413 OFFCURVE",
"204 441 OFFCURVE",
"191 465 OFFCURVE",
"180 501 OFFCURVE",
"180 520 QCURVE SMOOTH",
"180 563 OFFCURVE",
"247 635 OFFCURVE",
"304 635 QCURVE SMOOTH",
"355 635 OFFCURVE",
"401 561 OFFCURVE",
"397 498 QCURVE",
"404 491 OFFCURVE",
"418 491 QCURVE SMOOTH",
"427 491 OFFCURVE",
"428 498 QCURVE SMOOTH",
"433 522 OFFCURVE",
"447 618 OFFCURVE",
"449 642 QCURVE",
"440 644 OFFCURVE",
"393 657 OFFCURVE",
"372 661 OFFCURVE",
"333 666 OFFCURVE",
"312 666 QCURVE SMOOTH",
"277 666 OFFCURVE",
"203 639 OFFCURVE",
"142 591 OFFCURVE",
"102 518 OFFCURVE",
"102 476 QCURVE SMOOTH"
);
}
);
width = 472;
}
);
leftKerningGroup = S;
note = S;
rightKerningGroup = S;
unicode = 0053;
},
{
glyphname = T;
lastChange = "2018-03-12 14:51:37 +0000";
layers = (
{
layerId = "14E94935-86A2-4797-A25C-C4BEBC72BEDE";
paths = (
{
closed = 1;
nodes = (
"177 655 OFFCURVE",
"145 664 OFFCURVE",
"137 669 QCURVE SMOOTH",
"125 676 OFFCURVE",
"117 672 QCURVE",
"88 572 OFFCURVE",
"59 500 QCURVE",
"65 492 OFFCURVE",
"76 493 QCURVE",
"87 493 OFFCURVE",
"90 498 QCURVE",
"112 554 OFFCURVE",
"170 620 OFFCURVE",
"203 620 QCURVE SMOOTH",
"323 620 LINE",
"224 116 LINE SMOOTH",
"212 56 OFFCURVE",
"205 42 QCURVE",
"202 35 OFFCURVE",
"152 26 OFFCURVE",
"138 26 QCURVE",
"134 22 OFFCURVE",
"129 1 OFFCURVE",
"132 -3 QCURVE",
"230 2 OFFCURVE",
"243 2 QCURVE SMOOTH",
"256 2 OFFCURVE",
"351 -3 QCURVE",
"356 1 OFFCURVE",
"359 23 OFFCURVE",
"356 26 QCURVE",
"342 26 OFFCURVE",
"296 35 OFFCURVE",
"295 42 QCURVE",
"293 57 OFFCURVE",
"305 116 QCURVE SMOOTH",
"404 620 LINE",
"522 620 LINE SMOOTH",
"555 620 OFFCURVE",
"587 554 OFFCURVE",
"586 498 QCURVE",
"588 493 OFFCURVE",
"598 493 QCURVE",
"610 492 OFFCURVE",
"618 500 QCURVE",
"618 562 OFFCURVE",
"627 672 QCURVE",
"621 676 OFFCURVE",
"609 670 QCURVE SMOOTH",
"600 665 OFFCURVE",
"561 655 OFFCURVE",
"550 655 QCURVE SMOOTH",
"187 655 LINE SMOOTH"
);
}
);
width = 587;
}
);
leftKerningGroup = T;
note = T;
rightKerningGroup = T;
unicode = 0054;
},
{
glyphname = U;
lastChange = "2018-03-12 14:51:37 +0000";
layers = (
{
layerId = "14E94935-86A2-4797-A25C-C4BEBC72BEDE";
paths = (
{
closed = 1;
nodes = (
"105 659 OFFCURVE",
"101 637 OFFCURVE",
"104 633 QCURVE",
"118 633 OFFCURVE",
"164 624 OFFCURVE",
"165 617 QCURVE",
"167 602 OFFCURVE",
"155 543 QCURVE SMOOTH",
"98 251 LINE SMOOTH",
"76 138 OFFCURVE",
"125 68 QCURVE SMOOTH",
"176 -4 OFFCURVE",
"283 -4 QCURVE SMOOTH",
"395 -4 OFFCURVE",
"534 130 OFFCURVE",
"562 276 QCURVE SMOOTH",
"615 546 LINE SMOOTH",
"621 576 OFFCURVE",
"629 603 OFFCURVE",
"637 614 QCURVE SMOOTH",
"643 622 OFFCURVE",
"701 634 OFFCURVE",
"714 634 QCURVE",
"724 650 OFFCURVE",
"719 663 QCURVE",
"704 663 OFFCURVE",
"667 660 OFFCURVE",
"636 658 OFFCURVE",
"617 658 QCURVE SMOOTH",
"599 658 OFFCURVE",
"568 660 OFFCURVE",
"529 663 OFFCURVE",
"517 663 QCURVE",
"515 658 OFFCURVE",
"511 640 OFFCURVE",
"513 634 QCURVE",
"527 634 OFFCURVE",
"574 621 OFFCURVE",
"576 614 QCURVE",
"580 599 OFFCURVE",
"578 576 OFFCURVE",
"572 545 QCURVE SMOOTH",
"519 274 LINE SMOOTH",
"506 211 OFFCURVE",
"466 124 OFFCURVE",
"412 75 OFFCURVE",
"352 54 OFFCURVE",
"314 54 QCURVE SMOOTH",
"226 54 OFFCURVE",
"194 120 QCURVE SMOOTH",
"165 178 OFFCURVE",
"188 296 QCURVE SMOOTH",
"236 543 LINE SMOOTH",
"248 603 OFFCURVE",
"255 617 QCURVE",
"258 624 OFFCURVE",
"308 633 OFFCURVE",
"322 633 QCURVE",
"326 637 OFFCURVE",
"331 658 OFFCURVE",
"328 662 QCURVE",
"230 657 OFFCURVE",
"218 657 QCURVE SMOOTH",
"205 657 OFFCURVE",
"110 662 QCURVE"
);
}
);
width = 661;
}
);
leftKerningGroup = U;
note = U;
rightKerningGroup = U;
unicode = 0055;
},
{
glyphname = V;
lastChange = "2018-03-12 14:51:37 +0000";
layers = (
{
layerId = "14E94935-86A2-4797-A25C-C4BEBC72BEDE";
paths = (
{
closed = 1;
nodes = (
"68 661 OFFCURVE",
"64 647 OFFCURVE",
"62 633 OFFCURVE",
"63 633 QCURVE SMOOTH",
"75 633 OFFCURVE",
"114 621 OFFCURVE",
"119 610 QCURVE SMOOTH",
"133 576 OFFCURVE",
"143 514 QCURVE SMOOTH",
"160 410 OFFCURVE",
"209 91 OFFCURVE",
"222 14 QCURVE",
"223 9 LINE SMOOTH",
"224 4 OFFCURVE",
"226 -2 OFFCURVE",
"228 -2 QCURVE SMOOTH",
"251 -2 OFFCURVE",
"270 32 QCURVE SMOOTH",
"543 506 LINE SMOOTH",
"586 584 OFFCURVE",
"609 607 QCURVE SMOOTH",
"622 620 OFFCURVE",
"664 633 OFFCURVE",
"674 633 QCURVE SMOOTH",
"676 633 OFFCURVE",
"682 659 OFFCURVE",
"681 662 QCURVE",
"667 662 OFFCURVE",
"635 659 OFFCURVE",
"608 657 OFFCURVE",
"589 657 QCURVE SMOOTH",
"576 657 OFFCURVE",
"491 662 QCURVE",
"486 659 OFFCURVE",
"483 635 OFFCURVE",
"486 633 QCURVE",
"491 633 OFFCURVE",
"508 630 OFFCURVE",
"529 622 OFFCURVE",
"541 605 OFFCURVE",
"539 594 QCURVE SMOOTH",
"533 561 OFFCURVE",
"512 524 QCURVE SMOOTH",
"286 128 LINE",
"286 130 OFFCURVE",
"261 291 OFFCURVE",
"232 488 OFFCURVE",
"226 529 QCURVE SMOOTH",
"219 580 OFFCURVE",
"223 600 QCURVE",
"225 613 OFFCURVE",
"255 629 OFFCURVE",
"278 633 OFFCURVE",
"285 633 QCURVE",
"288 634 OFFCURVE",
"293 657 OFFCURVE",
"292 662 QCURVE",
"197 657 OFFCURVE",
"176 657 QCURVE SMOOTH",
"157 657 OFFCURVE",
"124 659 OFFCURVE",
"83 662 OFFCURVE",
"69 662 QCURVE"
);
}
);
width = 596;
}
);
leftKerningGroup = V;
note = V;
rightKerningGroup = V;
unicode = 0056;
},
{
glyphname = W;
lastChange = "2018-03-12 14:51:37 +0000";
layers = (
{
layerId = "14E94935-86A2-4797-A25C-C4BEBC72BEDE";
paths = (
{
closed = 1;
nodes = (
"71 661 OFFCURVE",
"67 647 OFFCURVE",
"65 633 OFFCURVE",
"66 633 QCURVE SMOOTH",
"76 633 OFFCURVE",
"110 622 OFFCURVE",
"117 613 QCURVE SMOOTH",
"119 610 OFFCURVE",
"123 602 OFFCURVE",
"126 596 OFFCURVE",
"129 584 OFFCURVE",
"130 578 OFFCURVE",
"131 563 OFFCURVE",
"132 556 OFFCURVE",
"133 537 OFFCURVE",
"134 532 QCURVE SMOOTH",
"182 14 LINE",
"182 10 OFFCURVE",
"186 -2 OFFCURVE",
"189 -2 QCURVE SMOOTH",
"198 -2 OFFCURVE",
"224 19 OFFCURVE",
"230 32 QCURVE SMOOTH",
"457 511 LINE",
"466 441 OFFCURVE",
"490 252 OFFCURVE",
"509 97 OFFCURVE",
"519 14 QCURVE",
"519 10 OFFCURVE",
"522 -2 OFFCURVE",
"525 -2 QCURVE SMOOTH",
"534 -2 OFFCURVE",
"561 19 OFFCURVE",
"567 32 QCURVE SMOOTH",
"800 531 LINE SMOOTH",
"827 591 OFFCURVE",
"848 607 QCURVE SMOOTH",
"862 618 OFFCURVE",
"905 633 OFFCURVE",
"913 633 QCURVE SMOOTH",
"915 633 OFFCURVE",
"921 659 OFFCURVE",
"920 662 QCURVE",
"906 662 OFFCURVE",
"874 659 OFFCURVE",
"847 657 OFFCURVE",
"828 657 QCURVE SMOOTH",
"814 657 OFFCURVE",
"729 662 QCURVE",
"724 659 OFFCURVE",
"720 635 OFFCURVE",
"723 633 QCURVE",
"728 633 OFFCURVE",
"746 630 OFFCURVE",
"768 622 OFFCURVE",
"781 605 OFFCURVE",
"779 594 QCURVE SMOOTH",
"775 570 OFFCURVE",
"755 524 QCURVE SMOOTH",
"583 144 LINE",
"533 561 OFFCURVE",
"525 646 QCURVE",
"522 656 OFFCURVE",
"519 662 OFFCURVE",
"517 662 QCURVE SMOOTH",
"509 662 OFFCURVE",
"483 643 OFFCURVE",
"477 629 QCURVE SMOOTH",
"247 145 LINE",
"220 482 OFFCURVE",
"217 545 QCURVE SMOOTH",
"214 593 OFFCURVE",
"216 600 QCURVE",
"218 613 OFFCURVE",
"248 629 OFFCURVE",
"271 633 OFFCURVE",
"278 633 QCURVE",
"281 634 OFFCURVE",
"287 657 OFFCURVE",
"286 662 QCURVE",
"191 657 OFFCURVE",
"172 657 QCURVE SMOOTH",
"153 657 OFFCURVE",
"123 659 OFFCURVE",
"87 662 OFFCURVE",
"72 662 QCURVE"
);
}
);
width = 841;
}
);
leftKerningGroup = W;
note = W;
rightKerningGroup = W;
unicode = 0057;
},
{
glyphname = X;
lastChange = "2018-03-12 14:51:37 +0000";
layers = (
{
layerId = "14E94935-86A2-4797-A25C-C4BEBC72BEDE";
paths = (
{
closed = 1;
nodes = (
"107 660 OFFCURVE",
"102 645 OFFCURVE",
"102 634 OFFCURVE",
"104 633 QCURVE",
"113 633 OFFCURVE",
"143 624 OFFCURVE",
"153 617 QCURVE SMOOTH",
"170 605 OFFCURVE",
"190 576 OFFCURVE",
"201 548 QCURVE SMOOTH",
"290 332 LINE",
"53 66 LINE SMOOTH",
"38 50 OFFCURVE",
"-14 30 OFFCURVE",
"-43 26 OFFCURVE",
"-52 26 QCURVE",
"-54 23 OFFCURVE",
"-60 1 OFFCURVE",
"-59 -3 QCURVE",
"37 2 OFFCURVE",
"57 2 QCURVE SMOOTH",
"76 2 OFFCURVE",
"161 -3 QCURVE",
"163 0 OFFCURVE",
"167 22 OFFCURVE",
"165 26 QCURVE",
"141 26 OFFCURVE",
"109 36 OFFCURVE",
"98 46 OFFCURVE",
"99 50 QCURVE",
"100 58 OFFCURVE",
"107 66 QCURVE SMOOTH",
"127 91 OFFCURVE",
"258 246 OFFCURVE",
"306 300 QCURVE",
"402 66 LINE",
"405 57 OFFCURVE",
"404 54 QCURVE",
"401 42 OFFCURVE",
"356 26 OFFCURVE",
"344 26 QCURVE SMOOTH",
"340 26 OFFCURVE",
"336 1 OFFCURVE",
"339 -3 QCURVE",
"469 2 OFFCURVE",
"476 2 QCURVE SMOOTH",
"493 2 OFFCURVE",
"521 1 OFFCURVE",
"557 -3 OFFCURVE",
"570 -3 QCURVE",
"571 0 OFFCURVE",
"577 23 OFFCURVE",
"575 26 QCURVE",
"548 26 OFFCURVE",
"500 46 OFFCURVE",
"492 66 QCURVE SMOOTH",
"369 361 LINE",
"582 592 LINE SMOOTH",
"597 608 OFFCURVE",
"640 628 OFFCURVE",
"665 632 OFFCURVE",
"672 632 QCURVE",
"677 636 OFFCURVE",
"681 657 OFFCURVE",
"680 661 QCURVE",
"622 656 OFFCURVE",
"577 656 QCURVE SMOOTH",
"539 656 OFFCURVE",
"478 661 QCURVE",
"475 656 OFFCURVE",
"471 633 OFFCURVE",
"474 632 QCURVE",
"497 632 OFFCURVE",
"527 622 OFFCURVE",
"535 612 OFFCURVE",
"535 608 QCURVE",
"534 603 OFFCURVE",
"527 592 QCURVE SMOOTH",
"509 566 OFFCURVE",
"355 392 QCURVE",
"281 571 LINE SMOOTH",
"273 590 OFFCURVE",
"276 601 QCURVE",
"278 613 OFFCURVE",
"305 629 OFFCURVE",
"329 633 OFFCURVE",
"338 633 QCURVE SMOOTH",
"341 633 OFFCURVE",
"346 657 OFFCURVE",
"345 662 QCURVE",
"250 657 OFFCURVE",
"225 657 QCURVE SMOOTH",
"204 657 OFFCURVE",
"169 659 OFFCURVE",
"125 662 OFFCURVE",
"110 662 QCURVE"
);
}
);
width = 620;
}
);
leftKerningGroup = X;
note = X;
rightKerningGroup = X;
unicode = 0058;
},
{
glyphname = Y;
lastChange = "2018-03-12 14:51:37 +0000";
layers = (
{
layerId = "14E94935-86A2-4797-A25C-C4BEBC72BEDE";
paths = (
{
closed = 1;
nodes = (
"189 35 OFFCURVE",
"139 26 OFFCURVE",
"125 26 QCURVE",
"121 22 OFFCURVE",
"116 1 OFFCURVE",
"119 -3 QCURVE",
"217 2 OFFCURVE",
"230 2 QCURVE SMOOTH",
"243 2 OFFCURVE",
"338 -3 QCURVE",
"343 1 OFFCURVE",
"346 23 OFFCURVE",
"343 26 QCURVE",
"329 26 OFFCURVE",
"283 35 OFFCURVE",
"282 42 QCURVE",
"280 57 OFFCURVE",
"292 116 QCURVE SMOOTH",
"323 270 LINE",
"323 271 OFFCURVE",
"326 287 OFFCURVE",
"330 296 OFFCURVE",
"333 301 QCURVE SMOOTH",
"538 592 LINE SMOOTH",
"548 606 OFFCURVE",
"577 624 OFFCURVE",
"607 631 OFFCURVE",
"621 632 OFFCURVE",
"627 632 QCURVE SMOOTH",
"629 632 OFFCURVE",
"635 658 OFFCURVE",
"635 661 QCURVE",
"623 661 OFFCURVE",
"586 658 OFFCURVE",
"554 656 OFFCURVE",
"532 656 QCURVE SMOOTH",
"524 656 OFFCURVE",
"439 661 QCURVE",
"437 658 OFFCURVE",
"433 635 OFFCURVE",
"435 632 QCURVE",
"459 632 OFFCURVE",
"490 622 OFFCURVE",
"499 611 OFFCURVE",
"498 607 QCURVE",
"497 599 OFFCURVE",
"492 592 QCURVE",
"479 569 OFFCURVE",
"364 397 OFFCURVE",
"317 331 QCURVE",
"236 571 LINE SMOOTH",
"229 594 OFFCURVE",
"231 601 QCURVE",
"234 613 OFFCURVE",
"260 629 OFFCURVE",
"284 633 OFFCURVE",
"293 633 QCURVE SMOOTH",
"297 633 OFFCURVE",
"301 657 OFFCURVE",
"300 662 QCURVE",
"205 657 OFFCURVE",
"180 657 QCURVE SMOOTH",
"160 657 OFFCURVE",
"125 659 OFFCURVE",
"81 662 OFFCURVE",
"65 662 QCURVE",
"62 660 OFFCURVE",
"57 645 OFFCURVE",
"57 634 OFFCURVE",
"59 633 QCURVE",
"69 633 OFFCURVE",
"98 624 OFFCURVE",
"108 617 QCURVE SMOOTH",
"126 605 OFFCURVE",
"148 575 OFFCURVE",
"156 548 QCURVE SMOOTH",
"239 295 LINE SMOOTH",
"243 284 OFFCURVE",
"240 267 QCURVE",
"211 116 LINE SMOOTH",
"199 56 OFFCURVE",
"192 42 QCURVE"
);
}
);
width = 556;
}
);
leftKerningGroup = Y;
note = Y;
rightKerningGroup = Y;
unicode = 0059;
},
{
glyphname = Z;
lastChange = "2018-03-12 14:51:37 +0000";
layers = (
{
layerId = "14E94935-86A2-4797-A25C-C4BEBC72BEDE";
paths = (
{
closed = 1;
nodes = (
"-10 14 LINE SMOOTH",
"-14 10 OFFCURVE",
"-3 0 OFFCURVE",
"5 0 QCURVE SMOOTH",
"475 0 LINE",
"501 68 OFFCURVE",
"548 166 QCURVE",
"541 175 OFFCURVE",
"527 175 QCURVE SMOOTH",
"515 175 OFFCURVE",
"514 172 QCURVE SMOOTH",
"481 111 OFFCURVE",
"457 86 QCURVE SMOOTH",
"408 32 OFFCURVE",
"348 32 QCURVE SMOOTH",
"103 32 LINE",
"199 141 OFFCURVE",
"452 442 OFFCURVE",
"619 645 OFFCURVE",
"621 649 QCURVE",
"622 655 OFFCURVE",
"612 670 OFFCURVE",
"609 671 QCURVE",
"477 661 OFFCURVE",
"412 661 QCURVE SMOOTH",
"231 661 LINE SMOOTH",
"206 661 OFFCURVE",
"156 669 QCURVE",
"124 556 OFFCURVE",
"92 496 QCURVE",
"93 494 OFFCURVE",
"109 488 OFFCURVE",
"115 488 QCURVE SMOOTH",
"123 488 OFFCURVE",
"126 492 QCURVE",
"154 555 OFFCURVE",
"234 629 OFFCURVE",
"280 629 QCURVE SMOOTH",
"509 630 LINE"
);
}
);
width = 602;
}
);
leftKerningGroup = Z;
note = Z;
rightKerningGroup = Z;
unicode = 005A;
},
{
glyphname = a;
lastChange = "2018-03-12 14:51:37 +0000";
layers = (
{
layerId = "14E94935-86A2-4797-A25C-C4BEBC72BEDE";
paths = (
{
closed = 1;
nodes = (
"19 60 OFFCURVE",
"68 -5 OFFCURVE",
"108 -5 QCURVE SMOOTH",
"129 -5 OFFCURVE",
"176 26 OFFCURVE",
"217 73 OFFCURVE",
"246 114 OFFCURVE",
"255 130 QCURVE",
"254 123 OFFCURVE",
"250 99 QCURVE SMOOTH",
"243 62 OFFCURVE",
"243 46 QCURVE SMOOTH",
"243 23 OFFCURVE",
"262 -6 OFFCURVE",
"277 -6 QCURVE SMOOTH",
"308 -6 OFFCURVE",
"396 67 OFFCURVE",
"408 88 QCURVE",
"408 93 OFFCURVE",
"401 107 OFFCURVE",
"398 107 QCURVE",
"393 102 LINE SMOOTH",
"388 97 OFFCURVE",
"383 91 QCURVE",
"378 85 OFFCURVE",
"362 70 OFFCURVE",
"348 58 OFFCURVE",
"333 49 OFFCURVE",
"328 49 QCURVE SMOOTH",
"323 49 OFFCURVE",
"317 63 OFFCURVE",
"318 84 OFFCURVE",
"321 101 OFFCURVE",
"322 106 QCURVE",
"383 422 LINE",
"348 435 OFFCURVE",
"305 435 QCURVE SMOOTH",
"260 435 OFFCURVE",
"159 383 OFFCURVE",
"74 297 OFFCURVE",
"19 176 OFFCURVE",
"19 113 QCURVE SMOOTH"
);
},
{
closed = 1;
nodes = (
"284 274 LINE SMOOTH",
"275 226 OFFCURVE",
"228 124 OFFCURVE",
"168 53 OFFCURVE",
"144 53 QCURVE SMOOTH",
"93 53 OFFCURVE",
"93 151 QCURVE SMOOTH",
"93 207 OFFCURVE",
"144 322 OFFCURVE",
"222 395 OFFCURVE",
"259 395 QCURVE SMOOTH",
"271 395 OFFCURVE",
"299 387 OFFCURVE",
"305 380 QCURVE"
);
}
);
width = 449;
}
);
leftKerningGroup = a;
note = a;
rightKerningGroup = a;
unicode = 0061;
},
{
glyphname = b;
lastChange = "2018-03-12 14:51:37 +0000";
layers = (
{
layerId = "14E94935-86A2-4797-A25C-C4BEBC72BEDE";
paths = (
{
closed = 1;
nodes = (
"314 271 OFFCURVE",
"290 179 OFFCURVE",
"252 90 OFFCURVE",
"194 27 OFFCURVE",
"164 27 QCURVE SMOOTH",
"129 27 OFFCURVE",
"106 95 OFFCURVE",
"118 156 QCURVE SMOOTH",
"126 196 OFFCURVE",
"165 279 OFFCURVE",
"212 341 OFFCURVE",
"259 380 OFFCURVE",
"275 380 QCURVE SMOOTH",
"288 380 OFFCURVE",
"304 367 OFFCURVE",
"312 342 OFFCURVE",
"314 319 OFFCURVE",
"314 302 QCURVE SMOOTH"
);
},
{
closed = 1;
nodes = (
"218 656 OFFCURVE",
"218 666 QCURVE SMOOTH",
"218 682 OFFCURVE",
"212 685 QCURVE",
"135 657 OFFCURVE",
"80 652 QCURVE",
"77 649 OFFCURVE",
"74 634 OFFCURVE",
"76 631 QCURVE",
"137 631 OFFCURVE",
"137 612 QCURVE SMOOTH",
"137 600 OFFCURVE",
"128 559 QCURVE SMOOTH",
"49 158 LINE SMOOTH",
"43 122 OFFCURVE",
"43 111 QCURVE SMOOTH",
"43 56 OFFCURVE",
"94 -6 OFFCURVE",
"136 -6 QCURVE SMOOTH",
"176 -6 OFFCURVE",
"265 47 OFFCURVE",
"340 134 OFFCURVE",
"388 258 OFFCURVE",
"388 322 QCURVE SMOOTH",
"388 375 OFFCURVE",
"352 435 OFFCURVE",
"318 435 QCURVE SMOOTH",
"305 435 OFFCURVE",
"269 420 OFFCURVE",
"222 389 OFFCURVE",
"168 327 OFFCURVE",
"143 285 QCURVE",
"205 591 LINE SMOOTH"
);
}
);
width = 429;
}
);
leftKerningGroup = b;
note = b;
rightKerningGroup = b;
unicode = 0062;
},
{
glyphname = c;
lastChange = "2018-03-12 14:51:37 +0000";
layers = (
{
layerId = "14E94935-86A2-4797-A25C-C4BEBC72BEDE";
paths = (
{
closed = 1;
nodes = (
"24 70 OFFCURVE",
"82 -6 OFFCURVE",
"135 -6 QCURVE SMOOTH",
"157 -6 OFFCURVE",
"210 22 OFFCURVE",
"252 61 OFFCURVE",
"281 94 OFFCURVE",
"286 102 QCURVE",
"286 107 OFFCURVE",
"277 122 OFFCURVE",
"274 122 QCURVE",
"271 118 LINE SMOOTH",
"267 114 OFFCURVE",
"263 110 QCURVE",
"259 106 OFFCURVE",
"252 99 QCURVE SMOOTH",
"245 93 OFFCURVE",
"232 81 OFFCURVE",
"214 68 OFFCURVE",
"198 59 OFFCURVE",
"179 53 OFFCURVE",
"171 53 QCURVE SMOOTH",
"149 53 OFFCURVE",
"119 76 OFFCURVE",
"107 114 OFFCURVE",
"102 145 OFFCURVE",
"102 162 QCURVE SMOOTH",
"102 211 OFFCURVE",
"125 299 OFFCURVE",
"160 359 OFFCURVE",
"204 394 OFFCURVE",
"224 394 QCURVE SMOOTH",
"238 394 OFFCURVE",
"260 381 OFFCURVE",
"269 369 OFFCURVE",
"276 358 QCURVE",
"281 349 OFFCURVE",
"302 338 OFFCURVE",
"312 338 QCURVE SMOOTH",
"329 338 OFFCURVE",
"346 365 OFFCURVE",
"346 383 QCURVE SMOOTH",
"346 398 OFFCURVE",
"337 410 QCURVE",
"308 435 OFFCURVE",
"275 435 QCURVE SMOOTH",
"237 435 OFFCURVE",
"148 387 OFFCURVE",
"74 309 OFFCURVE",
"24 198 OFFCURVE",
"24 140 QCURVE SMOOTH"
);
}
);
width = 359;
}
);
leftKerningGroup = c;
note = c;
rightKerningGroup = c;
unicode = 0063;
},
{
glyphname = d;
lastChange = "2018-03-12 14:51:37 +0000";
layers = (
{
layerId = "14E94935-86A2-4797-A25C-C4BEBC72BEDE";
paths = (
{
closed = 1;
nodes = (
"275 228 OFFCURVE",
"228 124 OFFCURVE",
"169 53 OFFCURVE",
"144 53 QCURVE SMOOTH",
"118 53 OFFCURVE",
"93 106 OFFCURVE",
"93 150 QCURVE SMOOTH",
"93 207 OFFCURVE",
"143 321 OFFCURVE",
"222 395 OFFCURVE",
"261 395 QCURVE SMOOTH",
"280 395 OFFCURVE",
"300 360 OFFCURVE",
"296 341 QCURVE SMOOTH",
"284 276 LINE SMOOTH"
);
},
{
closed = 1;
nodes = (
"312 435 LINE",
"309 435 LINE",
"306 435 LINE",
"303 435 LINE SMOOTH",
"239 435 OFFCURVE",
"107 342 OFFCURVE",
"19 192 OFFCURVE",
"19 116 QCURVE SMOOTH",
"19 67 OFFCURVE",
"64 -5 OFFCURVE",
"107 -5 QCURVE SMOOTH",
"135 -5 OFFCURVE",
"203 53 OFFCURVE",
"245 111 OFFCURVE",
"255 130 QCURVE",
"252 108 OFFCURVE",
"250 99 QCURVE",
"243 62 OFFCURVE",
"243 46 QCURVE SMOOTH",
"243 23 OFFCURVE",
"262 -6 OFFCURVE",
"277 -6 QCURVE SMOOTH",
"308 -6 OFFCURVE",
"396 67 OFFCURVE",
"408 88 QCURVE",
"408 93 OFFCURVE",
"401 107 OFFCURVE",
"398 107 QCURVE",
"393 102 LINE SMOOTH",
"388 97 OFFCURVE",
"383 91 QCURVE",
"378 85 OFFCURVE",
"362 70 OFFCURVE",
"348 58 OFFCURVE",
"333 49 OFFCURVE",
"328 49 QCURVE SMOOTH",
"318 49 OFFCURVE",
"318 73 QCURVE SMOOTH",
"318 90 OFFCURVE",
"322 106 QCURVE",
"416 591 LINE SMOOTH",
"429 656 OFFCURVE",
"429 666 QCURVE SMOOTH",
"429 682 OFFCURVE",
"423 685 QCURVE",
"346 657 OFFCURVE",
"291 652 QCURVE",
"288 649 OFFCURVE",
"285 634 OFFCURVE",
"287 631 QCURVE",
"348 631 OFFCURVE",
"348 612 QCURVE SMOOTH",
"348 607 OFFCURVE",
"345 590 OFFCURVE",
"340 565 OFFCURVE",
"339 559 QCURVE SMOOTH",
"316 435 LINE"
);
}
);
width = 449;
}
);
leftKerningGroup = d;
note = d;
rightKerningGroup = d;
unicode = 0064;
},
{
glyphname = eth;
lastChange = "2018-03-12 14:51:37 +0000";
layers = (
{
layerId = "14E94935-86A2-4797-A25C-C4BEBC72BEDE";
paths = (
{
closed = 1;
nodes = (
"305 334 OFFCURVE",
"305 273 QCURVE SMOOTH",
"305 173 OFFCURVE",
"225 27 OFFCURVE",
"175 27 QCURVE SMOOTH",
"158 27 OFFCURVE",
"133 54 OFFCURVE",
"122 98 OFFCURVE",
"117 138 OFFCURVE",
"117 158 QCURVE SMOOTH",
"117 223 OFFCURVE",
"157 338 OFFCURVE",
"219 403 OFFCURVE",
"251 403 QCURVE SMOOTH",
"269 403 OFFCURVE",
"299 373 OFFCURVE",
"302 353 QCURVE SMOOTH"
);
},
{
closed = 1;
nodes = (
"39 119 OFFCURVE",
"46 79 OFFCURVE",
"62 41 OFFCURVE",
"87 13 OFFCURVE",
"128 -5 OFFCURVE",
"153 -5 QCURVE SMOOTH",
"187 -5 OFFCURVE",
"255 27 OFFCURVE",
"315 90 OFFCURVE",
"361 175 OFFCURVE",
"388 290 OFFCURVE",
"388 353 QCURVE SMOOTH",
"388 413 OFFCURVE",
"358 523 OFFCURVE",
"329 569 QCURVE SMOOTH",
"316 588 OFFCURVE",
"301 605 QCURVE",
"403 673 LINE",
"405 677 OFFCURVE",
"398 700 OFFCURVE",
"393 704 QCURVE",
"278 628 LINE",
"266 638 OFFCURVE",
"253 646 QCURVE SMOOTH",
"207 678 OFFCURVE",
"148 688 QCURVE",
"143 688 OFFCURVE",
"136 678 OFFCURVE",
"135 672 QCURVE",
"178 662 OFFCURVE",
"214 633 QCURVE SMOOTH",
"230 620 OFFCURVE",
"243 605 QCURVE",
"147 541 LINE",
"144 536 OFFCURVE",
"151 513 OFFCURVE",
"156 509 QCURVE",
"263 580 LINE",
"267 574 OFFCURVE",
"270 568 QCURVE SMOOTH",
"292 532 OFFCURVE",
"314 457 OFFCURVE",
"313 426 QCURVE",
"298 435 OFFCURVE",
"259 435 QCURVE SMOOTH",
"223 435 OFFCURVE",
"153 395 OFFCURVE",
"101 331 OFFCURVE",
"60 253 OFFCURVE",
"39 173 OFFCURVE",
"39 140 QCURVE SMOOTH"
);
}
);
width = 437;
}
);
leftKerningGroup = eth;
note = eth;
unicode = 00F0;
},
{
glyphname = e;
lastChange = "2018-03-12 14:51:37 +0000";
layers = (
{
layerId = "14E94935-86A2-4797-A25C-C4BEBC72BEDE";
paths = (
{
closed = 1;
nodes = (
"23 69 OFFCURVE",
"80 -6 OFFCURVE",
"133 -6 QCURVE SMOOTH",
"155 -6 OFFCURVE",
"207 21 OFFCURVE",
"249 59 OFFCURVE",
"279 92 OFFCURVE",
"285 102 QCURVE",
"285 107 OFFCURVE",
"276 122 OFFCURVE",
"273 122 QCURVE",
"270 118 LINE SMOOTH",
"266 114 OFFCURVE",
"262 110 QCURVE",
"258 106 OFFCURVE",
"251 99 QCURVE SMOOTH",
"244 93 OFFCURVE",
"231 81 OFFCURVE",
"213 68 OFFCURVE",
"197 59 OFFCURVE",
"178 53 OFFCURVE",
"170 53 QCURVE SMOOTH",
"135 53 OFFCURVE",
"101 112 OFFCURVE",
"101 161 QCURVE SMOOTH",
"101 187 OFFCURVE",
"103 193 QCURVE",
"127 193 OFFCURVE",
"206 223 OFFCURVE",
"284 271 OFFCURVE",
"340 339 OFFCURVE",
"340 373 QCURVE SMOOTH",
"340 399 OFFCURVE",
"309 435 OFFCURVE",
"274 435 QCURVE SMOOTH",
"232 435 OFFCURVE",
"141 384 OFFCURVE",
"70 302 OFFCURVE",
"23 193 OFFCURVE",
"23 139 QCURVE SMOOTH"
);
},
{
closed = 1;
nodes = (
"240 394 OFFCURVE",
"266 373 OFFCURVE",
"266 354 QCURVE SMOOTH",
"266 328 OFFCURVE",
"227 276 OFFCURVE",
"173 241 OFFCURVE",
"121 218 OFFCURVE",
"105 218 QCURVE",
"107 239 OFFCURVE",
"126 296 OFFCURVE",
"155 354 OFFCURVE",
"200 394 OFFCURVE",
"224 394 QCURVE SMOOTH"
);
}
);
width = 363;
}
);
leftKerningGroup = e;
note = e;
rightKerningGroup = e;
unicode = 0065;
},
{
glyphname = f;
lastChange = "2018-03-12 14:51:37 +0000";
layers = (
{
layerId = "14E94935-86A2-4797-A25C-C4BEBC72BEDE";
paths = (
{
closed = 1;
nodes = (
"82 413 LINE SMOOTH",
"66 413 OFFCURVE",
"36 388 OFFCURVE",
"36 379 QCURVE SMOOTH",
"36 376 OFFCURVE",
"38 376 QCURVE SMOOTH",
"123 376 LINE",
"63 39 LINE SMOOTH",
"38 -89 OFFCURVE",
"1 -190 OFFCURVE",
"-27 -190 QCURVE SMOOTH",
"-41 -190 OFFCURVE",
"-56 -175 QCURVE SMOOTH",
"-64 -167 OFFCURVE",
"-72 -160 OFFCURVE",
"-86 -152 OFFCURVE",
"-94 -152 QCURVE SMOOTH",
"-117 -152 OFFCURVE",
"-123 -192 QCURVE",
"-124 -203 OFFCURVE",
"-124 -208 QCURVE",
"-111 -233 OFFCURVE",
"-70 -233 QCURVE SMOOTH",
"-8 -233 OFFCURVE",
"114 -77 OFFCURVE",
"137 43 QCURVE SMOOTH",
"161 169 OFFCURVE",
"196 376 QCURVE",
"299 376 LINE",
"308 391 OFFCURVE",
"308 401 QCURVE SMOOTH",
"308 413 OFFCURVE",
"303 413 QCURVE SMOOTH",
"203 413 LINE",
"228 541 OFFCURVE",
"265 642 OFFCURVE",
"293 642 QCURVE SMOOTH",
"307 642 OFFCURVE",
"322 627 QCURVE SMOOTH",
"330 619 OFFCURVE",
"338 612 OFFCURVE",
"352 604 OFFCURVE",
"360 604 QCURVE SMOOTH",
"374 604 OFFCURVE",
"388 632 OFFCURVE",
"390 651 QCURVE",
"390 653 OFFCURVE",
"390 659 OFFCURVE",
"390 660 QCURVE",
"377 685 OFFCURVE",
"336 685 QCURVE SMOOTH",
"274 685 OFFCURVE",
"153 532 OFFCURVE",
"129 413 QCURVE"
);
}
);
width = 296;
}
);
leftKerningGroup = f;
note = f;
rightKerningGroup = f;
unicode = 0066;
},
{
glyphname = g;
lastChange = "2018-03-12 14:51:37 +0000";
layers = (
{
layerId = "14E94935-86A2-4797-A25C-C4BEBC72BEDE";
paths = (
{
closed = 1;
nodes = (
"26 -198 OFFCURVE",
"26 -110 QCURVE SMOOTH",
"26 -94 OFFCURVE",
"40 -65 OFFCURVE",
"60 -44 OFFCURVE",
"89 -24 OFFCURVE",
"113 -12 OFFCURVE",
"127 -6 QCURVE",
"150 -13 OFFCURVE",
"182 -24 OFFCURVE",
"228 -46 OFFCURVE",
"257 -68 OFFCURVE",
"278 -100 OFFCURVE",
"278 -118 QCURVE SMOOTH",
"278 -151 OFFCURVE",
"218 -198 OFFCURVE",
"169 -198 QCURVE SMOOTH"
);
},
{
closed = 1;
nodes = (
"273 261 OFFCURVE",
"253 198 OFFCURVE",
"207 151 OFFCURVE",
"176 151 QCURVE SMOOTH",
"146 151 OFFCURVE",
"114 207 OFFCURVE",
"114 247 QCURVE SMOOTH",
"114 284 OFFCURVE",
"136 355 OFFCURVE",
"182 407 OFFCURVE",
"212 407 QCURVE SMOOTH",
"239 407 OFFCURVE",
"273 335 OFFCURVE",
"273 294 QCURVE SMOOTH"
);
},
{
closed = 1;
nodes = (
"412 380 OFFCURVE",
"418 389 OFFCURVE",
"418 394 QCURVE SMOOTH",
"418 403 OFFCURVE",
"389 426 OFFCURVE",
"377 429 QCURVE",
"373 429 OFFCURVE",
"345 418 OFFCURVE",
"320 411 OFFCURVE",
"314 414 QCURVE SMOOTH",
"299 422 OFFCURVE",
"279 429 OFFCURVE",
"247 436 OFFCURVE",
"229 436 QCURVE SMOOTH",
"183 436 OFFCURVE",
"96 386 OFFCURVE",
"40 294 OFFCURVE",
"40 239 QCURVE SMOOTH",
"40 211 OFFCURVE",
"66 164 OFFCURVE",
"104 137 OFFCURVE",
"140 122 OFFCURVE",
"153 122 QCURVE",
"124 115 OFFCURVE",
"53 71 OFFCURVE",
"53 54 QCURVE SMOOTH",
"53 35 OFFCURVE",
"78 18 QCURVE SMOOTH",
"96 6 LINE",
"75 -4 OFFCURVE",
"41 -22 OFFCURVE",
"-1 -50 OFFCURVE",
"-29 -78 OFFCURVE",
"-48 -115 OFFCURVE",
"-48 -135 QCURVE SMOOTH",
"-48 -181 OFFCURVE",
"39 -233 OFFCURVE",
"108 -233 QCURVE SMOOTH",
"216 -233 OFFCURVE",
"342 -149 OFFCURVE",
"342 -78 QCURVE SMOOTH",
"342 -46 OFFCURVE",
"301 6 OFFCURVE",
"242 34 OFFCURVE",
"183 56 OFFCURVE",
"141 74 OFFCURVE",
"141 82 QCURVE SMOOTH",
"141 92 OFFCURVE",
"182 114 OFFCURVE",
"244 138 OFFCURVE",
"256 145 QCURVE SMOOTH",
"265 150 OFFCURVE",
"282 164 OFFCURVE",
"311 194 OFFCURVE",
"332 228 OFFCURVE",
"347 282 OFFCURVE",
"347 312 QCURVE SMOOTH",
"347 324 OFFCURVE",
"341 355 OFFCURVE",
"333 380 OFFCURVE",
"333 381 QCURVE",
"341 382 OFFCURVE",
"404 380 OFFCURVE",
"406 380 QCURVE SMOOTH"
);
}
);
width = 412;
}
);
leftKerningGroup = g;
note = g;
rightKerningGroup = g;
unicode = 0067;
},
{
glyphname = h;
lastChange = "2018-03-12 14:51:37 +0000";
layers = (
{
layerId = "14E94935-86A2-4797-A25C-C4BEBC72BEDE";
paths = (
{
closed = 1;
nodes = (
"220 682 OFFCURVE",
"214 685 QCURVE",
"137 657 OFFCURVE",
"82 652 QCURVE",
"79 649 OFFCURVE",
"76 634 OFFCURVE",
"78 631 QCURVE",
"139 631 OFFCURVE",
"139 612 QCURVE SMOOTH",
"139 607 OFFCURVE",
"136 590 OFFCURVE",
"131 565 OFFCURVE",
"130 559 QCURVE SMOOTH",
"22 0 LINE",
"38 -4 OFFCURVE",
"56 -4 QCURVE SMOOTH",
"79 -4 OFFCURVE",
"92 0 QCURVE",
"110 83 OFFCURVE",
"117 119 QCURVE SMOOTH",
"125 161 OFFCURVE",
"174 251 OFFCURVE",
"230 318 OFFCURVE",
"283 361 OFFCURVE",
"296 361 QCURVE SMOOTH",
"308 361 OFFCURVE",
"315 339 OFFCURVE",
"315 318 QCURVE SMOOTH",
"315 296 OFFCURVE",
"308 264 QCURVE SMOOTH",
"273 99 LINE SMOOTH",
"266 70 OFFCURVE",
"266 46 QCURVE SMOOTH",
"266 23 OFFCURVE",
"284 -6 OFFCURVE",
"300 -6 QCURVE SMOOTH",
"331 -6 OFFCURVE",
"419 67 OFFCURVE",
"431 88 QCURVE",
"431 93 OFFCURVE",
"424 107 OFFCURVE",
"421 107 QCURVE",
"416 102 LINE SMOOTH",
"411 97 OFFCURVE",
"406 91 QCURVE",
"401 85 OFFCURVE",
"385 70 OFFCURVE",
"371 58 OFFCURVE",
"356 49 OFFCURVE",
"351 49 QCURVE SMOOTH",
"341 49 OFFCURVE",
"341 74 QCURVE SMOOTH",
"341 90 OFFCURVE",
"345 106 QCURVE SMOOTH",
"378 260 LINE SMOOTH",
"392 327 OFFCURVE",
"392 369 QCURVE SMOOTH",
"392 399 OFFCURVE",
"365 435 OFFCURVE",
"337 435 QCURVE SMOOTH",
"319 435 OFFCURVE",
"267 399 OFFCURVE",
"218 347 OFFCURVE",
"172 290 OFFCURVE",
"143 247 OFFCURVE",
"138 238 QCURVE",
"156 330 LINE",
"207 591 LINE SMOOTH",
"220 656 OFFCURVE",
"220 666 QCURVE SMOOTH"
);
}
);
width = 470;
}
);
leftKerningGroup = h;
note = h;
rightKerningGroup = h;
unicode = 0068;
},
{
glyphname = i;
lastChange = "2018-03-12 14:51:37 +0000";
layers = (
{
layerId = "14E94935-86A2-4797-A25C-C4BEBC72BEDE";
paths = (
{
closed = 1;
nodes = (
"53 62 OFFCURVE",
"53 46 QCURVE SMOOTH",
"53 23 OFFCURVE",
"72 -6 OFFCURVE",
"87 -6 QCURVE SMOOTH",
"118 -6 OFFCURVE",
"206 67 OFFCURVE",
"218 88 QCURVE",
"218 93 OFFCURVE",
"211 107 OFFCURVE",
"208 107 QCURVE",
"203 102 LINE SMOOTH",
"198 97 OFFCURVE",
"193 91 QCURVE",
"188 85 OFFCURVE",
"172 70 OFFCURVE",
"158 58 OFFCURVE",
"143 49 OFFCURVE",
"138 49 QCURVE SMOOTH",
"128 49 OFFCURVE",
"128 74 QCURVE SMOOTH",
"128 86 OFFCURVE",
"132 106 QCURVE SMOOTH",
"183 330 LINE",
"190 367 OFFCURVE",
"190 383 QCURVE SMOOTH",
"190 405 OFFCURVE",
"167 435 OFFCURVE",
"151 435 QCURVE SMOOTH",
"121 435 OFFCURVE",
"38 363 OFFCURVE",
"25 341 QCURVE",
"25 337 OFFCURVE",
"33 322 OFFCURVE",
"35 322 QCURVE",
"40 327 LINE SMOOTH",
"45 332 OFFCURVE",
"50 339 QCURVE",
"56 345 OFFCURVE",
"71 360 OFFCURVE",
"86 372 OFFCURVE",
"100 380 OFFCURVE",
"105 380 QCURVE SMOOTH",
"115 380 OFFCURVE",
"115 355 QCURVE SMOOTH",
"115 347 OFFCURVE",
"111 323 QCURVE",
"60 99 LINE"
);
},
{
closed = 1;
nodes = (
"116 572 OFFCURVE",
"135 546 OFFCURVE",
"150 546 QCURVE SMOOTH",
"173 546 OFFCURVE",
"204 582 OFFCURVE",
"204 606 QCURVE SMOOTH",
"204 622 OFFCURVE",
"184 646 OFFCURVE",
"168 646 QCURVE SMOOTH",
"146 646 OFFCURVE",
"116 612 OFFCURVE",
"116 589 QCURVE SMOOTH"
);
}
);
width = 262;
}
);
leftKerningGroup = i;
note = i;
rightKerningGroup = i;
unicode = 0069;
},
{
glyphname = j;
lastChange = "2018-03-12 14:51:37 +0000";
layers = (
{
layerId = "14E94935-86A2-4797-A25C-C4BEBC72BEDE";
paths = (
{
closed = 1;
nodes = (
"41 -61 OFFCURVE",
"-35 -187 OFFCURVE",
"-85 -215 QCURVE",
"-85 -220 OFFCURVE",
"-79 -233 OFFCURVE",
"-76 -235 QCURVE",
"-46 -223 OFFCURVE",
"34 -162 OFFCURVE",
"63 -124 QCURVE SMOOTH",
"92 -86 OFFCURVE",
"127 8 OFFCURVE",
"134 45 QCURVE SMOOTH",
"189 330 LINE SMOOTH",
"196 367 OFFCURVE",
"196 383 QCURVE SMOOTH",
"196 405 OFFCURVE",
"173 435 OFFCURVE",
"157 435 QCURVE SMOOTH",
"127 435 OFFCURVE",
"44 363 OFFCURVE",
"31 341 QCURVE",
"31 337 OFFCURVE",
"39 322 OFFCURVE",
"41 322 QCURVE",
"46 327 LINE SMOOTH",
"51 332 OFFCURVE",
"56 339 QCURVE",
"62 345 OFFCURVE",
"77 360 OFFCURVE",
"92 372 OFFCURVE",
"106 380 OFFCURVE",
"111 380 QCURVE SMOOTH",
"121 380 OFFCURVE",
"121 355 QCURVE SMOOTH",
"121 347 OFFCURVE",
"117 323 QCURVE SMOOTH",
"57 22 LINE SMOOTH"
);
},
{
closed = 1;
nodes = (
"133 572 OFFCURVE",
"152 546 OFFCURVE",
"167 546 QCURVE SMOOTH",
"190 546 OFFCURVE",
"221 582 OFFCURVE",
"221 606 QCURVE SMOOTH",
"221 622 OFFCURVE",
"201 646 OFFCURVE",
"185 646 QCURVE SMOOTH",
"163 646 OFFCURVE",
"133 612 OFFCURVE",
"133 589 QCURVE SMOOTH"
);
}
);
width = 249;
}
);
leftKerningGroup = f;
note = j;
rightKerningGroup = j;
unicode = 006A;
},
{
glyphname = k;
lastChange = "2018-03-12 14:51:37 +0000";
layers = (
{
layerId = "14E94935-86A2-4797-A25C-C4BEBC72BEDE";
paths = (
{
closed = 1;
nodes = (
"156 322 LINE",
"208 591 LINE SMOOTH",
"221 656 OFFCURVE",
"221 666 QCURVE SMOOTH",
"221 682 OFFCURVE",
"215 685 QCURVE",
"138 657 OFFCURVE",
"83 652 QCURVE",
"80 649 OFFCURVE",
"77 634 OFFCURVE",
"79 631 QCURVE",
"140 631 OFFCURVE",
"140 612 QCURVE SMOOTH",
"140 600 OFFCURVE",
"131 559 QCURVE SMOOTH",
"22 0 LINE",
"42 -5 OFFCURVE",
"58 -5 QCURVE SMOOTH",
"75 -5 OFFCURVE",
"93 0 QCURVE",
"130 191 LINE",
"138 179 OFFCURVE",
"167 126 OFFCURVE",
"187 90 OFFCURVE",
"218 44 OFFCURVE",
"246 16 OFFCURVE",
"283 -4 OFFCURVE",
"302 -4 QCURVE SMOOTH",
"331 -4 OFFCURVE",
"414 70 OFFCURVE",
"424 88 QCURVE",
"424 92 OFFCURVE",
"416 107 OFFCURVE",
"414 107 QCURVE",
"402 92 OFFCURVE",
"357 51 OFFCURVE",
"346 51 QCURVE SMOOTH",
"315 51 OFFCURVE",
"255 113 OFFCURVE",
"189 211 QCURVE",
"233 219 OFFCURVE",
"306 243 OFFCURVE",
"366 280 OFFCURVE",
"400 334 OFFCURVE",
"400 367 QCURVE SMOOTH",
"400 396 OFFCURVE",
"355 435 OFFCURVE",
"325 435 QCURVE SMOOTH",
"301 435 OFFCURVE",
"250 413 OFFCURVE",
"209 380 OFFCURVE",
"178 348 OFFCURVE",
"167 335 QCURVE SMOOTH"
);
},
{
closed = 1;
nodes = (
"322 330 OFFCURVE",
"297 289 OFFCURVE",
"257 260 OFFCURVE",
"207 240 OFFCURVE",
"159 230 OFFCURVE",
"138 230 QCURVE",
"148 279 OFFCURVE",
"248 388 OFFCURVE",
"289 388 QCURVE SMOOTH",
"308 388 OFFCURVE",
"322 370 OFFCURVE",
"322 354 QCURVE SMOOTH"
);
}
);
width = 460;
}
);
leftKerningGroup = h;
note = k;
rightKerningGroup = k;
unicode = 006B;
},
{
glyphname = l;
lastChange = "2018-03-12 14:51:37 +0000";
layers = (
{
layerId = "14E94935-86A2-4797-A25C-C4BEBC72BEDE";
paths = (
{
closed = 1;
nodes = (
"37 62 OFFCURVE",
"37 46 QCURVE SMOOTH",
"37 23 OFFCURVE",
"55 -6 OFFCURVE",
"71 -6 QCURVE SMOOTH",
"102 -6 OFFCURVE",
"190 67 OFFCURVE",
"202 88 QCURVE",
"202 93 OFFCURVE",
"195 107 OFFCURVE",
"192 107 QCURVE",
"187 102 LINE SMOOTH",
"182 97 OFFCURVE",
"177 91 QCURVE",
"172 85 OFFCURVE",
"156 70 OFFCURVE",
"142 58 OFFCURVE",
"127 49 OFFCURVE",
"122 49 QCURVE SMOOTH",
"112 49 OFFCURVE",
"112 74 QCURVE SMOOTH",
"112 90 OFFCURVE",
"116 106 QCURVE",
"211 591 LINE SMOOTH",
"224 656 OFFCURVE",
"224 666 QCURVE SMOOTH",
"224 682 OFFCURVE",
"218 685 QCURVE",
"141 657 OFFCURVE",
"86 652 QCURVE",
"83 649 OFFCURVE",
"80 634 OFFCURVE",
"82 631 QCURVE",
"143 631 OFFCURVE",
"143 612 QCURVE SMOOTH",
"143 600 OFFCURVE",
"134 559 QCURVE SMOOTH",
"44 99 LINE SMOOTH"
);
}
);
width = 243;
}
);
leftKerningGroup = l;
note = l;
rightKerningGroup = l;
unicode = 006C;
},
{
glyphname = m;
lastChange = "2018-03-12 14:51:37 +0000";
layers = (
{
layerId = "14E94935-86A2-4797-A25C-C4BEBC72BEDE";
paths = (
{
closed = 1;
nodes = (
"510 23 OFFCURVE",
"529 -6 OFFCURVE",
"544 -6 QCURVE SMOOTH",
"575 -6 OFFCURVE",
"663 67 OFFCURVE",
"675 88 QCURVE",
"675 93 OFFCURVE",
"668 107 OFFCURVE",
"665 107 QCURVE",
"660 102 LINE SMOOTH",
"655 97 OFFCURVE",
"650 91 QCURVE",
"645 85 OFFCURVE",
"629 70 OFFCURVE",
"615 58 OFFCURVE",
"600 49 OFFCURVE",
"595 49 QCURVE SMOOTH",
"585 49 OFFCURVE",
"585 74 QCURVE SMOOTH",
"585 86 OFFCURVE",
"589 106 QCURVE SMOOTH",
"622 260 LINE SMOOTH",
"636 324 OFFCURVE",
"636 369 QCURVE SMOOTH",
"636 402 OFFCURVE",
"607 435 OFFCURVE",
"574 435 QCURVE SMOOTH",
"539 435 OFFCURVE",
"423 309 OFFCURVE",
"390 251 QCURVE",
"395 264 OFFCURVE",
"404 323 OFFCURVE",
"404 340 QCURVE SMOOTH",
"404 435 OFFCURVE",
"337 435 QCURVE SMOOTH",
"313 435 OFFCURVE",
"238 359 OFFCURVE",
"182 276 OFFCURVE",
"159 237 QCURVE",
"175 306 OFFCURVE",
"179 330 QCURVE SMOOTH",
"187 372 OFFCURVE",
"187 383 QCURVE SMOOTH",
"187 405 OFFCURVE",
"164 435 OFFCURVE",
"148 435 QCURVE SMOOTH",
"118 435 OFFCURVE",
"35 363 OFFCURVE",
"22 341 QCURVE",
"22 337 OFFCURVE",
"30 322 OFFCURVE",
"32 322 QCURVE",
"37 327 LINE SMOOTH",
"42 332 OFFCURVE",
"47 339 QCURVE",
"53 345 OFFCURVE",
"68 360 OFFCURVE",
"83 372 OFFCURVE",
"97 380 OFFCURVE",
"102 380 QCURVE SMOOTH",
"112 380 OFFCURVE",
"112 355 QCURVE SMOOTH",
"112 347 OFFCURVE",
"108 323 QCURVE",
"42 0 LINE",
"66 -4 OFFCURVE",
"77 -4 QCURVE SMOOTH",
"99 -4 OFFCURVE",
"113 0 QCURVE",
"138 122 LINE SMOOTH",
"148 168 OFFCURVE",
"213 283 OFFCURVE",
"287 361 OFFCURVE",
"309 361 QCURVE SMOOTH",
"329 361 OFFCURVE",
"329 322 QCURVE SMOOTH",
"329 306 OFFCURVE",
"325 284 QCURVE SMOOTH",
"269 0 LINE",
"289 -3 OFFCURVE",
"304 -3 QCURVE SMOOTH",
"320 -3 OFFCURVE",
"341 0 QCURVE",
"366 132 LINE SMOOTH",
"375 180 OFFCURVE",
"445 290 OFFCURVE",
"520 361 OFFCURVE",
"540 361 QCURVE SMOOTH",
"553 361 OFFCURVE",
"559 341 OFFCURVE",
"559 318 QCURVE SMOOTH",
"559 296 OFFCURVE",
"552 264 QCURVE SMOOTH",
"517 99 LINE SMOOTH",
"510 62 OFFCURVE",
"510 46 QCURVE SMOOTH"
);
}
);
width = 714;
}
);
leftKerningGroup = m;
note = m;
rightKerningGroup = h;
unicode = 006D;
},
{
glyphname = n;
lastChange = "2018-03-12 14:51:37 +0000";
layers = (
{
layerId = "14E94935-86A2-4797-A25C-C4BEBC72BEDE";
paths = (
{
closed = 1;
nodes = (
"187 405 OFFCURVE",
"164 435 OFFCURVE",
"148 435 QCURVE SMOOTH",
"118 435 OFFCURVE",
"35 363 OFFCURVE",
"22 341 QCURVE",
"22 337 OFFCURVE",
"30 322 OFFCURVE",
"32 322 QCURVE",
"37 327 LINE SMOOTH",
"42 332 OFFCURVE",
"47 339 QCURVE",
"53 345 OFFCURVE",
"68 360 OFFCURVE",
"83 372 OFFCURVE",
"97 380 OFFCURVE",
"102 380 QCURVE SMOOTH",
"112 380 OFFCURVE",
"112 355 QCURVE SMOOTH",
"112 347 OFFCURVE",
"108 323 QCURVE",
"42 0 LINE",
"58 -4 OFFCURVE",
"77 -4 QCURVE SMOOTH",
"97 -4 OFFCURVE",
"113 0 QCURVE",
"134 102 OFFCURVE",
"138 122 QCURVE SMOOTH",
"147 166 OFFCURVE",
"197 257 OFFCURVE",
"255 321 OFFCURVE",
"309 361 OFFCURVE",
"323 361 QCURVE SMOOTH",
"336 361 OFFCURVE",
"342 341 OFFCURVE",
"342 318 QCURVE SMOOTH",
"342 296 OFFCURVE",
"335 264 QCURVE SMOOTH",
"300 99 LINE SMOOTH",
"293 62 OFFCURVE",
"293 46 QCURVE SMOOTH",
"293 23 OFFCURVE",
"312 -6 OFFCURVE",
"327 -6 QCURVE SMOOTH",
"358 -6 OFFCURVE",
"446 67 OFFCURVE",
"458 88 QCURVE",
"458 93 OFFCURVE",
"451 107 OFFCURVE",
"448 107 QCURVE",
"443 102 LINE SMOOTH",
"438 97 OFFCURVE",
"433 91 QCURVE",
"428 85 OFFCURVE",
"412 70 OFFCURVE",
"398 58 OFFCURVE",
"383 49 OFFCURVE",
"378 49 QCURVE SMOOTH",
"368 49 OFFCURVE",
"368 74 QCURVE SMOOTH",
"368 86 OFFCURVE",
"372 106 QCURVE SMOOTH",
"405 260 LINE SMOOTH",
"419 328 OFFCURVE",
"419 369 QCURVE SMOOTH",
"419 402 OFFCURVE",
"390 435 OFFCURVE",
"357 435 QCURVE SMOOTH",
"338 435 OFFCURVE",
"287 401 OFFCURVE",
"239 351 OFFCURVE",
"194 296 OFFCURVE",
"166 255 OFFCURVE",
"161 246 QCURVE",
"179 330 LINE SMOOTH",
"187 364 OFFCURVE",
"187 383 QCURVE SMOOTH"
);
}
);
width = 497;
}
);
leftKerningGroup = m;
note = n;
rightKerningGroup = h;
unicode = 006E;
},
{
glyphname = o;
lastChange = "2018-03-12 14:51:37 +0000";
layers = (
{
layerId = "14E94935-86A2-4797-A25C-C4BEBC72BEDE";
paths = (
{
closed = 1;
nodes = (
"290 235 OFFCURVE",
"272 150 OFFCURVE",
"240 76 OFFCURVE",
"189 27 OFFCURVE",
"159 27 QCURVE SMOOTH",
"132 27 OFFCURVE",
"102 98 OFFCURVE",
"102 158 QCURVE SMOOTH",
"102 197 OFFCURVE",
"121 281 OFFCURVE",
"155 355 OFFCURVE",
"207 403 OFFCURVE",
"237 403 QCURVE SMOOTH",
"264 403 OFFCURVE",
"290 335 OFFCURVE",
"290 273 QCURVE SMOOTH"
);
},
{
closed = 1;
nodes = (
"24 71 OFFCURVE",
"82 -5 OFFCURVE",
"140 -5 QCURVE SMOOTH",
"182 -5 OFFCURVE",
"266 48 OFFCURVE",
"329 130 OFFCURVE",
"368 237 OFFCURVE",
"368 288 QCURVE SMOOTH",
"368 356 OFFCURVE",
"309 435 OFFCURVE",
"251 435 QCURVE SMOOTH",
"209 435 OFFCURVE",
"126 381 OFFCURVE",
"63 297 OFFCURVE",
"24 190 OFFCURVE",
"24 138 QCURVE SMOOTH"
);
}
);
width = 414;
}
);
leftKerningGroup = e;
note = o;
rightKerningGroup = o;
unicode = 006F;
},
{
glyphname = p;
lastChange = "2018-03-12 14:51:37 +0000";
layers = (
{
layerId = "14E94935-86A2-4797-A25C-C4BEBC72BEDE";
paths = (
{
closed = 1;
nodes = (
"334 243 OFFCURVE",
"292 117 OFFCURVE",
"217 30 OFFCURVE",
"177 30 QCURVE SMOOTH",
"153 30 OFFCURVE",
"122 89 OFFCURVE",
"130 131 QCURVE SMOOTH",
"163 300 LINE",
"184 330 OFFCURVE",
"257 380 OFFCURVE",
"281 380 QCURVE SMOOTH",
"334 380 OFFCURVE",
"334 303 QCURVE SMOOTH"
);
},
{
closed = 1;
nodes = (
"176 371 OFFCURVE",
"189 430 QCURVE",
"175 437 OFFCURVE",
"157 437 QCURVE SMOOTH",
"133 437 OFFCURVE",
"119 433 QCURVE",
"93 292 LINE",
"34 229 LINE SMOOTH",
"31 226 OFFCURVE",
"31 222 QCURVE SMOOTH",
"31 210 OFFCURVE",
"37 202 QCURVE",
"85 250 LINE",
"6 -147 LINE SMOOTH",
"-2 -178 OFFCURVE",
"-11 -190 QCURVE",
"-24 -206 OFFCURVE",
"-51 -206 QCURVE",
"-55 -209 OFFCURVE",
"-55 -234 OFFCURVE",
"-52 -235 QCURVE",
"23 -226 OFFCURVE",
"97 -226 QCURVE SMOOTH",
"102 -226 OFFCURVE",
"125 -227 OFFCURVE",
"132 -227 QCURVE",
"135 -226 OFFCURVE",
"138 -200 OFFCURVE",
"135 -199 QCURVE",
"100 -199 OFFCURVE",
"88 -196 QCURVE",
"81 -194 OFFCURVE",
"74 -179 OFFCURVE",
"74 -173 QCURVE SMOOTH",
"74 -159 OFFCURVE",
"77 -145 QCURVE SMOOTH",
"110 8 LINE",
"118 -5 OFFCURVE",
"156 -5 QCURVE SMOOTH",
"215 -5 OFFCURVE",
"333 89 OFFCURVE",
"408 239 OFFCURVE",
"408 314 QCURVE SMOOTH",
"408 435 OFFCURVE",
"321 435 QCURVE SMOOTH",
"269 435 OFFCURVE",
"173 346 QCURVE"
);
}
);
width = 448;
}
);
leftKerningGroup = p;
note = p;
rightKerningGroup = p;
unicode = 0070;
},
{
glyphname = thorn;
lastChange = "2018-03-12 14:51:37 +0000";
layers = (
{
layerId = "14E94935-86A2-4797-A25C-C4BEBC72BEDE";
paths = (
{
closed = 1;
nodes = (
"235 683 OFFCURVE",
"229 686 QCURVE",
"152 658 OFFCURVE",
"97 653 QCURVE",
"94 650 OFFCURVE",
"91 635 OFFCURVE",
"93 632 QCURVE",
"154 632 OFFCURVE",
"154 613 QCURVE SMOOTH",
"154 608 OFFCURVE",
"151 591 OFFCURVE",
"146 566 OFFCURVE",
"145 560 QCURVE SMOOTH",
"94 292 LINE",
"35 229 LINE SMOOTH",
"32 226 OFFCURVE",
"32 222 QCURVE SMOOTH",
"32 210 OFFCURVE",
"38 202 QCURVE",
"86 250 LINE",
"7 -147 LINE SMOOTH",
"-1 -178 OFFCURVE",
"-10 -190 QCURVE",
"-23 -206 OFFCURVE",
"-50 -206 QCURVE",
"-54 -209 OFFCURVE",
"-54 -234 OFFCURVE",
"-51 -235 QCURVE",
"24 -226 OFFCURVE",
"98 -226 QCURVE SMOOTH",
"103 -226 OFFCURVE",
"126 -227 OFFCURVE",
"133 -227 QCURVE",
"136 -226 OFFCURVE",
"139 -200 OFFCURVE",
"136 -199 QCURVE",
"101 -199 OFFCURVE",
"89 -196 QCURVE",
"82 -194 OFFCURVE",
"75 -179 OFFCURVE",
"75 -173 QCURVE SMOOTH",
"75 -159 OFFCURVE",
"78 -145 QCURVE SMOOTH",
"111 8 LINE",
"119 -5 OFFCURVE",
"157 -5 QCURVE SMOOTH",
"216 -5 OFFCURVE",
"334 89 OFFCURVE",
"409 239 OFFCURVE",
"409 314 QCURVE SMOOTH",
"409 435 OFFCURVE",
"322 435 QCURVE SMOOTH",
"270 435 OFFCURVE",
"174 346 QCURVE",
"174 349 OFFCURVE",
"220 582 OFFCURVE",
"222 592 QCURVE",
"235 657 OFFCURVE",
"235 667 QCURVE SMOOTH"
);
},
{
closed = 1;
nodes = (
"335 243 OFFCURVE",
"293 117 OFFCURVE",
"218 30 OFFCURVE",
"178 30 QCURVE SMOOTH",
"154 30 OFFCURVE",
"123 89 OFFCURVE",
"131 131 QCURVE SMOOTH",
"164 300 LINE",
"185 330 OFFCURVE",
"258 380 OFFCURVE",
"282 380 QCURVE SMOOTH",
"335 380 OFFCURVE",
"335 303 QCURVE SMOOTH"
);
}
);
width = 449;
}
);
leftKerningGroup = thorn;
note = thorn;
rightKerningGroup = p;
unicode = 00FE;
},
{
glyphname = q;
lastChange = "2018-03-12 14:51:37 +0000";
layers = (
{
layerId = "14E94935-86A2-4797-A25C-C4BEBC72BEDE";
paths = (
{
closed = 1;
nodes = (
"304 -201 OFFCURVE",
"284 -196 OFFCURVE",
"276 -186 OFFCURVE",
"273 -178 OFFCURVE",
"273 -171 QCURVE SMOOTH",
"273 -166 OFFCURVE",
"275 -150 QCURVE",
"321 106 LINE",
"382 422 LINE",
"347 435 OFFCURVE",
"303 435 QCURVE SMOOTH",
"239 435 OFFCURVE",
"107 342 OFFCURVE",
"19 192 OFFCURVE",
"19 116 QCURVE SMOOTH",
"19 67 OFFCURVE",
"64 -5 OFFCURVE",
"107 -5 QCURVE SMOOTH",
"128 -5 OFFCURVE",
"175 26 OFFCURVE",
"216 73 OFFCURVE",
"245 114 OFFCURVE",
"254 130 QCURVE",
"198 -171 LINE SMOOTH",
"192 -202 OFFCURVE",
"130 -208 QCURVE",
"126 -208 OFFCURVE",
"125 -234 OFFCURVE",
"127 -235 QCURVE",
"201 -227 OFFCURVE",
"277 -227 QCURVE SMOOTH",
"284 -227 OFFCURVE",
"310 -228 OFFCURVE",
"317 -228 QCURVE",
"320 -227 OFFCURVE",
"322 -213 OFFCURVE",
"321 -201 OFFCURVE",
"319 -201 QCURVE SMOOTH"
);
},
{
closed = 1;
nodes = (
"275 228 OFFCURVE",
"228 124 OFFCURVE",
"169 53 OFFCURVE",
"144 53 QCURVE SMOOTH",
"118 53 OFFCURVE",
"93 106 OFFCURVE",
"93 150 QCURVE SMOOTH",
"93 207 OFFCURVE",
"143 321 OFFCURVE",
"222 395 OFFCURVE",
"261 395 QCURVE SMOOTH",
"280 395 OFFCURVE",
"300 360 OFFCURVE",
"296 341 QCURVE SMOOTH",
"284 276 LINE SMOOTH"
);
}
);
width = 426;
}
);
leftKerningGroup = q;
note = q;
rightKerningGroup = q;
unicode = 0071;
},
{
glyphname = r;
lastChange = "2018-03-12 14:51:37 +0000";
layers = (
{
layerId = "14E94935-86A2-4797-A25C-C4BEBC72BEDE";
paths = (
{
closed = 1;
nodes = (
"173 303 OFFCURVE",
"178 330 QCURVE SMOOTH",
"186 372 OFFCURVE",
"186 383 QCURVE SMOOTH",
"186 405 OFFCURVE",
"163 435 OFFCURVE",
"147 435 QCURVE SMOOTH",
"117 435 OFFCURVE",
"34 363 OFFCURVE",
"21 341 QCURVE",
"21 337 OFFCURVE",
"29 322 OFFCURVE",
"31 322 QCURVE",
"36 327 LINE SMOOTH",
"41 332 OFFCURVE",
"46 339 QCURVE",
"52 345 OFFCURVE",
"67 360 OFFCURVE",
"82 372 OFFCURVE",
"96 380 OFFCURVE",
"101 380 QCURVE SMOOTH",
"111 380 OFFCURVE",
"111 355 QCURVE SMOOTH",
"111 347 OFFCURVE",
"107 323 QCURVE SMOOTH",
"47 0 LINE",
"65 -3 OFFCURVE",
"84 -3 QCURVE SMOOTH",
"102 -3 OFFCURVE",
"118 0 QCURVE",
"140 122 LINE SMOOTH",
"149 172 OFFCURVE",
"203 288 OFFCURVE",
"262 365 OFFCURVE",
"279 365 QCURVE SMOOTH",
"293 365 OFFCURVE",
"299 357 QCURVE",
"313 342 OFFCURVE",
"329 342 QCURVE SMOOTH",
"346 342 OFFCURVE",
"365 366 OFFCURVE",
"365 386 QCURVE SMOOTH",
"365 403 OFFCURVE",
"356 414 QCURVE",
"337 435 OFFCURVE",
"307 435 QCURVE SMOOTH",
"285 435 OFFCURVE",
"225 367 OFFCURVE",
"177 284 OFFCURVE",
"161 246 QCURVE"
);
}
);
width = 356;
}
);
leftKerningGroup = m;
note = r;
rightKerningGroup = r;
unicode = 0072;
},
{
glyphname = s;
lastChange = "2018-03-12 14:51:37 +0000";
layers = (
{
layerId = "14E94935-86A2-4797-A25C-C4BEBC72BEDE";
paths = (
{
closed = 1;
nodes = (
"60 292 OFFCURVE",
"71 255 OFFCURVE",
"97 217 OFFCURVE",
"114 197 OFFCURVE",
"132 176 QCURVE",
"133 175 OFFCURVE",
"146 160 OFFCURVE",
"149 157 OFFCURVE",
"160 143 OFFCURVE",
"164 138 OFFCURVE",
"172 126 OFFCURVE",
"175 120 OFFCURVE",
"181 108 OFFCURVE",
"182 100 OFFCURVE",
"184 89 OFFCURVE",
"184 84 QCURVE SMOOTH",
"184 63 OFFCURVE",
"162 26 OFFCURVE",
"135 26 QCURVE SMOOTH",
"104 26 OFFCURVE",
"82 55 QCURVE SMOOTH",
"79 60 OFFCURVE",
"66 81 OFFCURVE",
"59 91 OFFCURVE",
"46 100 OFFCURVE",
"39 100 QCURVE SMOOTH",
"24 100 OFFCURVE",
"2 75 OFFCURVE",
"2 54 QCURVE SMOOTH",
"2 41 OFFCURVE",
"12 24 QCURVE",
"48 -6 OFFCURVE",
"100 -6 QCURVE SMOOTH",
"164 -6 OFFCURVE",
"245 62 OFFCURVE",
"245 117 QCURVE SMOOTH",
"245 151 OFFCURVE",
"213 208 OFFCURVE",
"184 242 QCURVE SMOOTH",
"181 246 OFFCURVE",
"151 278 OFFCURVE",
"142 290 OFFCURVE",
"124 316 OFFCURVE",
"118 337 OFFCURVE",
"118 348 QCURVE SMOOTH",
"118 368 OFFCURVE",
"144 404 OFFCURVE",
"167 404 QCURVE SMOOTH",
"173 404 OFFCURVE",
"182 403 OFFCURVE",
"188 401 OFFCURVE",
"196 396 OFFCURVE",
"199 394 OFFCURVE",
"205 386 OFFCURVE",
"207 384 OFFCURVE",
"214 374 OFFCURVE",
"214 373 QCURVE",
"240 338 OFFCURVE",
"261 338 QCURVE SMOOTH",
"276 338 OFFCURVE",
"295 362 OFFCURVE",
"295 379 QCURVE SMOOTH",
"295 385 OFFCURVE",
"289 406 OFFCURVE",
"285 411 QCURVE",
"254 438 OFFCURVE",
"199 438 QCURVE SMOOTH",
"140 438 OFFCURVE",
"60 358 OFFCURVE",
"60 312 QCURVE SMOOTH"
);
}
);
width = 322;
}
);
leftKerningGroup = s;
note = s;
rightKerningGroup = s;
unicode = 0073;
},
{
glyphname = t;
lastChange = "2018-03-12 14:51:37 +0000";
layers = (
{
layerId = "14E94935-86A2-4797-A25C-C4BEBC72BEDE";
paths = (
{
closed = 1;
nodes = (
"71 413 OFFCURVE",
"41 388 OFFCURVE",
"41 379 QCURVE SMOOTH",
"41 376 OFFCURVE",
"43 376 QCURVE SMOOTH",
"110 376 LINE",
"56 99 LINE SMOOTH",
"49 62 OFFCURVE",
"49 46 QCURVE SMOOTH",
"49 23 OFFCURVE",
"68 -6 OFFCURVE",
"83 -6 QCURVE SMOOTH",
"114 -6 OFFCURVE",
"202 67 OFFCURVE",
"214 88 QCURVE",
"214 93 OFFCURVE",
"207 107 OFFCURVE",
"204 107 QCURVE",
"199 102 LINE SMOOTH",
"194 97 OFFCURVE",
"189 91 QCURVE",
"184 85 OFFCURVE",
"168 70 OFFCURVE",
"154 58 OFFCURVE",
"139 49 OFFCURVE",
"134 49 QCURVE SMOOTH",
"124 49 OFFCURVE",
"124 74 QCURVE SMOOTH",
"124 86 OFFCURVE",
"128 106 QCURVE SMOOTH",
"181 376 LINE",
"259 376 LINE",
"268 391 OFFCURVE",
"268 401 QCURVE SMOOTH",
"268 413 OFFCURVE",
"263 413 QCURVE SMOOTH",
"188 413 LINE",
"210 532 LINE",
"202 538 OFFCURVE",
"193 538 QCURVE SMOOTH",
"188 538 OFFCURVE",
"140 487 OFFCURVE",
"128 472 QCURVE",
"117 413 LINE",
"87 413 LINE SMOOTH"
);
}
);
width = 278;
}
);
leftKerningGroup = t;
note = t;
rightKerningGroup = t;
unicode = 0074;
},
{
glyphname = u;
lastChange = "2018-03-12 14:51:37 +0000";
layers = (
{
layerId = "14E94935-86A2-4797-A25C-C4BEBC72BEDE";
paths = (
{
closed = 1;
nodes = (
"285 23 OFFCURVE",
"304 -6 OFFCURVE",
"319 -6 QCURVE SMOOTH",
"350 -6 OFFCURVE",
"438 67 OFFCURVE",
"450 88 QCURVE",
"450 93 OFFCURVE",
"443 107 OFFCURVE",
"440 107 QCURVE",
"435 102 LINE SMOOTH",
"430 97 OFFCURVE",
"425 91 QCURVE",
"420 85 OFFCURVE",
"404 70 OFFCURVE",
"390 58 OFFCURVE",
"375 49 OFFCURVE",
"370 49 QCURVE SMOOTH",
"360 49 OFFCURVE",
"360 74 QCURVE SMOOTH",
"360 86 OFFCURVE",
"364 106 QCURVE SMOOTH",
"426 429 LINE",
"410 433 OFFCURVE",
"387 433 QCURVE SMOOTH",
"370 433 OFFCURVE",
"356 429 QCURVE",
"352 406 OFFCURVE",
"338 337 OFFCURVE",
"334 319 QCURVE SMOOTH",
"326 275 OFFCURVE",
"277 180 OFFCURVE",
"221 112 OFFCURVE",
"169 68 OFFCURVE",
"155 68 QCURVE SMOOTH",
"144 68 OFFCURVE",
"136 90 OFFCURVE",
"136 111 QCURVE SMOOTH",
"136 134 OFFCURVE",
"143 165 QCURVE SMOOTH",
"178 330 LINE SMOOTH",
"185 367 OFFCURVE",
"185 383 QCURVE SMOOTH",
"185 405 OFFCURVE",
"162 435 OFFCURVE",
"146 435 QCURVE SMOOTH",
"116 435 OFFCURVE",
"33 363 OFFCURVE",
"20 341 QCURVE",
"20 337 OFFCURVE",
"28 322 OFFCURVE",
"30 322 QCURVE",
"35 327 LINE SMOOTH",
"40 332 OFFCURVE",
"45 339 QCURVE",
"51 345 OFFCURVE",
"66 360 OFFCURVE",
"81 372 OFFCURVE",
"95 380 OFFCURVE",
"100 380 QCURVE SMOOTH",
"110 380 OFFCURVE",
"110 355 QCURVE SMOOTH",
"110 347 OFFCURVE",
"106 323 QCURVE",
"73 169 LINE SMOOTH",
"59 102 OFFCURVE",
"59 66 QCURVE SMOOTH",
"59 -6 OFFCURVE",
"109 -6 QCURVE SMOOTH",
"140 -6 OFFCURVE",
"228 68 OFFCURVE",
"296 156 OFFCURVE",
"310 186 QCURVE",
"308 174 OFFCURVE",
"301 141 OFFCURVE",
"295 114 OFFCURVE",
"292 99 QCURVE SMOOTH",
"285 62 OFFCURVE",
"285 46 QCURVE SMOOTH"
);
}
);
width = 491;
}
);
leftKerningGroup = u;
note = u;
rightKerningGroup = u;
unicode = 0075;
},
{
glyphname = v;
lastChange = "2018-03-12 14:51:37 +0000";
layers = (
{
layerId = "14E94935-86A2-4797-A25C-C4BEBC72BEDE";
paths = (
{
closed = 1;
nodes = (
"182 328 LINE",
"182 381 LINE SMOOTH",
"182 404 OFFCURVE",
"159 435 OFFCURVE",
"143 435 QCURVE SMOOTH",
"113 435 OFFCURVE",
"30 363 OFFCURVE",
"17 341 QCURVE",
"17 337 OFFCURVE",
"25 322 OFFCURVE",
"27 322 QCURVE",
"32 327 LINE SMOOTH",
"37 332 OFFCURVE",
"42 339 QCURVE",
"48 345 OFFCURVE",
"63 360 OFFCURVE",
"78 372 OFFCURVE",
"92 380 OFFCURVE",
"97 380 QCURVE SMOOTH",
"107 380 OFFCURVE",
"107 355 QCURVE SMOOTH",
"107 148 LINE SMOOTH",
"107 3 OFFCURVE",
"115 -6 QCURVE",
"141 -6 OFFCURVE",
"242 73 OFFCURVE",
"341 182 OFFCURVE",
"415 311 OFFCURVE",
"415 355 QCURVE SMOOTH",
"415 392 OFFCURVE",
"388 435 OFFCURVE",
"360 435 QCURVE SMOOTH",
"344 435 OFFCURVE",
"319 411 OFFCURVE",
"313 396 QCURVE",
"339 370 OFFCURVE",
"339 333 QCURVE SMOOTH",
"339 312 OFFCURVE",
"327 251 OFFCURVE",
"314 226 QCURVE SMOOTH",
"289 177 OFFCURVE",
"237 109 OFFCURVE",
"186 65 QCURVE",
"182 93 OFFCURVE",
"182 176 QCURVE SMOOTH"
);
}
);
width = 439;
}
);
leftKerningGroup = v;
note = v;
rightKerningGroup = v;
unicode = 0076;
},
{
glyphname = w;
lastChange = "2018-03-12 14:51:37 +0000";
layers = (
{
layerId = "14E94935-86A2-4797-A25C-C4BEBC72BEDE";
paths = (
{
closed = 1;
nodes = (
"316 286 OFFCURVE",
"299 255 QCURVE SMOOTH",
"237 144 OFFCURVE",
"186 90 QCURVE",
"182 118 OFFCURVE",
"182 176 QCURVE SMOOTH",
"182 328 LINE",
"182 381 LINE SMOOTH",
"182 404 OFFCURVE",
"159 435 OFFCURVE",
"143 435 QCURVE SMOOTH",
"113 435 OFFCURVE",
"30 363 OFFCURVE",
"17 341 QCURVE",
"17 337 OFFCURVE",
"25 322 OFFCURVE",
"27 322 QCURVE",
"32 327 LINE SMOOTH",
"37 332 OFFCURVE",
"42 339 QCURVE",
"48 345 OFFCURVE",
"63 360 OFFCURVE",
"78 372 OFFCURVE",
"92 380 OFFCURVE",
"97 380 QCURVE SMOOTH",
"107 380 OFFCURVE",
"107 355 QCURVE SMOOTH",
"107 148 LINE SMOOTH",
"107 3 OFFCURVE",
"115 -6 QCURVE",
"164 -6 OFFCURVE",
"317 214 QCURVE",
"319 150 LINE SMOOTH",
"320 122 OFFCURVE",
"335 -1 OFFCURVE",
"339 -6 QCURVE",
"364 -6 OFFCURVE",
"455 72 OFFCURVE",
"540 182 OFFCURVE",
"603 310 OFFCURVE",
"603 355 QCURVE SMOOTH",
"603 392 OFFCURVE",
"576 435 OFFCURVE",
"548 435 QCURVE SMOOTH",
"532 435 OFFCURVE",
"507 411 OFFCURVE",
"501 396 QCURVE",
"527 370 OFFCURVE",
"527 333 QCURVE SMOOTH",
"527 267 OFFCURVE",
"513 229 QCURVE SMOOTH",
"496 182 OFFCURVE",
"446 111 OFFCURVE",
"406 76 QCURVE",
"395 94 OFFCURVE",
"391 183 QCURVE SMOOTH",
"389 240 OFFCURVE",
"385 375 QCURVE",
"376 373 OFFCURVE",
"348 355 OFFCURVE",
"342 347 QCURVE"
);
}
);
width = 629;
}
);
leftKerningGroup = v;
note = w;
rightKerningGroup = w;
unicode = 0077;
},
{
glyphname = x;
lastChange = "2018-03-12 14:51:37 +0000";
layers = (
{
layerId = "14E94935-86A2-4797-A25C-C4BEBC72BEDE";
paths = (
{
closed = 1;
nodes = (
"287 289 OFFCURVE",
"323 351 QCURVE SMOOTH",
"337 375 OFFCURVE",
"353 374 QCURVE SMOOTH",
"364 373 OFFCURVE",
"389 345 OFFCURVE",
"399 345 QCURVE SMOOTH",
"416 345 OFFCURVE",
"436 371 OFFCURVE",
"436 389 QCURVE SMOOTH",
"436 409 OFFCURVE",
"425 423 QCURVE",
"406 435 OFFCURVE",
"378 435 QCURVE SMOOTH",
"365 435 OFFCURVE",
"339 421 OFFCURVE",
"321 403 OFFCURVE",
"297 363 OFFCURVE",
"282 334 OFFCURVE",
"268 305 QCURVE SMOOTH",
"260 289 OFFCURVE",
"256 281 QCURVE",
"242 349 LINE SMOOTH",
"234 389 OFFCURVE",
"197 435 OFFCURVE",
"173 435 QCURVE SMOOTH",
"145 435 OFFCURVE",
"62 362 OFFCURVE",
"51 343 QCURVE",
"51 339 OFFCURVE",
"59 324 OFFCURVE",
"61 324 QCURVE",
"72 339 OFFCURVE",
"124 380 OFFCURVE",
"137 380 QCURVE SMOOTH",
"161 380 OFFCURVE",
"169 342 QCURVE SMOOTH",
"197 205 LINE",
"164 139 OFFCURVE",
"128 79 QCURVE SMOOTH",
"114 55 OFFCURVE",
"98 56 QCURVE SMOOTH",
"88 57 OFFCURVE",
"62 85 OFFCURVE",
"52 85 QCURVE SMOOTH",
"35 85 OFFCURVE",
"15 60 OFFCURVE",
"15 41 QCURVE SMOOTH",
"15 22 OFFCURVE",
"26 7 QCURVE",
"45 -5 OFFCURVE",
"73 -5 QCURVE SMOOTH",
"85 -5 OFFCURVE",
"105 3 OFFCURVE",
"125 23 OFFCURVE",
"140 41 OFFCURVE",
"160 78 OFFCURVE",
"173 104 OFFCURVE",
"197 153 OFFCURVE",
"205 168 QCURVE",
"222 82 LINE SMOOTH",
"230 43 OFFCURVE",
"268 -4 OFFCURVE",
"291 -4 QCURVE SMOOTH",
"320 -4 OFFCURVE",
"403 70 OFFCURVE",
"413 88 QCURVE",
"413 92 OFFCURVE",
"405 107 OFFCURVE",
"403 107 QCURVE",
"393 94 OFFCURVE",
"342 52 OFFCURVE",
"330 52 QCURVE SMOOTH",
"303 52 OFFCURVE",
"295 89 QCURVE SMOOTH",
"264 244 LINE"
);
}
);
width = 482;
}
);
leftKerningGroup = x;
note = x;
rightKerningGroup = x;
unicode = 0078;
},
{
glyphname = y;
lastChange = "2018-03-12 14:51:37 +0000";
layers = (
{
layerId = "14E94935-86A2-4797-A25C-C4BEBC72BEDE";
paths = (
{
closed = 1;
nodes = (
"6 337 OFFCURVE",
"14 322 OFFCURVE",
"16 322 QCURVE",
"21 327 LINE SMOOTH",
"26 332 OFFCURVE",
"31 339 QCURVE",
"37 345 OFFCURVE",
"52 360 OFFCURVE",
"67 372 OFFCURVE",
"81 380 OFFCURVE",
"86 380 QCURVE SMOOTH",
"104 380 OFFCURVE",
"129 315 OFFCURVE",
"141 211 OFFCURVE",
"146 111 OFFCURVE",
"146 62 QCURVE SMOOTH",
"146 59 OFFCURVE",
"147 11 OFFCURVE",
"146 -10 OFFCURVE",
"143 -48 OFFCURVE",
"135 -75 OFFCURVE",
"128 -84 QCURVE SMOOTH",
"71 -167 OFFCURVE",
"-8 -167 QCURVE SMOOTH",
"-25 -167 OFFCURVE",
"-77 -155 OFFCURVE",
"-88 -148 QCURVE",
"-99 -154 OFFCURVE",
"-111 -179 OFFCURVE",
"-111 -192 QCURVE SMOOTH",
"-111 -209 OFFCURVE",
"-78 -233 OFFCURVE",
"-51 -233 QCURVE SMOOTH",
"-18 -233 OFFCURVE",
"77 -178 OFFCURVE",
"178 -87 OFFCURVE",
"278 35 OFFCURVE",
"356 163 OFFCURVE",
"405 300 OFFCURVE",
"405 356 QCURVE SMOOTH",
"405 435 OFFCURVE",
"361 435 QCURVE SMOOTH",
"344 435 OFFCURVE",
"317 412 OFFCURVE",
"311 392 QCURVE",
"319 377 OFFCURVE",
"327 359 OFFCURVE",
"336 313 OFFCURVE",
"336 285 QCURVE SMOOTH",
"336 247 OFFCURVE",
"311 162 OFFCURVE",
"272 88 OFFCURVE",
"238 35 OFFCURVE",
"221 15 QCURVE",
"221 32 OFFCURVE",
"221 70 OFFCURVE",
"218 142 OFFCURVE",
"213 208 OFFCURVE",
"205 287 OFFCURVE",
"191 351 OFFCURVE",
"174 405 OFFCURVE",
"148 435 OFFCURVE",
"132 435 QCURVE SMOOTH",
"102 435 OFFCURVE",
"19 363 OFFCURVE",
"6 341 QCURVE"
);
}
);
width = 447;
}
);
leftKerningGroup = f;
note = y;
rightKerningGroup = y;
unicode = 0079;
},
{
glyphname = z;
lastChange = "2018-03-12 14:51:37 +0000";
layers = (
{
layerId = "14E94935-86A2-4797-A25C-C4BEBC72BEDE";
paths = (
{
closed = 1;
nodes = (
"45 298 OFFCURVE",
"55 298 QCURVE",
"56 299 OFFCURVE",
"70 325 OFFCURVE",
"83 347 OFFCURVE",
"105 366 OFFCURVE",
"114 366 QCURVE SMOOTH",
"132 366 OFFCURVE",
"168 349 QCURVE",
"209 332 OFFCURVE",
"229 332 QCURVE SMOOTH",
"261 332 OFFCURVE",
"292 353 QCURVE",
"292 352 OFFCURVE",
"140 191 OFFCURVE",
"-10 26 OFFCURVE",
"-10 19 QCURVE",
"-8 3 OFFCURVE",
"1 0 QCURVE",
"8 3 OFFCURVE",
"32 21 OFFCURVE",
"54 32 OFFCURVE",
"67 32 QCURVE SMOOTH",
"112 32 OFFCURVE",
"138 22 QCURVE SMOOTH",
"195 0 OFFCURVE",
"218 0 QCURVE SMOOTH",
"235 0 OFFCURVE",
"268 26 OFFCURVE",
"297 68 OFFCURVE",
"315 102 OFFCURVE",
"323 120 QCURVE",
"321 136 OFFCURVE",
"311 136 QCURVE",
"311 135 OFFCURVE",
"296 109 OFFCURVE",
"283 89 OFFCURVE",
"262 69 OFFCURVE",
"253 69 QCURVE SMOOTH",
"249 69 OFFCURVE",
"239 71 OFFCURVE",
"226 75 OFFCURVE",
"220 78 OFFCURVE",
"202 85 OFFCURVE",
"200 86 QCURVE SMOOTH",
"164 103 OFFCURVE",
"138 103 QCURVE SMOOTH",
"114 103 OFFCURVE",
"92 92 QCURVE",
"93 93 OFFCURVE",
"184 192 OFFCURVE",
"290 308 OFFCURVE",
"379 410 OFFCURVE",
"379 415 QCURVE SMOOTH",
"379 430 OFFCURVE",
"368 435 QCURVE",
"368 435 OFFCURVE",
"300 404 OFFCURVE",
"278 404 QCURVE SMOOTH",
"253 404 OFFCURVE",
"222 415 QCURVE SMOOTH",
"218 417 OFFCURVE",
"198 425 OFFCURVE",
"187 428 OFFCURVE",
"169 433 OFFCURVE",
"154 435 OFFCURVE",
"145 435 QCURVE SMOOTH",
"129 435 OFFCURVE",
"93 404 OFFCURVE",
"65 360 OFFCURVE",
"46 323 OFFCURVE",
"43 314 QCURVE"
);
}
);
width = 387;
}
);
leftKerningGroup = z;
note = z;
rightKerningGroup = z;
unicode = 007A;
},
{
glyphname = Aogonek;
lastChange = "2018-03-12 14:51:37 +0000";
layers = (
{
layerId = "14E94935-86A2-4797-A25C-C4BEBC72BEDE";
paths = (
{
closed = 1;
nodes = (
"391 660 LINE",
"389 663 OFFCURVE",
"386 663 QCURVE SMOOTH",
"379 663 OFFCURVE",
"352 645 OFFCURVE",
"346 634 QCURVE SMOOTH",
"70 139 LINE SMOOTH",
"32 71 OFFCURVE",
"8 45 QCURVE SMOOTH",
"-1 37 OFFCURVE",
"-38 26 OFFCURVE",
"-50 26 QCURVE",
"-53 21 OFFCURVE",
"-57 -1 OFFCURVE",
"-56 -3 QCURVE",
"-40 -3 OFFCURVE",
"-5 1 OFFCURVE",
"24 2 OFFCURVE",
"43 2 QCURVE SMOOTH",
"61 2 OFFCURVE",
"88 1 OFFCURVE",
"118 -3 OFFCURVE",
"132 -3 QCURVE",
"134 2 OFFCURVE",
"137 24 OFFCURVE",
"136 26 QCURVE",
"131 26 OFFCURVE",
"115 28 OFFCURVE",
"91 32 OFFCURVE",
"74 43 OFFCURVE",
"74 50 QCURVE SMOOTH",
"74 70 OFFCURVE",
"103 125 QCURVE SMOOTH",
"124 165 OFFCURVE",
"174 256 QCURVE",
"373 256 LINE",
"395 106 LINE SMOOTH",
"398 91 OFFCURVE",
"398 53 QCURVE SMOOTH",
"398 40 OFFCURVE",
"391 19 OFFCURVE",
"385 12 OFFCURVE",
"364 -8 OFFCURVE",
"361 -11 QCURVE SMOOTH",
"331 -41 OFFCURVE",
"291 -86 OFFCURVE",
"253 -153 OFFCURVE",
"253 -178 QCURVE SMOOTH",
"253 -199 OFFCURVE",
"282 -230 OFFCURVE",
"304 -230 QCURVE SMOOTH",
"355 -230 OFFCURVE",
"415 -163 QCURVE",
"418 -160 OFFCURVE",
"426 -134 OFFCURVE",
"421 -133 QCURVE",
"419 -133 OFFCURVE",
"397 -152 OFFCURVE",
"358 -171 OFFCURVE",
"338 -171 QCURVE SMOOTH",
"307 -171 OFFCURVE",
"307 -139 QCURVE SMOOTH",
"307 -125 OFFCURVE",
"335 -80 OFFCURVE",
"382 -34 OFFCURVE",
"454 0 OFFCURVE",
"493 0 QCURVE SMOOTH",
"503 0 OFFCURVE",
"513 0 OFFCURVE",
"517 -1 OFFCURVE",
"519 -2 OFFCURVE",
"531 -3 OFFCURVE",
"541 -3 QCURVE",
"543 0 OFFCURVE",
"546 20 OFFCURVE",
"544 26 QCURVE",
"533 26 OFFCURVE",
"491 45 OFFCURVE",
"488 60 QCURVE SMOOTH",
"481 92 OFFCURVE",
"477 126 QCURVE SMOOTH"
);
},
{
closed = 1;
nodes = (
"368 289 LINE",
"192 289 LINE",
"329 535 LINE"
);
}
);
width = 586;
}
);
leftKerningGroup = A;
note = Aogonek;
rightKerningGroup = A;
unicode = 0104;
},
{
glyphname = AE;
lastChange = "2018-03-12 14:51:37 +0000";
layers = (
{
layerId = "14E94935-86A2-4797-A25C-C4BEBC72BEDE";
paths = (
{
closed = 1;
nodes = (
"369 95 OFFCURVE",
"360 63 OFFCURVE",
"349 50 QCURVE SMOOTH",
"342 42 OFFCURVE",
"290 31 OFFCURVE",
"276 31 QCURVE",
"273 30 OFFCURVE",
"269 1 OFFCURVE",
"270 -3 QCURVE",
"394 0 LINE SMOOTH",
"458 0 OFFCURVE",
"662 -4 OFFCURVE",
"710 -4 QCURVE",
"715 16 OFFCURVE",
"737 68 OFFCURVE",
"775 151 OFFCURVE",
"780 162 QCURVE",
"776 168 OFFCURVE",
"757 168 QCURVE SMOOTH",
"746 168 OFFCURVE",
"743 162 QCURVE",
"715 90 OFFCURVE",
"673 61 QCURVE SMOOTH",
"629 30 OFFCURVE",
"554 30 QCURVE SMOOTH",
"510 30 LINE SMOOTH",
"477 30 OFFCURVE",
"453 33 OFFCURVE",
"445 40 QCURVE SMOOTH",
"442 44 OFFCURVE",
"446 109 QCURVE SMOOTH",
"465 299 LINE SMOOTH",
"466 308 OFFCURVE",
"532 308 QCURVE SMOOTH",
"619 308 OFFCURVE",
"630 300 QCURVE",
"636 295 OFFCURVE",
"644 270 OFFCURVE",
"649 230 QCURVE",
"651 222 OFFCURVE",
"662 222 QCURVE SMOOTH",
"674 222 OFFCURVE",
"678 226 QCURVE",
"698 415 LINE",
"695 420 OFFCURVE",
"684 420 QCURVE SMOOTH",
"672 420 OFFCURVE",
"669 413 QCURVE",
"668 410 OFFCURVE",
"666 405 QCURVE SMOOTH",
"660 388 OFFCURVE",
"654 371 OFFCURVE",
"642 354 OFFCURVE",
"631 348 OFFCURVE",
"608 342 OFFCURVE",
"581 341 OFFCURVE",
"558 341 QCURVE SMOOTH",
"509 341 LINE SMOOTH",
"501 341 OFFCURVE",
"488 342 OFFCURVE",
"476 343 OFFCURVE",
"470 345 OFFCURVE",
"470 347 QCURVE",
"491 547 LINE SMOOTH",
"497 601 OFFCURVE",
"505 619 QCURVE SMOOTH",
"510 630 OFFCURVE",
"570 630 QCURVE SMOOTH",
"650 630 LINE SMOOTH",
"690 630 OFFCURVE",
"738 587 OFFCURVE",
"746 530 QCURVE",
"746 523 OFFCURVE",
"758 523 QCURVE SMOOTH",
"771 523 OFFCURVE",
"776 528 QCURVE",
"775 543 OFFCURVE",
"769 597 OFFCURVE",
"765 642 OFFCURVE",
"764 664 QCURVE",
"712 664 OFFCURVE",
"510 657 OFFCURVE",
"468 657 QCURVE SMOOTH",
"370 656 LINE",
"368 651 OFFCURVE",
"367 628 OFFCURVE",
"370 625 QCURVE",
"385 625 OFFCURVE",
"400 611 OFFCURVE",
"400 601 QCURVE SMOOTH",
"400 596 OFFCURVE",
"395 586 QCURVE",
"87 139 LINE SMOOTH",
"48 80 OFFCURVE",
"8 45 QCURVE SMOOTH",
"-2 37 OFFCURVE",
"-45 24 OFFCURVE",
"-56 24 QCURVE SMOOTH",
"-59 24 OFFCURVE",
"-60 -2 OFFCURVE",
"-59 -3 QCURVE",
"-43 -2 OFFCURVE",
"-10 1 OFFCURVE",
"18 2 OFFCURVE",
"37 2 QCURVE SMOOTH",
"55 2 OFFCURVE",
"84 1 OFFCURVE",
"118 -3 OFFCURVE",
"131 -3 QCURVE",
"133 -1 OFFCURVE",
"135 13 OFFCURVE",
"135 23 OFFCURVE",
"134 24 QCURVE",
"122 24 OFFCURVE",
"77 40 OFFCURVE",
"77 50 QCURVE SMOOTH",
"77 67 OFFCURVE",
"122 131 QCURVE SMOOTH",
"243 307 LINE",
"388 307 LINE",
"371 124 LINE SMOOTH"
);
},
{
closed = 1;
nodes = (
"411 550 LINE",
"391 341 LINE",
"267 341 LINE"
);
}
);
width = 785;
}
);
leftKerningGroup = AE;
note = AE;
rightKerningGroup = E;
unicode = 00C6;
},
{
glyphname = Eogonek;
lastChange = "2018-03-12 14:51:37 +0000";
layers = (
{
layerId = "14E94935-86A2-4797-A25C-C4BEBC72BEDE";
paths = (
{
closed = 1;
nodes = (
"501 168 OFFCURVE",
"483 168 QCURVE SMOOTH",
"471 168 OFFCURVE",
"468 162 QCURVE SMOOTH",
"435 91 OFFCURVE",
"390 61 QCURVE SMOOTH",
"343 30 OFFCURVE",
"266 30 QCURVE SMOOTH",
"222 30 LINE SMOOTH",
"189 30 OFFCURVE",
"165 33 OFFCURVE",
"158 40 QCURVE SMOOTH",
"153 46 OFFCURVE",
"165 109 QCURVE SMOOTH",
"204 307 LINE SMOOTH",
"206 316 OFFCURVE",
"273 316 QCURVE SMOOTH",
"360 316 OFFCURVE",
"370 308 QCURVE",
"376 303 OFFCURVE",
"381 279 OFFCURVE",
"383 238 QCURVE",
"385 230 OFFCURVE",
"396 230 QCURVE SMOOTH",
"408 230 OFFCURVE",
"412 234 QCURVE",
"448 423 LINE",
"445 428 OFFCURVE",
"434 428 QCURVE SMOOTH",
"421 428 OFFCURVE",
"418 421 QCURVE SMOOTH",
"417 418 OFFCURVE",
"414 412 QCURVE SMOOTH",
"408 397 OFFCURVE",
"399 378 OFFCURVE",
"387 363 OFFCURVE",
"375 355 OFFCURVE",
"351 350 OFFCURVE",
"325 349 OFFCURVE",
"302 349 QCURVE SMOOTH",
"253 349 LINE SMOOTH",
"245 349 OFFCURVE",
"232 350 OFFCURVE",
"220 351 OFFCURVE",
"214 353 OFFCURVE",
"214 355 QCURVE",
"251 547 LINE SMOOTH",
"261 598 OFFCURVE",
"271 619 QCURVE SMOOTH",
"277 630 OFFCURVE",
"337 630 QCURVE SMOOTH",
"417 630 LINE SMOOTH",
"457 630 OFFCURVE",
"502 587 OFFCURVE",
"505 530 QCURVE",
"505 523 OFFCURVE",
"516 523 QCURVE SMOOTH",
"529 523 OFFCURVE",
"534 528 QCURVE",
"534 537 OFFCURVE",
"531 652 OFFCURVE",
"533 664 QCURVE",
"481 664 OFFCURVE",
"275 657 OFFCURVE",
"233 657 QCURVE SMOOTH",
"219 657 OFFCURVE",
"124 662 QCURVE",
"119 659 OFFCURVE",
"115 637 OFFCURVE",
"118 633 QCURVE",
"132 633 OFFCURVE",
"178 624 OFFCURVE",
"179 617 QCURVE",
"181 599 OFFCURVE",
"170 543 QCURVE SMOOTH",
"87 116 LINE SMOOTH",
"75 56 OFFCURVE",
"68 42 QCURVE",
"65 35 OFFCURVE",
"14 26 OFFCURVE",
"-1 26 QCURVE",
"-5 22 OFFCURVE",
"-9 1 OFFCURVE",
"-6 -3 QCURVE",
"12 -3 OFFCURVE",
"83 0 OFFCURVE",
"106 0 QCURVE SMOOTH",
"131 0 OFFCURVE",
"317 -3 QCURVE",
"275 -23 OFFCURVE",
"196 -140 OFFCURVE",
"196 -180 QCURVE SMOOTH",
"196 -201 OFFCURVE",
"225 -230 OFFCURVE",
"247 -230 QCURVE SMOOTH",
"298 -230 OFFCURVE",
"358 -163 QCURVE",
"361 -160 OFFCURVE",
"369 -134 OFFCURVE",
"364 -133 QCURVE",
"362 -133 OFFCURVE",
"340 -152 OFFCURVE",
"301 -171 OFFCURVE",
"281 -171 QCURVE SMOOTH",
"250 -171 OFFCURVE",
"250 -139 QCURVE SMOOTH",
"250 -120 OFFCURVE",
"277 -74 OFFCURVE",
"322 -32 OFFCURVE",
"388 -4 OFFCURVE",
"422 -4 QCURVE",
"429 16 OFFCURVE",
"455 69 OFFCURVE",
"499 150 OFFCURVE",
"505 162 QCURVE"
);
}
);
width = 554;
}
);
leftKerningGroup = B;
note = Eogonek;
rightKerningGroup = E;
unicode = 0118;
},
{
glyphname = Iogonek;
lastChange = "2018-03-12 14:51:37 +0000";
layers = (
{
layerId = "14E94935-86A2-4797-A25C-C4BEBC72BEDE";
paths = (
{
closed = 1;
nodes = (
"155 57 OFFCURVE",
"167 116 QCURVE SMOOTH",
"250 543 LINE SMOOTH",
"262 603 OFFCURVE",
"269 617 QCURVE",
"272 624 OFFCURVE",
"322 633 OFFCURVE",
"336 633 QCURVE",
"340 637 OFFCURVE",
"345 658 OFFCURVE",
"342 662 QCURVE",
"245 657 OFFCURVE",
"232 657 QCURVE SMOOTH",
"218 657 OFFCURVE",
"123 662 QCURVE",
"119 659 OFFCURVE",
"115 637 OFFCURVE",
"117 633 QCURVE",
"131 633 OFFCURVE",
"178 624 OFFCURVE",
"178 617 QCURVE",
"180 599 OFFCURVE",
"169 543 QCURVE SMOOTH",
"86 116 LINE SMOOTH",
"74 56 OFFCURVE",
"67 42 QCURVE",
"64 35 OFFCURVE",
"13 26 OFFCURVE",
"-1 26 QCURVE",
"-5 22 OFFCURVE",
"-9 1 OFFCURVE",
"-6 -3 QCURVE",
"92 2 OFFCURVE",
"108 2 QCURVE",
"65 -19 OFFCURVE",
"-14 -134 OFFCURVE",
"-14 -180 QCURVE SMOOTH",
"-14 -201 OFFCURVE",
"14 -230 OFFCURVE",
"36 -230 QCURVE SMOOTH",
"87 -230 OFFCURVE",
"147 -163 QCURVE",
"151 -160 OFFCURVE",
"158 -134 OFFCURVE",
"153 -133 QCURVE",
"152 -133 OFFCURVE",
"129 -152 OFFCURVE",
"91 -171 OFFCURVE",
"70 -171 QCURVE SMOOTH",
"39 -171 OFFCURVE",
"39 -139 QCURVE SMOOTH",
"39 -106 OFFCURVE",
"114 -25 OFFCURVE",
"165 -10 QCURVE SMOOTH",
"191 -3 OFFCURVE",
"212 -3 QCURVE",
"214 1 OFFCURVE",
"220 24 OFFCURVE",
"218 26 QCURVE",
"204 26 OFFCURVE",
"158 35 OFFCURVE",
"157 42 QCURVE"
);
}
);
width = 313;
}
);
leftKerningGroup = B;
note = Iogonek;
rightKerningGroup = H;
unicode = 012E;
},
{
glyphname = Eng;
lastChange = "2018-03-12 14:51:37 +0000";
layers = (
{
layerId = "14E94935-86A2-4797-A25C-C4BEBC72BEDE";
paths = (
{
closed = 1;
nodes = (
"317 -220 LINE",
"317 -229 OFFCURVE",
"320 -233 QCURVE",
"346 -233 OFFCURVE",
"402 -212 OFFCURVE",
"467 -160 OFFCURVE",
"524 -83 OFFCURVE",
"575 40 OFFCURVE",
"589 116 QCURVE SMOOTH",
"672 546 LINE SMOOTH",
"678 576 OFFCURVE",
"686 603 OFFCURVE",
"694 614 QCURVE SMOOTH",
"700 622 OFFCURVE",
"758 634 OFFCURVE",
"771 634 QCURVE",
"781 650 OFFCURVE",
"776 663 QCURVE",
"761 663 OFFCURVE",
"724 660 OFFCURVE",
"693 658 OFFCURVE",
"674 658 QCURVE SMOOTH",
"661 658 OFFCURVE",
"568 663 QCURVE",
"566 658 OFFCURVE",
"562 640 OFFCURVE",
"564 634 QCURVE",
"578 634 OFFCURVE",
"629 621 OFFCURVE",
"631 614 QCURVE",
"635 599 OFFCURVE",
"633 576 OFFCURVE",
"627 545 QCURVE SMOOTH",
"553 166 LINE",
"516 246 OFFCURVE",
"301 624 OFFCURVE",
"285 662 QCURVE",
"259 660 OFFCURVE",
"214 660 QCURVE SMOOTH",
"196 660 OFFCURVE",
"131 665 OFFCURVE",
"118 665 QCURVE",
"109 653 OFFCURVE",
"113 636 QCURVE",
"126 636 OFFCURVE",
"179 624 OFFCURVE",
"181 616 QCURVE",
"185 603 OFFCURVE",
"183 579 OFFCURVE",
"177 548 QCURVE SMOOTH",
"93 114 LINE SMOOTH",
"84 65 OFFCURVE",
"70 46 QCURVE SMOOTH",
"64 38 OFFCURVE",
"7 26 OFFCURVE",
"-6 26 QCURVE",
"-11 19 OFFCURVE",
"-14 0 OFFCURVE",
"-12 -3 QCURVE",
"4 -3 OFFCURVE",
"41 1 OFFCURVE",
"72 2 OFFCURVE",
"91 2 QCURVE SMOOTH",
"105 2 OFFCURVE",
"197 -3 QCURVE",
"200 3 OFFCURVE",
"203 20 OFFCURVE",
"201 26 QCURVE",
"188 26 OFFCURVE",
"137 39 OFFCURVE",
"134 46 QCURVE",
"130 62 OFFCURVE",
"132 85 OFFCURVE",
"138 115 QCURVE SMOOTH",
"226 569 LINE",
"510 44 LINE",
"499 0 OFFCURVE",
"465 -80 OFFCURVE",
"418 -151 OFFCURVE",
"354 -203 OFFCURVE",
"318 -214 QCURVE"
);
}
);
width = 731;
}
);
leftKerningGroup = N;
note = Eng;
rightKerningGroup = N;
unicode = 014A;
},
{
glyphname = OE;
lastChange = "2018-03-12 14:51:37 +0000";
layers = (
{
layerId = "14E94935-86A2-4797-A25C-C4BEBC72BEDE";
paths = (
{
closed = 1;
nodes = (
"340 666 OFFCURVE",
"208 604 OFFCURVE",
"113 498 OFFCURVE",
"57 354 OFFCURVE",
"57 274 QCURVE SMOOTH",
"57 228 OFFCURVE",
"78 145 OFFCURVE",
"121 73 OFFCURVE",
"183 20 OFFCURVE",
"272 -11 OFFCURVE",
"325 -11 QCURVE SMOOTH",
"341 -11 OFFCURVE",
"437 -1 OFFCURVE",
"466 0 QCURVE SMOOTH",
"536 1 OFFCURVE",
"745 -4 OFFCURVE",
"782 -4 QCURVE",
"789 16 OFFCURVE",
"815 69 OFFCURVE",
"859 150 OFFCURVE",
"865 162 QCURVE",
"861 168 OFFCURVE",
"843 168 QCURVE SMOOTH",
"831 168 OFFCURVE",
"828 162 QCURVE SMOOTH",
"795 91 OFFCURVE",
"750 61 QCURVE SMOOTH",
"703 30 OFFCURVE",
"626 30 QCURVE SMOOTH",
"582 30 LINE SMOOTH",
"549 30 OFFCURVE",
"525 33 OFFCURVE",
"518 40 QCURVE SMOOTH",
"513 46 OFFCURVE",
"525 109 QCURVE SMOOTH",
"564 307 LINE SMOOTH",
"566 316 OFFCURVE",
"633 316 QCURVE SMOOTH",
"720 316 OFFCURVE",
"730 308 QCURVE",
"736 303 OFFCURVE",
"741 279 OFFCURVE",
"743 238 QCURVE",
"745 230 OFFCURVE",
"756 230 QCURVE SMOOTH",
"768 230 OFFCURVE",
"772 234 QCURVE",
"808 423 LINE",
"805 428 OFFCURVE",
"794 428 QCURVE SMOOTH",
"781 428 OFFCURVE",
"778 421 QCURVE SMOOTH",
"777 418 OFFCURVE",
"774 412 QCURVE SMOOTH",
"768 397 OFFCURVE",
"759 378 OFFCURVE",
"747 363 OFFCURVE",
"735 355 OFFCURVE",
"711 350 OFFCURVE",
"685 349 OFFCURVE",
"662 349 QCURVE SMOOTH",
"613 349 LINE SMOOTH",
"605 349 OFFCURVE",
"592 350 OFFCURVE",
"580 351 OFFCURVE",
"574 353 OFFCURVE",
"574 355 QCURVE",
"611 547 LINE SMOOTH",
"621 598 OFFCURVE",
"631 619 QCURVE SMOOTH",
"637 630 OFFCURVE",
"697 630 QCURVE SMOOTH",
"777 630 LINE SMOOTH",
"817 630 OFFCURVE",
"862 587 OFFCURVE",
"865 530 QCURVE",
"865 523 OFFCURVE",
"876 523 QCURVE SMOOTH",
"889 523 OFFCURVE",
"894 528 QCURVE",
"894 537 OFFCURVE",
"891 652 OFFCURVE",
"893 664 QCURVE",
"841 664 OFFCURVE",
"642 657 OFFCURVE",
"600 657 QCURVE SMOOTH",
"568 657 OFFCURVE",
"449 666 OFFCURVE",
"413 666 QCURVE SMOOTH"
);
},
{
closed = 1;
nodes = (
"441 86 OFFCURVE",
"429 62 QCURVE",
"427 57 OFFCURVE",
"415 44 OFFCURVE",
"392 28 OFFCURVE",
"351 18 OFFCURVE",
"325 18 QCURVE SMOOTH",
"241 18 OFFCURVE",
"151 150 OFFCURVE",
"151 272 QCURVE SMOOTH",
"151 337 OFFCURVE",
"189 466 OFFCURVE",
"253 571 OFFCURVE",
"350 636 OFFCURVE",
"404 636 QCURVE SMOOTH",
"427 636 OFFCURVE",
"471 629 OFFCURVE",
"513 612 OFFCURVE",
"535 580 OFFCURVE",
"530 557 QCURVE SMOOTH",
"447 116 LINE SMOOTH"
);
}
);
width = 886;
}
);
leftKerningGroup = C;
note = OE;
rightKerningGroup = E;
unicode = 0152;
},
{
glyphname = Uogonek;
lastChange = "2018-03-12 14:51:37 +0000";
layers = (
{
layerId = "14E94935-86A2-4797-A25C-C4BEBC72BEDE";
paths = (
{
closed = 1;
nodes = (
"550 114 OFFCURVE",
"583 276 QCURVE SMOOTH",
"636 546 LINE SMOOTH",
"641 576 OFFCURVE",
"650 603 OFFCURVE",
"658 614 QCURVE SMOOTH",
"664 622 OFFCURVE",
"722 634 OFFCURVE",
"735 634 QCURVE",
"745 650 OFFCURVE",
"740 663 QCURVE",
"724 663 OFFCURVE",
"687 660 OFFCURVE",
"657 658 OFFCURVE",
"638 658 QCURVE SMOOTH",
"628 658 OFFCURVE",
"536 663 QCURVE",
"533 658 OFFCURVE",
"530 640 OFFCURVE",
"532 634 QCURVE",
"545 634 OFFCURVE",
"592 621 OFFCURVE",
"595 614 QCURVE",
"599 599 OFFCURVE",
"597 576 OFFCURVE",
"591 545 QCURVE SMOOTH",
"538 274 LINE SMOOTH",
"492 54 OFFCURVE",
"315 54 QCURVE SMOOTH",
"224 54 OFFCURVE",
"194 122 QCURVE SMOOTH",
"167 184 OFFCURVE",
"189 296 QCURVE SMOOTH",
"237 543 LINE SMOOTH",
"249 603 OFFCURVE",
"256 617 QCURVE",
"259 624 OFFCURVE",
"309 633 OFFCURVE",
"323 633 QCURVE",
"327 637 OFFCURVE",
"332 658 OFFCURVE",
"329 662 QCURVE",
"231 657 OFFCURVE",
"219 657 QCURVE SMOOTH",
"206 657 OFFCURVE",
"111 662 QCURVE",
"106 659 OFFCURVE",
"102 637 OFFCURVE",
"105 633 QCURVE",
"119 633 OFFCURVE",
"165 624 OFFCURVE",
"166 617 QCURVE",
"168 602 OFFCURVE",
"156 543 QCURVE SMOOTH",
"99 251 LINE SMOOTH",
"77 143 OFFCURVE",
"122 74 QCURVE SMOOTH",
"146 37 OFFCURVE",
"229 -4 OFFCURVE",
"284 -4 QCURVE SMOOTH",
"316 -4 OFFCURVE",
"340 0 QCURVE",
"295 -34 OFFCURVE",
"217 -139 OFFCURVE",
"217 -175 QCURVE SMOOTH",
"217 -196 OFFCURVE",
"246 -230 OFFCURVE",
"268 -230 QCURVE SMOOTH",
"319 -230 OFFCURVE",
"379 -163 QCURVE",
"382 -160 OFFCURVE",
"390 -134 OFFCURVE",
"385 -133 QCURVE",
"383 -133 OFFCURVE",
"361 -152 OFFCURVE",
"322 -171 OFFCURVE",
"302 -171 QCURVE SMOOTH",
"271 -171 OFFCURVE",
"271 -139 QCURVE SMOOTH",
"271 -82 OFFCURVE",
"449 43 QCURVE SMOOTH"
);
}
);
width = 682;
}
);
leftKerningGroup = U;
note = Uogonek;
rightKerningGroup = U;
unicode = 0172;
},
{
glyphname = Eth.ref1;
lastChange = "2018-03-12 14:51:38 +0000";
layers = (
{
layerId = "14E94935-86A2-4797-A25C-C4BEBC72BEDE";
paths = (
{
closed = 1;
nodes = (
"68 313 OFFCURVE",
"74 313 QCURVE SMOOTH",
"405 313 LINE",
"411 322 OFFCURVE",
"415 341 QCURVE",
"416 344 OFFCURVE",
"413 349 OFFCURVE",
"410 349 QCURVE SMOOTH",
"80 349 LINE",
"75 344 OFFCURVE",
"71 324 QCURVE SMOOTH"
);
}
);
width = 1024;
}
);
note = Eth.ref1;
},
{
glyphname = Hbar.ref1;
lastChange = "2018-03-12 14:51:38 +0000";
layers = (
{
layerId = "14E94935-86A2-4797-A25C-C4BEBC72BEDE";
paths = (
{
closed = 1;
nodes = (
"104 480 OFFCURVE",
"105 472 OFFCURVE",
"107 472 QCURVE SMOOTH",
"660 472 LINE",
"669 486 OFFCURVE",
"671 498 QCURVE",
"673 506 OFFCURVE",
"668 506 QCURVE SMOOTH",
"116 506 LINE",
"108 497 OFFCURVE",
"105 483 QCURVE"
);
}
);
width = 1024;
}
);
note = Hbar.ref1;
},
{
glyphname = Lslash.ref1;
lastChange = "2018-03-12 14:51:38 +0000";
layers = (
{
layerId = "14E94935-86A2-4797-A25C-C4BEBC72BEDE";
paths = (
{
closed = 1;
nodes = (
"448 416 LINE",
"451 418 OFFCURVE",
"442 442 OFFCURVE",
"438 447 QCURVE",
"65 207 LINE",
"63 205 OFFCURVE",
"71 185 OFFCURVE",
"75 178 QCURVE"
);
}
);
width = 1024;
}
);
note = Lslash.ref1;
},
{
glyphname = Oslash.ref1;
lastChange = "2018-03-12 14:51:38 +0000";
layers = (
{
layerId = "14E94935-86A2-4797-A25C-C4BEBC72BEDE";
paths = (
{
closed = 1;
nodes = (
"639 649 OFFCURVE",
"619 665 OFFCURVE",
"612 667 QCURVE",
"96 10 LINE",
"93 6 OFFCURVE",
"111 -10 OFFCURVE",
"118 -13 QCURVE",
"635 645 LINE"
);
}
);
width = 1024;
}
);
note = Oslash.ref1;
},
{
glyphname = Tbar.ref1;
lastChange = "2018-03-12 14:51:38 +0000";
layers = (
{
layerId = "14E94935-86A2-4797-A25C-C4BEBC72BEDE";
paths = (
{
closed = 1;
nodes = (
"140 308 OFFCURVE",
"145 308 QCURVE SMOOTH",
"465 308 LINE",
"475 326 OFFCURVE",
"477 338 QCURVE SMOOTH",
"479 348 OFFCURVE",
"473 348 QCURVE SMOOTH",
"153 348 LINE",
"145 338 OFFCURVE",
"142 321 QCURVE"
);
}
);
width = 1024;
}
);
note = Tbar.ref1;
},
{
glyphname = aogonek;
lastChange = "2018-03-12 14:51:37 +0000";
layers = (
{
layerId = "14E94935-86A2-4797-A25C-C4BEBC72BEDE";
paths = (
{
closed = 1;
nodes = (
"284 274 LINE SMOOTH",
"275 226 OFFCURVE",
"228 124 OFFCURVE",
"168 53 OFFCURVE",
"144 53 QCURVE SMOOTH",
"93 53 OFFCURVE",
"93 151 QCURVE SMOOTH",
"93 207 OFFCURVE",
"144 322 OFFCURVE",
"222 395 OFFCURVE",
"259 395 QCURVE SMOOTH",
"271 395 OFFCURVE",
"299 387 OFFCURVE",
"305 380 QCURVE"
);
},
{
closed = 1;
nodes = (
"393 102 LINE SMOOTH",
"388 97 OFFCURVE",
"378 85 OFFCURVE",
"362 70 OFFCURVE",
"348 58 OFFCURVE",
"333 49 OFFCURVE",
"328 49 QCURVE SMOOTH",
"318 49 OFFCURVE",
"318 74 QCURVE SMOOTH",
"318 90 OFFCURVE",
"322 106 QCURVE",
"383 422 LINE",
"348 435 OFFCURVE",
"305 435 QCURVE SMOOTH",
"260 435 OFFCURVE",
"159 383 OFFCURVE",
"74 297 OFFCURVE",
"19 176 OFFCURVE",
"19 113 QCURVE SMOOTH",
"19 60 OFFCURVE",
"68 -5 OFFCURVE",
"108 -5 QCURVE SMOOTH",
"129 -5 OFFCURVE",
"176 26 OFFCURVE",
"217 73 OFFCURVE",
"246 114 OFFCURVE",
"255 130 QCURVE",
"254 123 OFFCURVE",
"250 99 QCURVE SMOOTH",
"243 62 OFFCURVE",
"243 46 QCURVE SMOOTH",
"243 5 OFFCURVE",
"266 -4 QCURVE",
"224 -46 OFFCURVE",
"158 -145 OFFCURVE",
"158 -180 QCURVE SMOOTH",
"158 -201 OFFCURVE",
"187 -230 OFFCURVE",
"209 -230 QCURVE SMOOTH",
"260 -230 OFFCURVE",
"320 -163 QCURVE",
"324 -160 OFFCURVE",
"331 -134 OFFCURVE",
"326 -133 QCURVE",
"325 -133 OFFCURVE",
"302 -152 OFFCURVE",
"264 -171 OFFCURVE",
"243 -171 QCURVE SMOOTH",
"212 -171 OFFCURVE",
"212 -139 QCURVE SMOOTH",
"212 -121 OFFCURVE",
"242 -73 OFFCURVE",
"290 -24 OFFCURVE",
"327 10 OFFCURVE",
"345 25 QCURVE SMOOTH",
"365 42 OFFCURVE",
"404 80 OFFCURVE",
"408 88 QCURVE",
"408 93 OFFCURVE",
"401 107 OFFCURVE",
"398 107 QCURVE"
);
}
);
width = 449;
}
);
leftKerningGroup = a;
note = aogonek;
rightKerningGroup = a;
unicode = 0105;
},
{
glyphname = ae;
lastChange = "2018-03-12 14:51:37 +0000";
layers = (
{
layerId = "14E94935-86A2-4797-A25C-C4BEBC72BEDE";
paths = (
{
closed = 1;
nodes = (
"462 328 OFFCURVE",
"425 280 OFFCURVE",
"373 249 OFFCURVE",
"322 230 OFFCURVE",
"306 230 QCURVE",
"311 268 OFFCURVE",
"340 341 OFFCURVE",
"392 394 OFFCURVE",
"421 394 QCURVE SMOOTH",
"437 394 OFFCURVE",
"462 372 OFFCURVE",
"462 354 QCURVE SMOOTH"
);
},
{
closed = 1;
nodes = (
"108 46 OFFCURVE",
"82 77 OFFCURVE",
"82 101 QCURVE SMOOTH",
"82 143 OFFCURVE",
"134 170 QCURVE SMOOTH",
"172 190 OFFCURVE",
"232 201 QCURVE",
"217 108 LINE",
"216 99 OFFCURVE",
"149 46 OFFCURVE",
"127 46 QCURVE SMOOTH"
);
},
{
closed = 1;
nodes = (
"67 339 OFFCURVE",
"67 323 QCURVE SMOOTH",
"67 294 OFFCURVE",
"90 294 QCURVE SMOOTH",
"124 294 OFFCURVE",
"141 339 QCURVE SMOOTH",
"152 369 OFFCURVE",
"177 397 OFFCURVE",
"198 397 QCURVE SMOOTH",
"223 397 OFFCURVE",
"254 359 OFFCURVE",
"254 338 QCURVE SMOOTH",
"254 325 OFFCURVE",
"252 317 QCURVE",
"241 257 LINE",
"240 254 OFFCURVE",
"239 244 OFFCURVE",
"238 239 OFFCURVE",
"235 235 OFFCURVE",
"232 234 QCURVE",
"222 231 OFFCURVE",
"136 205 OFFCURVE",
"72 185 OFFCURVE",
"65 180 QCURVE SMOOTH",
"43 165 OFFCURVE",
"6 111 OFFCURVE",
"6 80 QCURVE SMOOTH",
"6 37 OFFCURVE",
"55 -8 OFFCURVE",
"90 -8 QCURVE SMOOTH",
"110 -8 OFFCURVE",
"211 53 OFFCURVE",
"224 70 QCURVE",
"234 36 OFFCURVE",
"296 -6 OFFCURVE",
"328 -6 QCURVE SMOOTH",
"364 -6 OFFCURVE",
"452 60 OFFCURVE",
"481 102 QCURVE",
"481 108 OFFCURVE",
"472 122 OFFCURVE",
"469 122 QCURVE",
"465 118 LINE SMOOTH",
"461 114 OFFCURVE",
"453 105 OFFCURVE",
"439 92 OFFCURVE",
"426 80 OFFCURVE",
"408 68 OFFCURVE",
"392 59 OFFCURVE",
"375 53 OFFCURVE",
"367 53 QCURVE SMOOTH",
"332 53 OFFCURVE",
"297 109 OFFCURVE",
"297 158 QCURVE SMOOTH",
"297 175 OFFCURVE",
"301 199 QCURVE",
"330 203 OFFCURVE",
"408 233 OFFCURVE",
"484 277 OFFCURVE",
"536 339 OFFCURVE",
"536 370 QCURVE SMOOTH",
"536 377 OFFCURVE",
"535 388 OFFCURVE",
"528 410 OFFCURVE",
"515 424 OFFCURVE",
"487 435 OFFCURVE",
"468 435 QCURVE SMOOTH",
"430 435 OFFCURVE",
"349 396 OFFCURVE",
"323 366 QCURVE",
"320 394 OFFCURVE",
"281 435 OFFCURVE",
"251 435 QCURVE SMOOTH",
"208 435 OFFCURVE",
"109 383 OFFCURVE",
"78 356 QCURVE"
);
}
);
width = 559;
}
);
leftKerningGroup = ae;
note = ae;
rightKerningGroup = e;
unicode = 00E6;
},
{
glyphname = eogonek;
lastChange = "2018-03-12 14:51:37 +0000";
layers = (
{
layerId = "14E94935-86A2-4797-A25C-C4BEBC72BEDE";
paths = (
{
closed = 1;
nodes = (
"240 394 OFFCURVE",
"266 373 OFFCURVE",
"266 354 QCURVE SMOOTH",
"266 328 OFFCURVE",
"227 276 OFFCURVE",
"173 241 OFFCURVE",
"121 218 OFFCURVE",
"105 218 QCURVE",
"107 239 OFFCURVE",
"126 296 OFFCURVE",
"155 354 OFFCURVE",
"200 394 OFFCURVE",
"224 394 QCURVE SMOOTH"
);
},
{
closed = 1;
nodes = (
"121 -230 OFFCURVE",
"181 -163 QCURVE",
"185 -160 OFFCURVE",
"192 -134 OFFCURVE",
"187 -133 QCURVE",
"186 -133 OFFCURVE",
"163 -152 OFFCURVE",
"125 -171 OFFCURVE",
"104 -171 QCURVE SMOOTH",
"73 -171 OFFCURVE",
"73 -139 QCURVE SMOOTH",
"73 -128 OFFCURVE",
"97 -92 OFFCURVE",
"140 -46 OFFCURVE",
"179 -8 OFFCURVE",
"233 44 OFFCURVE",
"244 54 QCURVE SMOOTH",
"276 86 OFFCURVE",
"285 102 QCURVE",
"285 107 OFFCURVE",
"276 122 OFFCURVE",
"273 122 QCURVE",
"270 118 LINE SMOOTH",
"266 114 OFFCURVE",
"258 106 OFFCURVE",
"244 93 OFFCURVE",
"231 81 OFFCURVE",
"213 68 OFFCURVE",
"197 59 OFFCURVE",
"178 53 OFFCURVE",
"170 53 QCURVE SMOOTH",
"135 53 OFFCURVE",
"101 112 OFFCURVE",
"101 161 QCURVE SMOOTH",
"101 187 OFFCURVE",
"103 193 QCURVE",
"127 193 OFFCURVE",
"206 223 OFFCURVE",
"284 271 OFFCURVE",
"340 339 OFFCURVE",
"340 373 QCURVE SMOOTH",
"340 399 OFFCURVE",
"309 435 OFFCURVE",
"274 435 QCURVE SMOOTH",
"232 435 OFFCURVE",
"141 384 OFFCURVE",
"70 302 OFFCURVE",
"23 193 OFFCURVE",
"23 139 QCURVE SMOOTH",
"23 69 OFFCURVE",
"80 -6 OFFCURVE",
"133 -6 QCURVE SMOOTH",
"141 -6 LINE",
"108 -36 OFFCURVE",
"20 -148 OFFCURVE",
"20 -180 QCURVE SMOOTH",
"20 -201 OFFCURVE",
"48 -230 OFFCURVE",
"70 -230 QCURVE SMOOTH"
);
}
);
width = 363;
}
);
leftKerningGroup = e;
note = eogonek;
rightKerningGroup = e;
unicode = 0119;
},
{
glyphname = dotlessi;
lastChange = "2018-03-12 14:51:37 +0000";
layers = (
{
layerId = "14E94935-86A2-4797-A25C-C4BEBC72BEDE";
paths = (
{
closed = 1;
nodes = (
"53 62 OFFCURVE",
"53 46 QCURVE SMOOTH",
"53 23 OFFCURVE",
"72 -6 OFFCURVE",
"87 -6 QCURVE SMOOTH",
"118 -6 OFFCURVE",
"206 67 OFFCURVE",
"218 88 QCURVE",
"218 93 OFFCURVE",
"211 107 OFFCURVE",
"208 107 QCURVE",
"203 102 LINE SMOOTH",
"198 97 OFFCURVE",
"193 91 QCURVE",
"188 85 OFFCURVE",
"172 70 OFFCURVE",
"158 58 OFFCURVE",
"143 49 OFFCURVE",
"138 49 QCURVE SMOOTH",
"128 49 OFFCURVE",
"128 74 QCURVE SMOOTH",
"128 86 OFFCURVE",
"132 106 QCURVE SMOOTH",
"183 330 LINE",
"190 367 OFFCURVE",
"190 383 QCURVE SMOOTH",
"190 405 OFFCURVE",
"167 435 OFFCURVE",
"151 435 QCURVE SMOOTH",
"121 435 OFFCURVE",
"38 363 OFFCURVE",
"25 341 QCURVE",
"25 337 OFFCURVE",
"33 322 OFFCURVE",
"35 322 QCURVE",
"40 327 LINE SMOOTH",
"45 332 OFFCURVE",
"50 339 QCURVE",
"56 345 OFFCURVE",
"71 360 OFFCURVE",
"86 372 OFFCURVE",
"100 380 OFFCURVE",
"105 380 QCURVE SMOOTH",
"115 380 OFFCURVE",
"115 355 QCURVE SMOOTH",
"115 347 OFFCURVE",
"111 323 QCURVE",
"60 99 LINE"
);
}
);
width = 262;
}
);
leftKerningGroup = i;
note = dotlessi;
rightKerningGroup = i;
unicode = 0131;
},
{
glyphname = iogonek;
lastChange = "2018-03-12 14:51:37 +0000";
layers = (
{
layerId = "14E94935-86A2-4797-A25C-C4BEBC72BEDE";
paths = (
{
closed = 1;
nodes = (
"116 572 OFFCURVE",
"135 546 OFFCURVE",
"150 546 QCURVE SMOOTH",
"173 546 OFFCURVE",
"204 582 OFFCURVE",
"204 606 QCURVE SMOOTH",
"204 622 OFFCURVE",
"184 646 OFFCURVE",
"168 646 QCURVE SMOOTH",
"146 646 OFFCURVE",
"116 612 OFFCURVE",
"116 589 QCURVE SMOOTH"
);
},
{
closed = 1;
nodes = (
"203 102 LINE SMOOTH",
"198 97 OFFCURVE",
"188 85 OFFCURVE",
"172 70 OFFCURVE",
"158 58 OFFCURVE",
"143 49 OFFCURVE",
"138 49 QCURVE SMOOTH",
"128 49 OFFCURVE",
"128 74 QCURVE SMOOTH",
"128 86 OFFCURVE",
"132 106 QCURVE SMOOTH",
"183 330 LINE",
"190 367 OFFCURVE",
"190 383 QCURVE SMOOTH",
"190 405 OFFCURVE",
"167 435 OFFCURVE",
"151 435 QCURVE SMOOTH",
"121 435 OFFCURVE",
"38 363 OFFCURVE",
"25 341 QCURVE",
"25 337 OFFCURVE",
"33 322 OFFCURVE",
"35 322 QCURVE",
"40 327 LINE SMOOTH",
"45 332 OFFCURVE",
"56 345 OFFCURVE",
"71 360 OFFCURVE",
"86 372 OFFCURVE",
"100 380 OFFCURVE",
"105 380 QCURVE SMOOTH",
"115 380 OFFCURVE",
"115 355 QCURVE SMOOTH",
"115 347 OFFCURVE",
"111 323 QCURVE",
"60 99 LINE",
"53 62 OFFCURVE",
"53 46 QCURVE SMOOTH",
"53 23 OFFCURVE",
"72 -6 OFFCURVE",
"87 -6 QCURVE SMOOTH",
"93 -6 LINE",
"63 -41 OFFCURVE",
"4 -146 OFFCURVE",
"4 -180 QCURVE SMOOTH",
"4 -201 OFFCURVE",
"33 -230 OFFCURVE",
"55 -230 QCURVE SMOOTH",
"106 -230 OFFCURVE",
"166 -163 QCURVE",
"170 -160 OFFCURVE",
"177 -134 OFFCURVE",
"172 -133 QCURVE",
"171 -133 OFFCURVE",
"148 -152 OFFCURVE",
"110 -171 OFFCURVE",
"89 -171 QCURVE SMOOTH",
"58 -171 OFFCURVE",
"58 -139 QCURVE SMOOTH",
"58 -104 OFFCURVE",
"125 -4 OFFCURVE",
"169 36 QCURVE SMOOTH",
"210 73 OFFCURVE",
"218 88 QCURVE",
"218 93 OFFCURVE",
"211 107 OFFCURVE",
"208 107 QCURVE"
);
}
);
width = 263;
}
);
leftKerningGroup = i;
note = iogonek;
rightKerningGroup = i;
unicode = 012F;
},
{
glyphname = uni0237;
lastChange = "2018-03-12 14:51:37 +0000";
layers = (
{
layerId = "14E94935-86A2-4797-A25C-C4BEBC72BEDE";
paths = (
{
closed = 1;
nodes = (
"41 -61 OFFCURVE",
"-35 -187 OFFCURVE",
"-85 -215 QCURVE",
"-85 -220 OFFCURVE",
"-79 -233 OFFCURVE",
"-76 -235 QCURVE",
"-46 -223 OFFCURVE",
"34 -162 OFFCURVE",
"63 -124 QCURVE SMOOTH",
"92 -86 OFFCURVE",
"127 8 OFFCURVE",
"134 45 QCURVE SMOOTH",
"189 330 LINE SMOOTH",
"196 367 OFFCURVE",
"196 383 QCURVE SMOOTH",
"196 405 OFFCURVE",
"173 435 OFFCURVE",
"157 435 QCURVE SMOOTH",
"127 435 OFFCURVE",
"44 363 OFFCURVE",
"31 341 QCURVE",
"31 337 OFFCURVE",
"39 322 OFFCURVE",
"41 322 QCURVE",
"46 327 LINE SMOOTH",
"51 332 OFFCURVE",
"56 339 QCURVE",
"62 345 OFFCURVE",
"77 360 OFFCURVE",
"92 372 OFFCURVE",
"106 380 OFFCURVE",
"111 380 QCURVE SMOOTH",
"121 380 OFFCURVE",
"121 355 QCURVE SMOOTH",
"121 347 OFFCURVE",
"117 323 QCURVE SMOOTH",
"57 22 LINE SMOOTH"
);
}
);
width = 249;
}
);
leftKerningGroup = j;
note = uni0237;
rightKerningGroup = j;
unicode = 0237;
},
{
glyphname = kgreenlandic;
lastChange = "2018-03-12 14:51:37 +0000";
layers = (
{
layerId = "14E94935-86A2-4797-A25C-C4BEBC72BEDE";
paths = (
{
closed = 1;
nodes = (
"64 -5 OFFCURVE",
"80 -5 QCURVE SMOOTH",
"97 -5 OFFCURVE",
"115 0 QCURVE",
"152 191 LINE",
"160 179 OFFCURVE",
"189 126 OFFCURVE",
"209 90 OFFCURVE",
"240 44 OFFCURVE",
"268 16 OFFCURVE",
"305 -4 OFFCURVE",
"324 -4 QCURVE SMOOTH",
"353 -4 OFFCURVE",
"436 70 OFFCURVE",
"446 88 QCURVE",
"446 92 OFFCURVE",
"438 107 OFFCURVE",
"436 107 QCURVE",
"424 92 OFFCURVE",
"379 51 OFFCURVE",
"368 51 QCURVE SMOOTH",
"337 51 OFFCURVE",
"277 113 OFFCURVE",
"211 211 QCURVE",
"255 219 OFFCURVE",
"328 243 OFFCURVE",
"388 280 OFFCURVE",
"422 334 OFFCURVE",
"422 367 QCURVE SMOOTH",
"422 396 OFFCURVE",
"377 435 OFFCURVE",
"347 435 QCURVE SMOOTH",
"323 435 OFFCURVE",
"272 413 OFFCURVE",
"231 380 OFFCURVE",
"200 348 OFFCURVE",
"189 335 QCURVE SMOOTH",
"178 322 LINE",
"179 330 LINE SMOOTH",
"186 379 OFFCURVE",
"186 383 QCURVE SMOOTH",
"186 405 OFFCURVE",
"163 435 OFFCURVE",
"147 435 QCURVE SMOOTH",
"117 435 OFFCURVE",
"34 363 OFFCURVE",
"21 341 QCURVE",
"21 337 OFFCURVE",
"29 322 OFFCURVE",
"31 322 QCURVE",
"36 327 LINE SMOOTH",
"41 332 OFFCURVE",
"52 345 OFFCURVE",
"67 360 OFFCURVE",
"82 372 OFFCURVE",
"96 380 OFFCURVE",
"101 380 QCURVE SMOOTH",
"111 380 OFFCURVE",
"111 355 QCURVE SMOOTH",
"111 347 OFFCURVE",
"107 323 QCURVE SMOOTH",
"44 0 LINE"
);
},
{
closed = 1;
nodes = (
"344 330 OFFCURVE",
"319 289 OFFCURVE",
"279 260 OFFCURVE",
"229 240 OFFCURVE",
"181 230 OFFCURVE",
"160 230 QCURVE",
"170 279 OFFCURVE",
"270 388 OFFCURVE",
"311 388 QCURVE SMOOTH",
"330 388 OFFCURVE",
"344 370 OFFCURVE",
"344 354 QCURVE SMOOTH"
);
}
);
width = 482;
}
);
leftKerningGroup = m;
note = kgreenlandic;
rightKerningGroup = k;
unicode = 0138;
},
{
glyphname = eng;
lastChange = "2018-03-12 14:51:37 +0000";
layers = (
{
layerId = "14E94935-86A2-4797-A25C-C4BEBC72BEDE";
paths = (
{
closed = 1;
nodes = (
"419 328 OFFCURVE",
"419 369 QCURVE SMOOTH",
"419 402 OFFCURVE",
"390 435 OFFCURVE",
"357 435 QCURVE SMOOTH",
"338 435 OFFCURVE",
"287 401 OFFCURVE",
"239 351 OFFCURVE",
"194 296 OFFCURVE",
"166 255 OFFCURVE",
"161 246 QCURVE",
"179 330 LINE SMOOTH",
"187 364 OFFCURVE",
"187 383 QCURVE SMOOTH",
"187 405 OFFCURVE",
"164 435 OFFCURVE",
"148 435 QCURVE SMOOTH",
"118 435 OFFCURVE",
"35 363 OFFCURVE",
"22 341 QCURVE",
"22 337 OFFCURVE",
"30 322 OFFCURVE",
"32 322 QCURVE",
"37 327 LINE SMOOTH",
"42 332 OFFCURVE",
"53 345 OFFCURVE",
"68 360 OFFCURVE",
"83 372 OFFCURVE",
"97 380 OFFCURVE",
"102 380 QCURVE SMOOTH",
"112 380 OFFCURVE",
"112 355 QCURVE SMOOTH",
"112 347 OFFCURVE",
"108 323 QCURVE",
"42 0 LINE",
"70 -4 OFFCURVE",
"77 -4 QCURVE SMOOTH",
"85 -4 OFFCURVE",
"113 0 QCURVE",
"134 102 OFFCURVE",
"138 122 QCURVE SMOOTH",
"147 166 OFFCURVE",
"197 257 OFFCURVE",
"255 321 OFFCURVE",
"309 361 OFFCURVE",
"323 361 QCURVE SMOOTH",
"336 361 OFFCURVE",
"342 341 OFFCURVE",
"342 318 QCURVE SMOOTH",
"342 296 OFFCURVE",
"335 264 QCURVE SMOOTH",
"283 22 LINE SMOOTH",
"265 -62 OFFCURVE",
"191 -187 OFFCURVE",
"141 -215 QCURVE",
"141 -220 OFFCURVE",
"147 -233 OFFCURVE",
"150 -235 QCURVE",
"180 -223 OFFCURVE",
"260 -162 OFFCURVE",
"289 -124 QCURVE SMOOTH",
"337 -61 OFFCURVE",
"360 45 QCURVE SMOOTH",
"405 260 LINE SMOOTH"
);
}
);
width = 476;
}
);
leftKerningGroup = m;
note = eng;
rightKerningGroup = eng;
unicode = 014B;
},
{
glyphname = oe;
lastChange = "2018-03-12 14:51:37 +0000";
layers = (
{
layerId = "14E94935-86A2-4797-A25C-C4BEBC72BEDE";
paths = (
{
closed = 1;
nodes = (
"491 394 OFFCURVE",
"517 373 OFFCURVE",
"517 354 QCURVE SMOOTH",
"517 329 OFFCURVE",
"480 277 OFFCURVE",
"427 242 OFFCURVE",
"374 219 OFFCURVE",
"356 218 QCURVE",
"361 256 OFFCURVE",
"393 335 OFFCURVE",
"447 394 OFFCURVE",
"475 394 QCURVE SMOOTH"
);
},
{
closed = 1;
nodes = (
"290 173 OFFCURVE",
"210 27 OFFCURVE",
"159 27 QCURVE SMOOTH",
"132 27 OFFCURVE",
"102 98 OFFCURVE",
"102 158 QCURVE SMOOTH",
"102 197 OFFCURVE",
"121 281 OFFCURVE",
"155 355 OFFCURVE",
"207 403 OFFCURVE",
"237 403 QCURVE SMOOTH",
"264 403 OFFCURVE",
"290 335 OFFCURVE",
"290 273 QCURVE SMOOTH"
);
},
{
closed = 1;
nodes = (
"350 389 OFFCURVE",
"295 435 OFFCURVE",
"251 435 QCURVE SMOOTH",
"209 435 OFFCURVE",
"126 381 OFFCURVE",
"63 297 OFFCURVE",
"24 190 OFFCURVE",
"24 138 QCURVE SMOOTH",
"24 71 OFFCURVE",
"82 -5 OFFCURVE",
"140 -5 QCURVE SMOOTH",
"177 -5 OFFCURVE",
"251 36 OFFCURVE",
"283 72 QCURVE",
"295 35 OFFCURVE",
"346 -6 OFFCURVE",
"384 -6 QCURVE SMOOTH",
"406 -6 OFFCURVE",
"458 21 OFFCURVE",
"500 59 OFFCURVE",
"530 92 OFFCURVE",
"536 102 QCURVE",
"536 107 OFFCURVE",
"527 122 OFFCURVE",
"524 122 QCURVE",
"521 118 LINE SMOOTH",
"517 114 OFFCURVE",
"509 106 OFFCURVE",
"495 93 OFFCURVE",
"482 81 OFFCURVE",
"464 68 OFFCURVE",
"448 59 OFFCURVE",
"429 53 OFFCURVE",
"421 53 QCURVE SMOOTH",
"386 53 OFFCURVE",
"352 112 OFFCURVE",
"352 161 QCURVE SMOOTH",
"352 187 OFFCURVE",
"354 193 QCURVE",
"378 193 OFFCURVE",
"457 223 OFFCURVE",
"535 271 OFFCURVE",
"591 339 OFFCURVE",
"591 373 QCURVE SMOOTH",
"591 399 OFFCURVE",
"560 435 OFFCURVE",
"525 435 QCURVE SMOOTH",
"484 435 OFFCURVE",
"398 389 OFFCURVE",
"361 348 QCURVE"
);
}
);
width = 614;
}
);
leftKerningGroup = e;
note = oe;
rightKerningGroup = e;
unicode = 0153;
},
{
glyphname = germandbls;
lastChange = "2018-03-12 14:51:37 +0000";
layers = (
{
layerId = "14E94935-86A2-4797-A25C-C4BEBC72BEDE";
paths = (
{
closed = 1;
nodes = (
"334 642 OFFCURVE",
"385 591 OFFCURVE",
"385 547 QCURVE SMOOTH",
"385 512 OFFCURVE",
"357 460 OFFCURVE",
"332 435 QCURVE SMOOTH",
"320 424 OFFCURVE",
"286 391 OFFCURVE",
"273 378 OFFCURVE",
"257 357 OFFCURVE",
"253 338 OFFCURVE",
"253 324 QCURVE SMOOTH",
"253 308 OFFCURVE",
"261 279 OFFCURVE",
"281 249 OFFCURVE",
"293 234 OFFCURVE",
"309 216 QCURVE SMOOTH",
"325 198 OFFCURVE",
"340 179 OFFCURVE",
"370 138 OFFCURVE",
"384 103 OFFCURVE",
"384 88 QCURVE SMOOTH",
"384 61 OFFCURVE",
"358 26 OFFCURVE",
"330 26 QCURVE SMOOTH",
"313 26 OFFCURVE",
"286 49 OFFCURVE",
"271 76 OFFCURVE",
"252 99 OFFCURVE",
"243 99 QCURVE SMOOTH",
"226 99 OFFCURVE",
"204 79 OFFCURVE",
"203 58 QCURVE SMOOTH",
"202 52 OFFCURVE",
"209 32 QCURVE",
"245 -4 OFFCURVE",
"309 -4 QCURVE SMOOTH",
"368 -4 OFFCURVE",
"447 68 OFFCURVE",
"447 122 QCURVE SMOOTH",
"447 138 OFFCURVE",
"439 169 OFFCURVE",
"430 191 OFFCURVE",
"409 220 OFFCURVE",
"397 235 OFFCURVE",
"368 266 OFFCURVE",
"363 272 QCURVE SMOOTH",
"358 277 OFFCURVE",
"339 299 OFFCURVE",
"328 311 OFFCURVE",
"316 329 OFFCURVE",
"310 345 OFFCURVE",
"310 352 QCURVE SMOOTH",
"310 364 OFFCURVE",
"320 379 QCURVE SMOOTH",
"330 393 OFFCURVE",
"366 426 QCURVE",
"369 429 OFFCURVE",
"401 456 OFFCURVE",
"418 473 OFFCURVE",
"442 506 OFFCURVE",
"453 547 OFFCURVE",
"453 572 QCURVE SMOOTH",
"453 601 OFFCURVE",
"431 646 OFFCURVE",
"396 672 OFFCURVE",
"355 685 OFFCURVE",
"335 685 QCURVE SMOOTH",
"273 685 OFFCURVE",
"152 532 OFFCURVE",
"128 413 QCURVE",
"81 413 LINE SMOOTH",
"65 413 OFFCURVE",
"35 388 OFFCURVE",
"35 379 QCURVE SMOOTH",
"35 376 OFFCURVE",
"37 376 QCURVE SMOOTH",
"122 376 LINE",
"62 39 LINE SMOOTH",
"37 -89 OFFCURVE",
"0 -190 OFFCURVE",
"-28 -190 QCURVE SMOOTH",
"-42 -190 OFFCURVE",
"-57 -175 QCURVE SMOOTH",
"-65 -167 OFFCURVE",
"-73 -160 OFFCURVE",
"-87 -152 OFFCURVE",
"-95 -152 QCURVE SMOOTH",
"-118 -152 OFFCURVE",
"-124 -191 QCURVE SMOOTH",
"-125 -197 OFFCURVE",
"-125 -208 QCURVE",
"-112 -233 OFFCURVE",
"-71 -233 QCURVE SMOOTH",
"-9 -233 OFFCURVE",
"113 -77 OFFCURVE",
"136 43 QCURVE SMOOTH",
"150 115 OFFCURVE",
"195 364 OFFCURVE",
"204 413 QCURVE SMOOTH",
"227 538 OFFCURVE",
"269 642 OFFCURVE",
"301 642 QCURVE SMOOTH"
);
}
);
width = 500;
}
);
leftKerningGroup = f;
note = germandbls;
rightKerningGroup = germandbls;
unicode = 00DF;
},
{
glyphname = longs;
lastChange = "2018-03-12 14:51:37 +0000";
layers = (
{
layerId = "14E94935-86A2-4797-A25C-C4BEBC72BEDE";
paths = (
{
closed = 1;
nodes = (
"274 685 OFFCURVE",
"213 609 QCURVE SMOOTH",
"150 533 OFFCURVE",
"129 413 QCURVE SMOOTH",
"63 39 LINE SMOOTH",
"41 -89 OFFCURVE",
"20 -139 QCURVE",
"1 -190 OFFCURVE",
"-27 -190 QCURVE SMOOTH",
"-41 -190 OFFCURVE",
"-64 -167 OFFCURVE",
"-80 -152 OFFCURVE",
"-94 -152 QCURVE SMOOTH",
"-117 -152 OFFCURVE",
"-123 -192 QCURVE",
"-124 -203 OFFCURVE",
"-124 -208 QCURVE",
"-111 -233 OFFCURVE",
"-70 -233 QCURVE SMOOTH",
"-8 -233 OFFCURVE",
"53 -155 QCURVE SMOOTH",
"116 -77 OFFCURVE",
"137 43 QCURVE SMOOTH",
"196 376 LINE SMOOTH",
"219 506 OFFCURVE",
"264 642 OFFCURVE",
"293 642 QCURVE SMOOTH",
"307 642 OFFCURVE",
"330 619 OFFCURVE",
"346 604 OFFCURVE",
"360 604 QCURVE SMOOTH",
"387 604 OFFCURVE",
"390 660 QCURVE",
"377 685 OFFCURVE",
"336 685 QCURVE SMOOTH"
);
}
);
width = 296;
}
);
leftKerningGroup = f;
note = longs;
rightKerningGroup = f;
unicode = 017F;
},
{
glyphname = uogonek;
lastChange = "2018-03-12 14:51:37 +0000";
layers = (
{
layerId = "14E94935-86A2-4797-A25C-C4BEBC72BEDE";
paths = (
{
closed = 1;
nodes = (
"301 -230 OFFCURVE",
"361 -163 QCURVE",
"365 -160 OFFCURVE",
"372 -134 OFFCURVE",
"367 -133 QCURVE",
"366 -133 OFFCURVE",
"343 -152 OFFCURVE",
"305 -171 OFFCURVE",
"284 -171 QCURVE SMOOTH",
"253 -171 OFFCURVE",
"253 -139 QCURVE SMOOTH",
"253 -121 OFFCURVE",
"283 -73 OFFCURVE",
"331 -24 OFFCURVE",
"368 10 OFFCURVE",
"386 25 QCURVE SMOOTH",
"406 42 OFFCURVE",
"445 80 OFFCURVE",
"449 88 QCURVE",
"449 93 OFFCURVE",
"442 107 OFFCURVE",
"439 107 QCURVE",
"434 102 LINE SMOOTH",
"429 97 OFFCURVE",
"419 85 OFFCURVE",
"403 70 OFFCURVE",
"389 58 OFFCURVE",
"374 49 OFFCURVE",
"369 49 QCURVE SMOOTH",
"359 49 OFFCURVE",
"359 74 QCURVE",
"360 76 OFFCURVE",
"363 101 OFFCURVE",
"364 106 QCURVE SMOOTH",
"426 429 LINE",
"410 433 OFFCURVE",
"387 433 QCURVE SMOOTH",
"370 433 OFFCURVE",
"356 429 QCURVE",
"342 363 OFFCURVE",
"334 319 QCURVE SMOOTH",
"326 275 OFFCURVE",
"277 180 OFFCURVE",
"221 112 OFFCURVE",
"169 68 OFFCURVE",
"155 68 QCURVE SMOOTH",
"144 68 OFFCURVE",
"136 90 OFFCURVE",
"136 111 QCURVE SMOOTH",
"136 134 OFFCURVE",
"143 165 QCURVE SMOOTH",
"178 330 LINE SMOOTH",
"185 367 OFFCURVE",
"185 383 QCURVE SMOOTH",
"185 405 OFFCURVE",
"162 435 OFFCURVE",
"146 435 QCURVE SMOOTH",
"116 435 OFFCURVE",
"33 363 OFFCURVE",
"20 341 QCURVE",
"20 337 OFFCURVE",
"28 322 OFFCURVE",
"30 322 QCURVE",
"35 327 LINE SMOOTH",
"40 332 OFFCURVE",
"51 345 OFFCURVE",
"66 360 OFFCURVE",
"81 372 OFFCURVE",
"95 380 OFFCURVE",
"100 380 QCURVE SMOOTH",
"110 380 OFFCURVE",
"110 355 QCURVE SMOOTH",
"110 347 OFFCURVE",
"106 323 QCURVE",
"73 169 LINE SMOOTH",
"59 102 OFFCURVE",
"59 66 QCURVE SMOOTH",
"59 -6 OFFCURVE",
"109 -6 QCURVE SMOOTH",
"140 -6 OFFCURVE",
"228 68 OFFCURVE",
"296 156 OFFCURVE",
"310 186 QCURVE",
"308 174 OFFCURVE",
"301 141 OFFCURVE",
"295 114 OFFCURVE",
"292 99 QCURVE SMOOTH",
"288 78 OFFCURVE",
"284 46 QCURVE",
"284 5 OFFCURVE",
"307 -4 QCURVE",
"265 -46 OFFCURVE",
"199 -145 OFFCURVE",
"199 -180 QCURVE SMOOTH",
"199 -201 OFFCURVE",
"228 -230 OFFCURVE",
"250 -230 QCURVE SMOOTH"
);
}
);
width = 490;
}
);
leftKerningGroup = u;
note = uogonek;
rightKerningGroup = u;
unicode = 0173;
},
{
glyphname = dcroat.ref1;
lastChange = "2018-03-12 14:51:38 +0000";
layers = (
{
layerId = "14E94935-86A2-4797-A25C-C4BEBC72BEDE";
paths = (
{
closed = 1;
nodes = (
"244 539 OFFCURVE",
"245 531 OFFCURVE",
"247 531 QCURVE SMOOTH",
"477 531 LINE",
"486 545 OFFCURVE",
"488 557 QCURVE",
"490 565 OFFCURVE",
"485 565 QCURVE SMOOTH",
"256 565 LINE",
"248 556 OFFCURVE",
"245 542 QCURVE"
);
}
);
width = 1024;
}
);
note = dcroat.ref1;
},
{
glyphname = hbar.ref1;
lastChange = "2018-03-12 14:51:38 +0000";
layers = (
{
layerId = "14E94935-86A2-4797-A25C-C4BEBC72BEDE";
paths = (
{
closed = 1;
nodes = (
"77 539 OFFCURVE",
"78 531 OFFCURVE",
"80 531 QCURVE SMOOTH",
"310 531 LINE",
"319 545 OFFCURVE",
"321 557 QCURVE",
"323 565 OFFCURVE",
"318 565 QCURVE SMOOTH",
"89 565 LINE",
"81 556 OFFCURVE",
"78 542 QCURVE"
);
}
);
width = 1024;
}
);
note = hbar.ref1;
},
{
glyphname = lslash.ref1;
lastChange = "2018-03-12 14:51:38 +0000";
layers = (
{
layerId = "14E94935-86A2-4797-A25C-C4BEBC72BEDE";
paths = (
{
closed = 1;
nodes = (
"248 396 LINE",
"254 400 OFFCURVE",
"240 423 QCURVE",
"42 288 LINE SMOOTH",
"39 286 OFFCURVE",
"45 266 OFFCURVE",
"49 260 QCURVE"
);
}
);
width = 1024;
}
);
note = lslash.ref1;
},
{
glyphname = oslash.ref1;
lastChange = "2018-03-12 14:51:38 +0000";
layers = (
{
layerId = "14E94935-86A2-4797-A25C-C4BEBC72BEDE";
paths = (
{
closed = 1;
nodes = (
"362 403 OFFCURVE",
"354 411 OFFCURVE",
"345 417 OFFCURVE",
"341 419 QCURVE",
"33 20 LINE",
"31 16 OFFCURVE",
"45 4 OFFCURVE",
"52 0 QCURVE",
"360 400 LINE"
);
}
);
width = 1024;
}
);
note = oslash.ref1;
},
{
glyphname = tbar.ref1;
lastChange = "2018-03-12 14:51:38 +0000";
layers = (
{
layerId = "14E94935-86A2-4797-A25C-C4BEBC72BEDE";
paths = (
{
closed = 1;
nodes = (
"41 275 OFFCURVE",
"46 275 QCURVE SMOOTH",
"274 275 LINE",
"284 293 OFFCURVE",
"286 305 QCURVE SMOOTH",
"288 315 OFFCURVE",
"282 315 QCURVE SMOOTH",
"54 315 LINE",
"46 305 OFFCURVE",
"43 288 QCURVE"
);
}
);
width = 1024;
}
);
note = tbar.ref1;
},
{
glyphname = f_b;
lastChange = "2018-03-12 14:51:38 +0000";
layers = (
{
layerId = "14E94935-86A2-4797-A25C-C4BEBC72BEDE";
paths = (
{
closed = 1;
nodes = (
"601 271 OFFCURVE",
"577 179 OFFCURVE",
"539 90 OFFCURVE",
"481 27 OFFCURVE",
"451 27 QCURVE SMOOTH",
"416 27 OFFCURVE",
"393 95 OFFCURVE",
"405 156 QCURVE SMOOTH",
"413 196 OFFCURVE",
"452 279 OFFCURVE",
"499 341 OFFCURVE",
"546 380 OFFCURVE",
"562 380 QCURVE SMOOTH",
"575 380 OFFCURVE",
"591 367 OFFCURVE",
"599 342 OFFCURVE",
"601 319 OFFCURVE",
"601 302 QCURVE SMOOTH"
);
},
{
closed = 1;
nodes = (
"330 122 OFFCURVE",
"330 111 QCURVE SMOOTH",
"330 56 OFFCURVE",
"381 -6 OFFCURVE",
"423 -6 QCURVE SMOOTH",
"463 -6 OFFCURVE",
"552 47 OFFCURVE",
"627 134 OFFCURVE",
"675 258 OFFCURVE",
"675 322 QCURVE SMOOTH",
"675 375 OFFCURVE",
"639 435 OFFCURVE",
"605 435 QCURVE SMOOTH",
"592 435 OFFCURVE",
"556 420 OFFCURVE",
"509 389 OFFCURVE",
"455 327 OFFCURVE",
"430 285 QCURVE",
"492 591 LINE SMOOTH",
"503 645 OFFCURVE",
"520 678 QCURVE",
"520 694 OFFCURVE",
"515 694 QCURVE SMOOTH",
"512 694 OFFCURVE",
"455 678 OFFCURVE",
"442 678 QCURVE SMOOTH",
"441 678 OFFCURVE",
"379 699 OFFCURVE",
"347 699 QCURVE SMOOTH",
"271 699 OFFCURVE",
"139 539 OFFCURVE",
"119 416 QCURVE",
"117 407 OFFCURVE",
"113 407 QCURVE SMOOTH",
"84 407 LINE SMOOTH",
"69 407 OFFCURVE",
"36 373 OFFCURVE",
"36 364 QCURVE SMOOTH",
"36 361 OFFCURVE",
"38 361 QCURVE SMOOTH",
"103 361 LINE SMOOTH",
"106 361 OFFCURVE",
"106 356 QCURVE SMOOTH",
"106 354 LINE",
"46 15 LINE SMOOTH",
"42 -10 OFFCURVE",
"24 -74 OFFCURVE",
"-4 -145 OFFCURVE",
"-42 -192 OFFCURVE",
"-61 -192 QCURVE SMOOTH",
"-75 -192 OFFCURVE",
"-98 -173 OFFCURVE",
"-110 -150 OFFCURVE",
"-126 -131 OFFCURVE",
"-135 -131 QCURVE SMOOTH",
"-153 -131 OFFCURVE",
"-177 -167 OFFCURVE",
"-176 -190 QCURVE",
"-171 -206 OFFCURVE",
"-130 -231 OFFCURVE",
"-95 -231 QCURVE SMOOTH",
"-62 -231 OFFCURVE",
"4 -197 OFFCURVE",
"62 -129 OFFCURVE",
"109 -17 OFFCURVE",
"121 54 QCURVE SMOOTH",
"176 353 LINE",
"177 361 OFFCURVE",
"182 361 QCURVE SMOOTH",
"299 361 LINE",
"310 379 OFFCURVE",
"310 395 QCURVE SMOOTH",
"310 407 OFFCURVE",
"305 407 QCURVE SMOOTH",
"190 407 LINE SMOOTH",
"187 407 OFFCURVE",
"187 411 QCURVE SMOOTH",
"187 413 LINE",
"229 661 OFFCURVE",
"329 661 QCURVE SMOOTH",
"366 661 OFFCURVE",
"420 621 OFFCURVE",
"420 589 QCURVE SMOOTH",
"420 584 OFFCURVE",
"415 559 QCURVE SMOOTH",
"336 158 LINE SMOOTH"
);
}
);
width = 723;
}
);
leftKerningGroup = f;
note = f_b;
rightKerningGroup = b;
},
{
glyphname = f_f;
lastChange = "2018-03-12 14:51:37 +0000";
layers = (
{
layerId = "14E94935-86A2-4797-A25C-C4BEBC72BEDE";
paths = (
{
closed = 1;
nodes = (
"117 407 OFFCURVE",
"113 407 QCURVE SMOOTH",
"84 407 LINE SMOOTH",
"69 407 OFFCURVE",
"36 373 OFFCURVE",
"36 364 QCURVE SMOOTH",
"36 361 OFFCURVE",
"38 361 QCURVE SMOOTH",
"103 361 LINE SMOOTH",
"106 361 OFFCURVE",
"106 356 QCURVE SMOOTH",
"106 354 LINE",
"53 46 LINE SMOOTH",
"45 -8 OFFCURVE",
"44 -10 QCURVE",
"38 -44 OFFCURVE",
"6 -127 OFFCURVE",
"-42 -192 OFFCURVE",
"-63 -192 QCURVE SMOOTH",
"-75 -192 OFFCURVE",
"-93 -180 OFFCURVE",
"-104 -162 OFFCURVE",
"-113 -144 OFFCURVE",
"-127 -131 OFFCURVE",
"-136 -131 QCURVE SMOOTH",
"-156 -131 OFFCURVE",
"-176 -169 OFFCURVE",
"-176 -191 QCURVE",
"-154 -233 OFFCURVE",
"-93 -233 QCURVE SMOOTH",
"-62 -233 OFFCURVE",
"4 -204 OFFCURVE",
"29 -175 QCURVE",
"41 -192 OFFCURVE",
"90 -224 OFFCURVE",
"125 -224 QCURVE SMOOTH",
"146 -224 OFFCURVE",
"200 -204 OFFCURVE",
"265 -153 OFFCURVE",
"324 -81 OFFCURVE",
"376 36 OFFCURVE",
"389 106 QCURVE SMOOTH",
"432 353 LINE",
"433 357 OFFCURVE",
"435 361 OFFCURVE",
"436 361 OFFCURVE",
"438 361 QCURVE SMOOTH",
"555 361 LINE",
"566 379 OFFCURVE",
"566 395 QCURVE SMOOTH",
"566 407 OFFCURVE",
"561 407 QCURVE SMOOTH",
"446 407 LINE SMOOTH",
"443 407 OFFCURVE",
"443 411 QCURVE SMOOTH",
"443 413 LINE",
"445 425 OFFCURVE",
"452 456 OFFCURVE",
"466 520 OFFCURVE",
"487 575 OFFCURVE",
"514 629 OFFCURVE",
"552 661 OFFCURVE",
"572 661 QCURVE SMOOTH",
"583 661 OFFCURVE",
"604 642 OFFCURVE",
"618 619 OFFCURVE",
"638 600 OFFCURVE",
"649 600 QCURVE SMOOTH",
"685 600 OFFCURVE",
"685 665 QCURVE",
"667 699 OFFCURVE",
"603 699 QCURVE SMOOTH",
"574 699 OFFCURVE",
"500 671 OFFCURVE",
"481 653 QCURVE",
"469 665 OFFCURVE",
"409 683 OFFCURVE",
"371 683 QCURVE SMOOTH",
"296 683 OFFCURVE",
"142 533 OFFCURVE",
"119 416 QCURVE SMOOTH"
);
},
{
closed = 1;
nodes = (
"76 -113 LINE SMOOTH",
"75 -110 OFFCURVE",
"75 -108 QCURVE SMOOTH",
"75 -104 OFFCURVE",
"76 -103 QCURVE",
"104 -49 OFFCURVE",
"121 43 QCURVE SMOOTH",
"176 353 LINE",
"177 357 OFFCURVE",
"179 361 OFFCURVE",
"180 361 OFFCURVE",
"182 361 QCURVE SMOOTH",
"359 361 LINE SMOOTH",
"362 361 OFFCURVE",
"362 356 QCURVE SMOOTH",
"362 354 LINE",
"311 60 LINE",
"286 -61 OFFCURVE",
"212 -165 OFFCURVE",
"153 -165 QCURVE SMOOTH",
"123 -165 OFFCURVE",
"80 -133 OFFCURVE",
"76 -116 QCURVE"
);
},
{
closed = 1;
nodes = (
"431 594 LINE SMOOTH",
"431 591 OFFCURVE",
"431 589 QCURVE SMOOTH",
"431 585 OFFCURVE",
"430 584 QCURVE",
"416 559 OFFCURVE",
"384 461 OFFCURVE",
"375 416 QCURVE SMOOTH",
"373 407 OFFCURVE",
"369 407 QCURVE SMOOTH",
"191 407 LINE SMOOTH",
"187 407 OFFCURVE",
"187 411 QCURVE SMOOTH",
"187 413 LINE",
"191 434 OFFCURVE",
"194 454 QCURVE SMOOTH",
"211 538 OFFCURVE",
"295 645 OFFCURVE",
"350 645 QCURVE SMOOTH",
"380 645 OFFCURVE",
"427 614 OFFCURVE",
"430 597 QCURVE"
);
}
);
width = 554;
}
);
leftKerningGroup = f;
note = f_f;
rightKerningGroup = f;
unicode = FB00;
},
{
glyphname = f_f_b;
lastChange = "2018-03-12 14:51:38 +0000";
layers = (
{
layerId = "14E94935-86A2-4797-A25C-C4BEBC72BEDE";
paths = (
{
closed = 1;
nodes = (
"861 271 OFFCURVE",
"837 179 OFFCURVE",
"799 90 OFFCURVE",
"741 27 OFFCURVE",
"711 27 QCURVE SMOOTH",
"676 27 OFFCURVE",
"653 95 OFFCURVE",
"665 156 QCURVE SMOOTH",
"673 196 OFFCURVE",
"712 279 OFFCURVE",
"759 341 OFFCURVE",
"806 380 OFFCURVE",
"822 380 QCURVE SMOOTH",
"835 380 OFFCURVE",
"851 367 OFFCURVE",
"859 342 OFFCURVE",
"861 319 OFFCURVE",
"861 302 QCURVE SMOOTH"
);
},
{
closed = 1;
nodes = (
"596 158 LINE SMOOTH",
"590 122 OFFCURVE",
"590 111 QCURVE SMOOTH",
"590 56 OFFCURVE",
"641 -6 OFFCURVE",
"683 -6 QCURVE SMOOTH",
"723 -6 OFFCURVE",
"812 47 OFFCURVE",
"887 134 OFFCURVE",
"935 258 OFFCURVE",
"935 322 QCURVE SMOOTH",
"935 375 OFFCURVE",
"899 435 OFFCURVE",
"865 435 QCURVE SMOOTH",
"852 435 OFFCURVE",
"816 420 OFFCURVE",
"769 389 OFFCURVE",
"715 327 OFFCURVE",
"690 285 QCURVE",
"752 591 LINE SMOOTH",
"763 646 OFFCURVE",
"781 678 QCURVE",
"781 694 OFFCURVE",
"776 694 QCURVE SMOOTH",
"773 694 OFFCURVE",
"716 678 OFFCURVE",
"703 678 QCURVE SMOOTH",
"702 678 OFFCURVE",
"640 699 OFFCURVE",
"608 699 QCURVE SMOOTH",
"579 699 OFFCURVE",
"499 670 OFFCURVE",
"481 653 QCURVE",
"469 665 OFFCURVE",
"409 683 OFFCURVE",
"371 683 QCURVE SMOOTH",
"296 683 OFFCURVE",
"142 533 OFFCURVE",
"119 416 QCURVE SMOOTH",
"117 407 OFFCURVE",
"113 407 QCURVE SMOOTH",
"84 407 LINE SMOOTH",
"69 407 OFFCURVE",
"36 373 OFFCURVE",
"36 364 QCURVE SMOOTH",
"36 361 OFFCURVE",
"38 361 QCURVE SMOOTH",
"103 361 LINE SMOOTH",
"106 361 OFFCURVE",
"106 356 QCURVE SMOOTH",
"106 354 LINE",
"53 46 LINE SMOOTH",
"45 -8 OFFCURVE",
"44 -10 QCURVE",
"38 -44 OFFCURVE",
"6 -127 OFFCURVE",
"-42 -192 OFFCURVE",
"-63 -192 QCURVE SMOOTH",
"-75 -192 OFFCURVE",
"-93 -180 OFFCURVE",
"-104 -162 OFFCURVE",
"-113 -144 OFFCURVE",
"-127 -131 OFFCURVE",
"-136 -131 QCURVE SMOOTH",
"-156 -131 OFFCURVE",
"-176 -169 OFFCURVE",
"-176 -191 QCURVE",
"-154 -233 OFFCURVE",
"-93 -233 QCURVE SMOOTH",
"-62 -233 OFFCURVE",
"4 -204 OFFCURVE",
"29 -175 QCURVE",
"41 -192 OFFCURVE",
"90 -224 OFFCURVE",
"125 -224 QCURVE SMOOTH",
"146 -224 OFFCURVE",
"200 -204 OFFCURVE",
"265 -153 OFFCURVE",
"324 -81 OFFCURVE",
"376 36 OFFCURVE",
"389 106 QCURVE SMOOTH",
"437 353 LINE",
"439 361 OFFCURVE",
"443 361 QCURVE SMOOTH",
"560 361 LINE",
"571 379 OFFCURVE",
"571 395 QCURVE SMOOTH",
"571 407 OFFCURVE",
"566 407 QCURVE SMOOTH",
"451 407 LINE SMOOTH",
"448 407 OFFCURVE",
"448 411 QCURVE SMOOTH",
"448 413 LINE",
"490 661 OFFCURVE",
"590 661 QCURVE SMOOTH",
"627 661 OFFCURVE",
"681 621 OFFCURVE",
"681 589 QCURVE",
"675 559 LINE"
);
},
{
closed = 1;
nodes = (
"76 -113 LINE SMOOTH",
"75 -110 OFFCURVE",
"75 -108 QCURVE SMOOTH",
"75 -104 OFFCURVE",
"76 -103 QCURVE",
"104 -49 OFFCURVE",
"121 43 QCURVE SMOOTH",
"176 353 LINE",
"177 357 OFFCURVE",
"179 361 OFFCURVE",
"180 361 OFFCURVE",
"182 361 QCURVE SMOOTH",
"359 361 LINE SMOOTH",
"362 361 OFFCURVE",
"362 356 QCURVE SMOOTH",
"362 354 LINE",
"311 60 LINE SMOOTH",
"299 2 OFFCURVE",
"257 -92 OFFCURVE",
"208 -148 OFFCURVE",
"159 -177 OFFCURVE",
"136 -177 QCURVE SMOOTH",
"121 -177 OFFCURVE",
"98 -164 OFFCURVE",
"85 -143 OFFCURVE",
"78 -126 OFFCURVE",
"76 -116 QCURVE"
);
},
{
closed = 1;
nodes = (
"431 594 LINE SMOOTH",
"431 591 OFFCURVE",
"431 589 QCURVE SMOOTH",
"431 585 OFFCURVE",
"430 584 QCURVE",
"416 559 OFFCURVE",
"384 461 OFFCURVE",
"375 416 QCURVE SMOOTH",
"373 407 OFFCURVE",
"369 407 QCURVE SMOOTH",
"191 407 LINE SMOOTH",
"187 407 OFFCURVE",
"187 411 QCURVE SMOOTH",
"187 413 LINE",
"191 434 OFFCURVE",
"194 454 QCURVE SMOOTH",
"211 538 OFFCURVE",
"295 645 OFFCURVE",
"350 645 QCURVE SMOOTH",
"380 645 OFFCURVE",
"427 614 OFFCURVE",
"430 597 QCURVE"
);
}
);
width = 985;
}
);
leftKerningGroup = f;
note = f_f_b;
rightKerningGroup = b;
},
{
glyphname = f_f_h;
lastChange = "2018-03-12 14:51:38 +0000";
layers = (
{
layerId = "14E94935-86A2-4797-A25C-C4BEBC72BEDE";
paths = (
{
closed = 1;
nodes = (
"579 699 OFFCURVE",
"499 670 OFFCURVE",
"481 653 QCURVE",
"469 665 OFFCURVE",
"409 683 OFFCURVE",
"371 683 QCURVE SMOOTH",
"296 683 OFFCURVE",
"142 533 OFFCURVE",
"119 416 QCURVE SMOOTH",
"117 407 OFFCURVE",
"113 407 QCURVE SMOOTH",
"84 407 LINE SMOOTH",
"69 407 OFFCURVE",
"36 373 OFFCURVE",
"36 364 QCURVE SMOOTH",
"36 361 OFFCURVE",
"38 361 QCURVE SMOOTH",
"103 361 LINE SMOOTH",
"106 361 OFFCURVE",
"106 356 QCURVE SMOOTH",
"106 354 LINE",
"53 46 LINE SMOOTH",
"45 -8 OFFCURVE",
"44 -10 QCURVE",
"38 -44 OFFCURVE",
"6 -127 OFFCURVE",
"-42 -192 OFFCURVE",
"-63 -192 QCURVE SMOOTH",
"-75 -192 OFFCURVE",
"-93 -180 OFFCURVE",
"-104 -162 OFFCURVE",
"-113 -144 OFFCURVE",
"-127 -131 OFFCURVE",
"-136 -131 QCURVE SMOOTH",
"-156 -131 OFFCURVE",
"-176 -169 OFFCURVE",
"-176 -191 QCURVE",
"-154 -233 OFFCURVE",
"-93 -233 QCURVE SMOOTH",
"-62 -233 OFFCURVE",
"4 -204 OFFCURVE",
"29 -175 QCURVE",
"41 -192 OFFCURVE",
"90 -224 OFFCURVE",
"125 -224 QCURVE SMOOTH",
"146 -224 OFFCURVE",
"200 -204 OFFCURVE",
"265 -153 OFFCURVE",
"324 -81 OFFCURVE",
"376 36 OFFCURVE",
"389 106 QCURVE SMOOTH",
"437 353 LINE",
"439 361 OFFCURVE",
"443 361 QCURVE SMOOTH",
"560 361 LINE",
"571 379 OFFCURVE",
"571 395 QCURVE SMOOTH",
"571 407 OFFCURVE",
"566 407 QCURVE SMOOTH",
"451 407 LINE SMOOTH",
"448 407 OFFCURVE",
"448 411 QCURVE SMOOTH",
"448 413 LINE",
"490 661 OFFCURVE",
"590 661 QCURVE SMOOTH",
"627 661 OFFCURVE",
"683 620 OFFCURVE",
"683 589 QCURVE SMOOTH",
"683 579 OFFCURVE",
"679 559 QCURVE SMOOTH",
"571 0 LINE",
"587 -4 OFFCURVE",
"605 -4 QCURVE SMOOTH",
"628 -4 OFFCURVE",
"641 0 QCURVE",
"659 83 OFFCURVE",
"666 119 QCURVE SMOOTH",
"674 161 OFFCURVE",
"723 251 OFFCURVE",
"779 318 OFFCURVE",
"832 361 OFFCURVE",
"845 361 QCURVE SMOOTH",
"857 361 OFFCURVE",
"864 339 OFFCURVE",
"864 318 QCURVE SMOOTH",
"864 296 OFFCURVE",
"857 264 QCURVE SMOOTH",
"822 99 LINE SMOOTH",
"815 70 OFFCURVE",
"815 46 QCURVE SMOOTH",
"815 23 OFFCURVE",
"833 -6 OFFCURVE",
"849 -6 QCURVE SMOOTH",
"880 -6 OFFCURVE",
"968 67 OFFCURVE",
"980 88 QCURVE",
"980 93 OFFCURVE",
"973 107 OFFCURVE",
"970 107 QCURVE",
"965 102 LINE SMOOTH",
"960 97 OFFCURVE",
"950 85 OFFCURVE",
"934 70 OFFCURVE",
"920 58 OFFCURVE",
"905 49 OFFCURVE",
"900 49 QCURVE SMOOTH",
"890 49 OFFCURVE",
"890 74 QCURVE SMOOTH",
"890 90 OFFCURVE",
"894 106 QCURVE SMOOTH",
"927 260 LINE SMOOTH",
"941 327 OFFCURVE",
"941 369 QCURVE SMOOTH",
"941 399 OFFCURVE",
"914 435 OFFCURVE",
"886 435 QCURVE SMOOTH",
"868 435 OFFCURVE",
"816 399 OFFCURVE",
"767 347 OFFCURVE",
"721 290 OFFCURVE",
"692 247 OFFCURVE",
"687 238 QCURVE",
"705 330 LINE",
"756 591 LINE SMOOTH",
"767 646 OFFCURVE",
"787 678 QCURVE",
"787 694 OFFCURVE",
"782 694 QCURVE SMOOTH",
"779 694 OFFCURVE",
"716 678 OFFCURVE",
"703 678 QCURVE SMOOTH",
"702 678 OFFCURVE",
"640 699 OFFCURVE",
"608 699 QCURVE SMOOTH"
);
},
{
closed = 1;
nodes = (
"76 -113 LINE SMOOTH",
"75 -110 OFFCURVE",
"75 -108 QCURVE SMOOTH",
"75 -104 OFFCURVE",
"76 -103 QCURVE",
"104 -49 OFFCURVE",
"121 43 QCURVE SMOOTH",
"176 353 LINE",
"177 357 OFFCURVE",
"179 361 OFFCURVE",
"180 361 OFFCURVE",
"182 361 QCURVE SMOOTH",
"359 361 LINE SMOOTH",
"362 361 OFFCURVE",
"362 356 QCURVE SMOOTH",
"362 354 LINE",
"311 60 LINE SMOOTH",
"299 2 OFFCURVE",
"257 -92 OFFCURVE",
"208 -148 OFFCURVE",
"159 -177 OFFCURVE",
"136 -177 QCURVE SMOOTH",
"121 -177 OFFCURVE",
"98 -164 OFFCURVE",
"85 -143 OFFCURVE",
"78 -126 OFFCURVE",
"76 -116 QCURVE"
);
},
{
closed = 1;
nodes = (
"431 594 LINE SMOOTH",
"431 591 OFFCURVE",
"431 589 QCURVE SMOOTH",
"431 585 OFFCURVE",
"430 584 QCURVE",
"416 559 OFFCURVE",
"384 461 OFFCURVE",
"375 416 QCURVE SMOOTH",
"373 407 OFFCURVE",
"369 407 QCURVE SMOOTH",
"191 407 LINE SMOOTH",
"187 407 OFFCURVE",
"187 411 QCURVE SMOOTH",
"187 413 LINE",
"191 434 OFFCURVE",
"194 454 QCURVE SMOOTH",
"211 538 OFFCURVE",
"295 645 OFFCURVE",
"350 645 QCURVE SMOOTH",
"380 645 OFFCURVE",
"427 614 OFFCURVE",
"430 597 QCURVE"
);
}
);
width = 1013;
}
);
leftKerningGroup = f;
note = f_f_h;
rightKerningGroup = h;
},
{
glyphname = f_f_i;
lastChange = "2018-03-12 14:51:37 +0000";
layers = (
{
layerId = "14E94935-86A2-4797-A25C-C4BEBC72BEDE";
paths = (
{
closed = 1;
nodes = (
"616 314 OFFCURVE",
"613 293 QCURVE",
"569 99 LINE SMOOTH",
"562 70 OFFCURVE",
"562 46 QCURVE SMOOTH",
"562 23 OFFCURVE",
"581 -6 OFFCURVE",
"596 -6 QCURVE SMOOTH",
"627 -6 OFFCURVE",
"715 67 OFFCURVE",
"727 88 QCURVE",
"727 93 OFFCURVE",
"720 107 OFFCURVE",
"717 107 QCURVE",
"712 102 LINE SMOOTH",
"707 97 OFFCURVE",
"697 85 OFFCURVE",
"681 70 OFFCURVE",
"667 58 OFFCURVE",
"652 49 OFFCURVE",
"647 49 QCURVE SMOOTH",
"637 49 OFFCURVE",
"637 74 QCURVE SMOOTH",
"637 86 OFFCURVE",
"641 106 QCURVE SMOOTH",
"692 330 LINE SMOOTH",
"695 344 OFFCURVE",
"700 394 OFFCURVE",
"700 401 QCURVE SMOOTH",
"700 407 OFFCURVE",
"690 418 OFFCURVE",
"686 418 QCURVE SMOOTH",
"655 418 OFFCURVE",
"592 412 QCURVE",
"446 407 LINE SMOOTH",
"443 407 OFFCURVE",
"443 411 QCURVE SMOOTH",
"443 413 LINE",
"445 425 OFFCURVE",
"452 457 OFFCURVE",
"467 519 OFFCURVE",
"488 575 OFFCURVE",
"515 629 OFFCURVE",
"552 661 OFFCURVE",
"572 661 QCURVE SMOOTH",
"578 661 OFFCURVE",
"588 659 OFFCURVE",
"596 656 OFFCURVE",
"605 650 OFFCURVE",
"610 646 OFFCURVE",
"618 637 OFFCURVE",
"621 632 OFFCURVE",
"628 621 OFFCURVE",
"631 617 OFFCURVE",
"637 605 OFFCURVE",
"638 603 QCURVE",
"644 593 OFFCURVE",
"650 585 OFFCURVE",
"661 572 OFFCURVE",
"673 566 OFFCURVE",
"681 566 QCURVE SMOOTH",
"703 566 OFFCURVE",
"726 606 OFFCURVE",
"726 630 QCURVE",
"718 650 OFFCURVE",
"694 672 QCURVE SMOOTH",
"680 685 OFFCURVE",
"645 699 OFFCURVE",
"608 699 QCURVE SMOOTH",
"579 699 OFFCURVE",
"499 670 OFFCURVE",
"481 653 QCURVE",
"469 665 OFFCURVE",
"409 683 OFFCURVE",
"371 683 QCURVE SMOOTH",
"296 683 OFFCURVE",
"142 533 OFFCURVE",
"119 416 QCURVE SMOOTH",
"117 407 OFFCURVE",
"113 407 QCURVE SMOOTH",
"84 407 LINE SMOOTH",
"69 407 OFFCURVE",
"36 373 OFFCURVE",
"36 364 QCURVE SMOOTH",
"36 361 OFFCURVE",
"38 361 QCURVE SMOOTH",
"103 361 LINE SMOOTH",
"106 361 OFFCURVE",
"106 356 QCURVE SMOOTH",
"106 354 LINE",
"53 46 LINE SMOOTH",
"45 -8 OFFCURVE",
"44 -10 QCURVE",
"38 -44 OFFCURVE",
"6 -127 OFFCURVE",
"-42 -192 OFFCURVE",
"-63 -192 QCURVE SMOOTH",
"-75 -192 OFFCURVE",
"-93 -180 OFFCURVE",
"-104 -162 OFFCURVE",
"-113 -144 OFFCURVE",
"-127 -131 OFFCURVE",
"-136 -131 QCURVE SMOOTH",
"-156 -131 OFFCURVE",
"-176 -169 OFFCURVE",
"-176 -191 QCURVE",
"-154 -233 OFFCURVE",
"-93 -233 QCURVE SMOOTH",
"-62 -233 OFFCURVE",
"4 -204 OFFCURVE",
"29 -175 QCURVE",
"41 -192 OFFCURVE",
"90 -224 OFFCURVE",
"125 -224 QCURVE SMOOTH",
"146 -224 OFFCURVE",
"200 -204 OFFCURVE",
"265 -153 OFFCURVE",
"324 -81 OFFCURVE",
"376 36 OFFCURVE",
"389 106 QCURVE SMOOTH",
"432 353 LINE",
"433 357 OFFCURVE",
"435 361 OFFCURVE",
"436 361 OFFCURVE",
"438 361 QCURVE SMOOTH",
"590 366 LINE SMOOTH",
"603 366 OFFCURVE",
"616 340 OFFCURVE",
"616 321 QCURVE SMOOTH"
);
},
{
closed = 1;
nodes = (
"75 -110 OFFCURVE",
"75 -108 QCURVE SMOOTH",
"75 -104 OFFCURVE",
"76 -103 QCURVE",
"104 -49 OFFCURVE",
"121 43 QCURVE SMOOTH",
"176 353 LINE",
"177 357 OFFCURVE",
"179 361 OFFCURVE",
"180 361 OFFCURVE",
"182 361 QCURVE SMOOTH",
"359 361 LINE SMOOTH",
"362 361 OFFCURVE",
"362 356 QCURVE SMOOTH",
"362 354 LINE",
"311 60 LINE SMOOTH",
"299 2 OFFCURVE",
"257 -92 OFFCURVE",
"208 -148 OFFCURVE",
"159 -177 OFFCURVE",
"136 -177 QCURVE SMOOTH",
"121 -177 OFFCURVE",
"98 -164 OFFCURVE",
"85 -143 OFFCURVE",
"78 -126 OFFCURVE",
"76 -116 QCURVE",
"76 -113 LINE SMOOTH"
);
},
{
closed = 1;
nodes = (
"431 594 LINE SMOOTH",
"431 591 OFFCURVE",
"431 589 QCURVE SMOOTH",
"431 585 OFFCURVE",
"430 584 QCURVE",
"416 559 OFFCURVE",
"384 461 OFFCURVE",
"375 416 QCURVE SMOOTH",
"373 407 OFFCURVE",
"369 407 QCURVE SMOOTH",
"191 407 LINE SMOOTH",
"187 407 OFFCURVE",
"187 411 QCURVE SMOOTH",
"187 413 LINE",
"191 434 OFFCURVE",
"194 454 QCURVE SMOOTH",
"211 538 OFFCURVE",
"295 645 OFFCURVE",
"350 645 QCURVE SMOOTH",
"380 645 OFFCURVE",
"427 614 OFFCURVE",
"430 597 QCURVE"
);
}
);
width = 781;
}
);
leftKerningGroup = f;
note = f_f_i;
rightKerningGroup = i;
unicode = FB03;
},
{
glyphname = f_f_j;
lastChange = "2018-03-12 14:51:38 +0000";
layers = (
{
layerId = "14E94935-86A2-4797-A25C-C4BEBC72BEDE";
paths = (
{
closed = 1;
nodes = (
"580 411 OFFCURVE",
"468 407 OFFCURVE",
"446 407 QCURVE SMOOTH",
"443 407 OFFCURVE",
"443 411 QCURVE SMOOTH",
"443 413 LINE",
"445 425 OFFCURVE",
"452 457 OFFCURVE",
"467 519 OFFCURVE",
"488 575 OFFCURVE",
"515 629 OFFCURVE",
"552 661 OFFCURVE",
"572 661 QCURVE SMOOTH",
"578 661 OFFCURVE",
"588 659 OFFCURVE",
"596 656 OFFCURVE",
"605 650 OFFCURVE",
"610 646 OFFCURVE",
"618 637 OFFCURVE",
"621 632 OFFCURVE",
"628 621 OFFCURVE",
"631 617 OFFCURVE",
"637 605 OFFCURVE",
"638 603 QCURVE",
"644 593 OFFCURVE",
"650 585 OFFCURVE",
"661 572 OFFCURVE",
"673 566 OFFCURVE",
"681 566 QCURVE SMOOTH",
"703 566 OFFCURVE",
"726 606 OFFCURVE",
"726 630 QCURVE",
"718 650 OFFCURVE",
"694 672 QCURVE SMOOTH",
"680 685 OFFCURVE",
"645 699 OFFCURVE",
"608 699 QCURVE SMOOTH",
"579 699 OFFCURVE",
"499 670 OFFCURVE",
"481 653 QCURVE",
"469 665 OFFCURVE",
"409 683 OFFCURVE",
"371 683 QCURVE SMOOTH",
"296 683 OFFCURVE",
"142 533 OFFCURVE",
"119 416 QCURVE SMOOTH",
"117 407 OFFCURVE",
"113 407 QCURVE SMOOTH",
"84 407 LINE SMOOTH",
"69 407 OFFCURVE",
"36 373 OFFCURVE",
"36 364 QCURVE SMOOTH",
"36 361 OFFCURVE",
"38 361 QCURVE SMOOTH",
"103 361 LINE SMOOTH",
"106 361 OFFCURVE",
"106 356 QCURVE SMOOTH",
"106 354 LINE",
"53 46 LINE SMOOTH",
"45 -8 OFFCURVE",
"44 -10 QCURVE",
"38 -44 OFFCURVE",
"6 -127 OFFCURVE",
"-42 -192 OFFCURVE",
"-63 -192 QCURVE SMOOTH",
"-75 -192 OFFCURVE",
"-93 -180 OFFCURVE",
"-104 -162 OFFCURVE",
"-113 -144 OFFCURVE",
"-127 -131 OFFCURVE",
"-136 -131 QCURVE SMOOTH",
"-156 -131 OFFCURVE",
"-176 -169 OFFCURVE",
"-176 -191 QCURVE",
"-154 -233 OFFCURVE",
"-93 -233 QCURVE SMOOTH",
"-62 -233 OFFCURVE",
"4 -204 OFFCURVE",
"29 -175 QCURVE",
"41 -192 OFFCURVE",
"90 -224 OFFCURVE",
"125 -224 QCURVE SMOOTH",
"146 -224 OFFCURVE",
"200 -204 OFFCURVE",
"265 -153 OFFCURVE",
"324 -81 OFFCURVE",
"376 36 OFFCURVE",
"389 106 QCURVE SMOOTH",
"432 353 LINE",
"433 357 OFFCURVE",
"435 361 OFFCURVE",
"436 361 OFFCURVE",
"438 361 QCURVE SMOOTH",
"590 366 LINE SMOOTH",
"603 366 OFFCURVE",
"616 340 OFFCURVE",
"616 321 QCURVE SMOOTH",
"616 305 OFFCURVE",
"613 293 QCURVE",
"559 22 LINE SMOOTH",
"543 -61 OFFCURVE",
"468 -187 OFFCURVE",
"417 -215 QCURVE",
"417 -220 OFFCURVE",
"423 -233 OFFCURVE",
"426 -235 QCURVE",
"456 -223 OFFCURVE",
"536 -162 OFFCURVE",
"565 -124 QCURVE SMOOTH",
"594 -86 OFFCURVE",
"629 8 OFFCURVE",
"636 45 QCURVE SMOOTH",
"691 330 LINE",
"700 393 OFFCURVE",
"700 401 QCURVE SMOOTH",
"700 407 OFFCURVE",
"690 418 OFFCURVE",
"686 418 QCURVE SMOOTH",
"655 418 OFFCURVE",
"592 412 QCURVE SMOOTH"
);
},
{
closed = 1;
nodes = (
"75 -110 OFFCURVE",
"75 -108 QCURVE SMOOTH",
"75 -104 OFFCURVE",
"76 -103 QCURVE",
"104 -49 OFFCURVE",
"121 43 QCURVE SMOOTH",
"176 353 LINE",
"177 357 OFFCURVE",
"179 361 OFFCURVE",
"180 361 OFFCURVE",
"182 361 QCURVE SMOOTH",
"359 361 LINE SMOOTH",
"362 361 OFFCURVE",
"362 356 QCURVE SMOOTH",
"362 354 LINE",
"311 60 LINE SMOOTH",
"299 2 OFFCURVE",
"257 -92 OFFCURVE",
"208 -148 OFFCURVE",
"159 -177 OFFCURVE",
"136 -177 QCURVE SMOOTH",
"121 -177 OFFCURVE",
"98 -164 OFFCURVE",
"85 -143 OFFCURVE",
"78 -126 OFFCURVE",
"76 -116 QCURVE",
"76 -113 LINE SMOOTH"
);
},
{
closed = 1;
nodes = (
"431 594 LINE SMOOTH",
"431 591 OFFCURVE",
"431 589 QCURVE SMOOTH",
"431 585 OFFCURVE",
"430 584 QCURVE",
"416 559 OFFCURVE",
"384 461 OFFCURVE",
"375 416 QCURVE SMOOTH",
"373 407 OFFCURVE",
"369 407 QCURVE SMOOTH",
"191 407 LINE SMOOTH",
"187 407 OFFCURVE",
"187 411 QCURVE SMOOTH",
"187 413 LINE",
"191 434 OFFCURVE",
"194 454 QCURVE SMOOTH",
"211 538 OFFCURVE",
"295 645 OFFCURVE",
"350 645 QCURVE SMOOTH",
"380 645 OFFCURVE",
"427 614 OFFCURVE",
"430 597 QCURVE"
);
}
);
width = 743;
}
);
leftKerningGroup = f;
note = f_f_j;
rightKerningGroup = j;
},
{
glyphname = f_f_k;
lastChange = "2018-03-12 14:51:38 +0000";
layers = (
{
layerId = "14E94935-86A2-4797-A25C-C4BEBC72BEDE";
paths = (
{
closed = 1;
nodes = (
"870 330 OFFCURVE",
"845 289 OFFCURVE",
"805 260 OFFCURVE",
"755 240 OFFCURVE",
"707 230 OFFCURVE",
"686 230 QCURVE",
"696 279 OFFCURVE",
"796 388 OFFCURVE",
"837 388 QCURVE SMOOTH",
"856 388 OFFCURVE",
"870 370 OFFCURVE",
"870 354 QCURVE SMOOTH"
);
},
{
closed = 1;
nodes = (
"579 699 OFFCURVE",
"499 670 OFFCURVE",
"481 653 QCURVE",
"469 665 OFFCURVE",
"409 683 OFFCURVE",
"371 683 QCURVE SMOOTH",
"296 683 OFFCURVE",
"142 533 OFFCURVE",
"119 416 QCURVE SMOOTH",
"117 407 OFFCURVE",
"113 407 QCURVE SMOOTH",
"84 407 LINE SMOOTH",
"69 407 OFFCURVE",
"36 373 OFFCURVE",
"36 364 QCURVE SMOOTH",
"36 361 OFFCURVE",
"38 361 QCURVE SMOOTH",
"103 361 LINE SMOOTH",
"106 361 OFFCURVE",
"106 356 QCURVE SMOOTH",
"106 354 LINE",
"53 46 LINE SMOOTH",
"45 -8 OFFCURVE",
"44 -10 QCURVE",
"38 -44 OFFCURVE",
"6 -127 OFFCURVE",
"-42 -192 OFFCURVE",
"-63 -192 QCURVE SMOOTH",
"-75 -192 OFFCURVE",
"-93 -180 OFFCURVE",
"-104 -162 OFFCURVE",
"-113 -144 OFFCURVE",
"-127 -131 OFFCURVE",
"-136 -131 QCURVE SMOOTH",
"-156 -131 OFFCURVE",
"-176 -169 OFFCURVE",
"-176 -191 QCURVE",
"-154 -233 OFFCURVE",
"-93 -233 QCURVE SMOOTH",
"-62 -233 OFFCURVE",
"4 -204 OFFCURVE",
"29 -175 QCURVE",
"41 -192 OFFCURVE",
"90 -224 OFFCURVE",
"125 -224 QCURVE SMOOTH",
"146 -224 OFFCURVE",
"200 -204 OFFCURVE",
"265 -153 OFFCURVE",
"324 -81 OFFCURVE",
"376 36 OFFCURVE",
"389 106 QCURVE SMOOTH",
"437 353 LINE",
"439 361 OFFCURVE",
"443 361 QCURVE SMOOTH",
"560 361 LINE",
"571 379 OFFCURVE",
"571 395 QCURVE SMOOTH",
"571 407 OFFCURVE",
"566 407 QCURVE SMOOTH",
"451 407 LINE SMOOTH",
"448 407 OFFCURVE",
"448 411 QCURVE SMOOTH",
"448 413 LINE",
"490 661 OFFCURVE",
"590 661 QCURVE SMOOTH",
"627 661 OFFCURVE",
"683 620 OFFCURVE",
"683 589 QCURVE SMOOTH",
"683 579 OFFCURVE",
"679 559 QCURVE SMOOTH",
"570 0 LINE",
"590 -5 OFFCURVE",
"606 -5 QCURVE SMOOTH",
"623 -5 OFFCURVE",
"641 0 QCURVE",
"678 191 LINE",
"686 179 OFFCURVE",
"715 126 OFFCURVE",
"735 90 OFFCURVE",
"766 44 OFFCURVE",
"794 16 OFFCURVE",
"831 -4 OFFCURVE",
"850 -4 QCURVE SMOOTH",
"879 -4 OFFCURVE",
"962 70 OFFCURVE",
"972 88 QCURVE",
"972 92 OFFCURVE",
"964 107 OFFCURVE",
"962 107 QCURVE",
"950 92 OFFCURVE",
"905 51 OFFCURVE",
"894 51 QCURVE SMOOTH",
"863 51 OFFCURVE",
"803 113 OFFCURVE",
"737 211 QCURVE",
"781 219 OFFCURVE",
"854 243 OFFCURVE",
"914 280 OFFCURVE",
"948 334 OFFCURVE",
"948 367 QCURVE SMOOTH",
"948 396 OFFCURVE",
"903 435 OFFCURVE",
"873 435 QCURVE SMOOTH",
"849 435 OFFCURVE",
"798 413 OFFCURVE",
"757 380 OFFCURVE",
"726 348 OFFCURVE",
"715 335 QCURVE SMOOTH",
"704 322 LINE",
"756 591 LINE SMOOTH",
"767 646 OFFCURVE",
"786 678 QCURVE",
"786 694 OFFCURVE",
"781 694 QCURVE SMOOTH",
"778 694 OFFCURVE",
"716 678 OFFCURVE",
"703 678 QCURVE SMOOTH",
"702 678 OFFCURVE",
"640 699 OFFCURVE",
"608 699 QCURVE SMOOTH"
);
},
{
closed = 1;
nodes = (
"76 -113 LINE SMOOTH",
"75 -110 OFFCURVE",
"75 -108 QCURVE SMOOTH",
"75 -104 OFFCURVE",
"76 -103 QCURVE",
"104 -49 OFFCURVE",
"121 43 QCURVE SMOOTH",
"176 353 LINE",
"177 357 OFFCURVE",
"179 361 OFFCURVE",
"180 361 OFFCURVE",
"182 361 QCURVE SMOOTH",
"359 361 LINE SMOOTH",
"362 361 OFFCURVE",
"362 356 QCURVE SMOOTH",
"362 354 LINE",
"311 60 LINE SMOOTH",
"299 2 OFFCURVE",
"257 -92 OFFCURVE",
"208 -148 OFFCURVE",
"159 -177 OFFCURVE",
"136 -177 QCURVE SMOOTH",
"121 -177 OFFCURVE",
"98 -164 OFFCURVE",
"85 -143 OFFCURVE",
"78 -126 OFFCURVE",
"76 -116 QCURVE"
);
},
{
closed = 1;
nodes = (
"431 594 LINE SMOOTH",
"431 591 OFFCURVE",
"431 589 QCURVE SMOOTH",
"431 585 OFFCURVE",
"430 584 QCURVE",
"416 559 OFFCURVE",
"384 461 OFFCURVE",
"375 416 QCURVE SMOOTH",
"373 407 OFFCURVE",
"369 407 QCURVE SMOOTH",
"191 407 LINE SMOOTH",
"187 407 OFFCURVE",
"187 411 QCURVE SMOOTH",
"187 413 LINE",
"191 434 OFFCURVE",
"194 454 QCURVE SMOOTH",
"211 538 OFFCURVE",
"295 645 OFFCURVE",
"350 645 QCURVE SMOOTH",
"380 645 OFFCURVE",
"427 614 OFFCURVE",
"430 597 QCURVE"
);
}
);
width = 1004;
}
);
leftKerningGroup = f;
note = f_f_k;
rightKerningGroup = k;
},
{
glyphname = f_f_l;
lastChange = "2018-03-12 14:51:37 +0000";
layers = (
{
layerId = "14E94935-86A2-4797-A25C-C4BEBC72BEDE";
paths = (
{
closed = 1;
nodes = (
"589 99 LINE SMOOTH",
"582 62 OFFCURVE",
"582 46 QCURVE SMOOTH",
"582 23 OFFCURVE",
"600 -6 OFFCURVE",
"616 -6 QCURVE SMOOTH",
"647 -6 OFFCURVE",
"735 67 OFFCURVE",
"747 88 QCURVE",
"747 93 OFFCURVE",
"740 107 OFFCURVE",
"737 107 QCURVE",
"732 102 LINE SMOOTH",
"727 97 OFFCURVE",
"717 85 OFFCURVE",
"701 70 OFFCURVE",
"687 58 OFFCURVE",
"672 49 OFFCURVE",
"667 49 QCURVE SMOOTH",
"657 49 OFFCURVE",
"657 74 QCURVE SMOOTH",
"657 90 OFFCURVE",
"661 106 QCURVE",
"756 591 LINE SMOOTH",
"767 646 OFFCURVE",
"786 678 QCURVE",
"786 694 OFFCURVE",
"781 694 QCURVE SMOOTH",
"778 694 OFFCURVE",
"716 678 OFFCURVE",
"703 678 QCURVE SMOOTH",
"702 678 OFFCURVE",
"640 699 OFFCURVE",
"608 699 QCURVE SMOOTH",
"579 699 OFFCURVE",
"499 670 OFFCURVE",
"481 653 QCURVE",
"469 665 OFFCURVE",
"409 683 OFFCURVE",
"371 683 QCURVE SMOOTH",
"296 683 OFFCURVE",
"142 533 OFFCURVE",
"119 416 QCURVE SMOOTH",
"117 407 OFFCURVE",
"113 407 QCURVE SMOOTH",
"84 407 LINE SMOOTH",
"69 407 OFFCURVE",
"36 373 OFFCURVE",
"36 364 QCURVE SMOOTH",
"36 361 OFFCURVE",
"38 361 QCURVE SMOOTH",
"103 361 LINE SMOOTH",
"106 361 OFFCURVE",
"106 356 QCURVE SMOOTH",
"106 354 LINE",
"53 46 LINE SMOOTH",
"45 -8 OFFCURVE",
"44 -10 QCURVE",
"38 -44 OFFCURVE",
"6 -127 OFFCURVE",
"-42 -192 OFFCURVE",
"-63 -192 QCURVE SMOOTH",
"-75 -192 OFFCURVE",
"-93 -180 OFFCURVE",
"-104 -162 OFFCURVE",
"-113 -144 OFFCURVE",
"-127 -131 OFFCURVE",
"-136 -131 QCURVE SMOOTH",
"-156 -131 OFFCURVE",
"-176 -169 OFFCURVE",
"-176 -191 QCURVE",
"-154 -233 OFFCURVE",
"-93 -233 QCURVE SMOOTH",
"-62 -233 OFFCURVE",
"4 -204 OFFCURVE",
"29 -175 QCURVE",
"41 -192 OFFCURVE",
"90 -224 OFFCURVE",
"125 -224 QCURVE SMOOTH",
"146 -224 OFFCURVE",
"200 -204 OFFCURVE",
"265 -153 OFFCURVE",
"324 -81 OFFCURVE",
"376 36 OFFCURVE",
"389 106 QCURVE SMOOTH",
"437 353 LINE",
"439 361 OFFCURVE",
"443 361 QCURVE SMOOTH",
"560 361 LINE",
"571 379 OFFCURVE",
"571 395 QCURVE SMOOTH",
"571 407 OFFCURVE",
"566 407 QCURVE SMOOTH",
"451 407 LINE SMOOTH",
"448 407 OFFCURVE",
"448 411 QCURVE SMOOTH",
"448 413 LINE",
"490 661 OFFCURVE",
"590 661 QCURVE SMOOTH",
"627 661 OFFCURVE",
"683 620 OFFCURVE",
"683 589 QCURVE SMOOTH",
"683 575 OFFCURVE",
"679 559 QCURVE"
);
},
{
closed = 1;
nodes = (
"76 -113 LINE SMOOTH",
"75 -110 OFFCURVE",
"75 -108 QCURVE SMOOTH",
"75 -104 OFFCURVE",
"76 -103 QCURVE",
"104 -49 OFFCURVE",
"121 43 QCURVE SMOOTH",
"176 353 LINE",
"177 357 OFFCURVE",
"179 361 OFFCURVE",
"180 361 OFFCURVE",
"182 361 QCURVE SMOOTH",
"359 361 LINE SMOOTH",
"362 361 OFFCURVE",
"362 356 QCURVE SMOOTH",
"362 354 LINE",
"311 60 LINE SMOOTH",
"299 2 OFFCURVE",
"257 -92 OFFCURVE",
"208 -148 OFFCURVE",
"159 -177 OFFCURVE",
"136 -177 QCURVE SMOOTH",
"121 -177 OFFCURVE",
"98 -164 OFFCURVE",
"85 -143 OFFCURVE",
"78 -126 OFFCURVE",
"76 -116 QCURVE"
);
},
{
closed = 1;
nodes = (
"431 594 LINE SMOOTH",
"431 591 OFFCURVE",
"431 589 QCURVE SMOOTH",
"431 585 OFFCURVE",
"430 584 QCURVE",
"416 559 OFFCURVE",
"384 461 OFFCURVE",
"375 416 QCURVE SMOOTH",
"373 407 OFFCURVE",
"369 407 QCURVE SMOOTH",
"191 407 LINE SMOOTH",
"187 407 OFFCURVE",
"187 411 QCURVE SMOOTH",
"187 413 LINE",
"191 434 OFFCURVE",
"194 454 QCURVE SMOOTH",
"211 538 OFFCURVE",
"295 645 OFFCURVE",
"350 645 QCURVE SMOOTH",
"380 645 OFFCURVE",
"427 614 OFFCURVE",
"430 597 QCURVE"
);
}
);
width = 791;
}
);
leftKerningGroup = f;
note = f_f_l;
rightKerningGroup = j;
unicode = FB04;
},
{
glyphname = f_h;
lastChange = "2018-03-12 14:51:38 +0000";
layers = (
{
layerId = "14E94935-86A2-4797-A25C-C4BEBC72BEDE";
paths = (
{
closed = 1;
nodes = (
"326 -4 OFFCURVE",
"344 -4 QCURVE SMOOTH",
"367 -4 OFFCURVE",
"380 0 QCURVE",
"398 83 OFFCURVE",
"405 119 QCURVE SMOOTH",
"413 161 OFFCURVE",
"462 251 OFFCURVE",
"518 318 OFFCURVE",
"571 361 OFFCURVE",
"584 361 QCURVE SMOOTH",
"596 361 OFFCURVE",
"603 339 OFFCURVE",
"603 318 QCURVE SMOOTH",
"603 296 OFFCURVE",
"596 264 QCURVE SMOOTH",
"561 99 LINE SMOOTH",
"554 70 OFFCURVE",
"554 46 QCURVE SMOOTH",
"554 23 OFFCURVE",
"572 -6 OFFCURVE",
"588 -6 QCURVE SMOOTH",
"619 -6 OFFCURVE",
"707 67 OFFCURVE",
"719 88 QCURVE",
"719 93 OFFCURVE",
"712 107 OFFCURVE",
"709 107 QCURVE",
"704 102 LINE SMOOTH",
"699 97 OFFCURVE",
"689 85 OFFCURVE",
"673 70 OFFCURVE",
"659 58 OFFCURVE",
"644 49 OFFCURVE",
"639 49 QCURVE SMOOTH",
"629 49 OFFCURVE",
"629 74 QCURVE SMOOTH",
"629 90 OFFCURVE",
"633 106 QCURVE SMOOTH",
"666 260 LINE SMOOTH",
"680 327 OFFCURVE",
"680 369 QCURVE SMOOTH",
"680 399 OFFCURVE",
"653 435 OFFCURVE",
"625 435 QCURVE SMOOTH",
"607 435 OFFCURVE",
"555 399 OFFCURVE",
"506 347 OFFCURVE",
"460 290 OFFCURVE",
"431 247 OFFCURVE",
"426 238 QCURVE",
"444 330 LINE",
"495 591 LINE SMOOTH",
"506 646 OFFCURVE",
"526 678 QCURVE",
"526 694 OFFCURVE",
"521 694 QCURVE SMOOTH",
"518 694 OFFCURVE",
"455 678 OFFCURVE",
"442 678 QCURVE SMOOTH",
"441 678 OFFCURVE",
"379 699 OFFCURVE",
"347 699 QCURVE SMOOTH",
"271 699 OFFCURVE",
"139 539 OFFCURVE",
"119 416 QCURVE",
"117 407 OFFCURVE",
"113 407 QCURVE SMOOTH",
"84 407 LINE SMOOTH",
"69 407 OFFCURVE",
"36 373 OFFCURVE",
"36 364 QCURVE SMOOTH",
"36 361 OFFCURVE",
"38 361 QCURVE SMOOTH",
"103 361 LINE SMOOTH",
"106 361 OFFCURVE",
"106 356 QCURVE SMOOTH",
"106 354 LINE",
"46 15 LINE SMOOTH",
"42 -10 OFFCURVE",
"24 -74 OFFCURVE",
"-4 -145 OFFCURVE",
"-42 -192 OFFCURVE",
"-61 -192 QCURVE SMOOTH",
"-75 -192 OFFCURVE",
"-98 -173 OFFCURVE",
"-110 -150 OFFCURVE",
"-126 -131 OFFCURVE",
"-135 -131 QCURVE SMOOTH",
"-153 -131 OFFCURVE",
"-177 -167 OFFCURVE",
"-176 -190 QCURVE",
"-171 -206 OFFCURVE",
"-130 -231 OFFCURVE",
"-95 -231 QCURVE SMOOTH",
"-62 -231 OFFCURVE",
"4 -197 OFFCURVE",
"62 -129 OFFCURVE",
"109 -17 OFFCURVE",
"121 54 QCURVE SMOOTH",
"176 353 LINE",
"177 361 OFFCURVE",
"182 361 QCURVE SMOOTH",
"299 361 LINE",
"310 379 OFFCURVE",
"310 395 QCURVE SMOOTH",
"310 407 OFFCURVE",
"305 407 QCURVE SMOOTH",
"190 407 LINE SMOOTH",
"187 407 OFFCURVE",
"187 411 QCURVE SMOOTH",
"187 413 LINE",
"229 661 OFFCURVE",
"329 661 QCURVE SMOOTH",
"366 661 OFFCURVE",
"422 620 OFFCURVE",
"422 589 QCURVE SMOOTH",
"422 579 OFFCURVE",
"418 559 QCURVE SMOOTH",
"310 0 LINE"
);
}
);
width = 752;
}
);
leftKerningGroup = f;
note = f_h;
rightKerningGroup = h;
},
{
glyphname = f_i;
lastChange = "2018-03-12 14:51:37 +0000";
layers = (
{
layerId = "14E94935-86A2-4797-A25C-C4BEBC72BEDE";
paths = (
{
closed = 1;
nodes = (
"439 407 OFFCURVE",
"429 418 OFFCURVE",
"425 418 QCURVE SMOOTH",
"394 418 OFFCURVE",
"331 412 QCURVE SMOOTH",
"319 411 OFFCURVE",
"210 407 OFFCURVE",
"190 407 QCURVE SMOOTH",
"187 407 OFFCURVE",
"187 411 QCURVE SMOOTH",
"187 413 LINE",
"188 420 OFFCURVE",
"193 445 OFFCURVE",
"194 450 QCURVE SMOOTH",
"215 550 OFFCURVE",
"282 661 OFFCURVE",
"311 661 QCURVE SMOOTH",
"317 661 OFFCURVE",
"327 659 OFFCURVE",
"335 656 OFFCURVE",
"344 650 OFFCURVE",
"349 646 OFFCURVE",
"357 637 OFFCURVE",
"360 632 OFFCURVE",
"367 621 OFFCURVE",
"370 617 OFFCURVE",
"376 605 OFFCURVE",
"377 603 QCURVE",
"383 593 OFFCURVE",
"389 585 OFFCURVE",
"400 572 OFFCURVE",
"412 566 OFFCURVE",
"420 566 QCURVE SMOOTH",
"442 566 OFFCURVE",
"465 606 OFFCURVE",
"465 630 QCURVE",
"457 650 OFFCURVE",
"433 672 QCURVE SMOOTH",
"419 685 OFFCURVE",
"384 699 OFFCURVE",
"347 699 QCURVE SMOOTH",
"271 699 OFFCURVE",
"139 539 OFFCURVE",
"119 416 QCURVE",
"117 407 OFFCURVE",
"113 407 QCURVE SMOOTH",
"84 407 LINE SMOOTH",
"69 407 OFFCURVE",
"36 373 OFFCURVE",
"36 364 QCURVE SMOOTH",
"36 361 OFFCURVE",
"38 361 QCURVE SMOOTH",
"103 361 LINE SMOOTH",
"106 361 OFFCURVE",
"106 356 QCURVE SMOOTH",
"106 354 LINE",
"46 15 LINE SMOOTH",
"42 -10 OFFCURVE",
"24 -74 OFFCURVE",
"-4 -145 OFFCURVE",
"-42 -192 OFFCURVE",
"-61 -192 QCURVE SMOOTH",
"-75 -192 OFFCURVE",
"-98 -173 OFFCURVE",
"-110 -150 OFFCURVE",
"-126 -131 OFFCURVE",
"-135 -131 QCURVE SMOOTH",
"-153 -131 OFFCURVE",
"-177 -167 OFFCURVE",
"-176 -190 QCURVE",
"-171 -206 OFFCURVE",
"-130 -231 OFFCURVE",
"-95 -231 QCURVE SMOOTH",
"-62 -231 OFFCURVE",
"4 -197 OFFCURVE",
"62 -129 OFFCURVE",
"109 -17 OFFCURVE",
"121 54 QCURVE SMOOTH",
"176 353 LINE",
"177 357 OFFCURVE",
"179 361 OFFCURVE",
"180 361 OFFCURVE",
"182 361 QCURVE",
"206 362 LINE SMOOTH",
"230 363 OFFCURVE",
"304 366 OFFCURVE",
"329 366 QCURVE SMOOTH",
"342 366 OFFCURVE",
"355 340 OFFCURVE",
"355 321 QCURVE SMOOTH",
"355 314 OFFCURVE",
"352 293 QCURVE",
"308 99 LINE SMOOTH",
"301 70 OFFCURVE",
"301 46 QCURVE SMOOTH",
"301 23 OFFCURVE",
"320 -6 OFFCURVE",
"335 -6 QCURVE SMOOTH",
"366 -6 OFFCURVE",
"454 67 OFFCURVE",
"466 88 QCURVE",
"466 93 OFFCURVE",
"459 107 OFFCURVE",
"456 107 QCURVE",
"451 102 LINE SMOOTH",
"446 97 OFFCURVE",
"436 85 OFFCURVE",
"420 70 OFFCURVE",
"406 58 OFFCURVE",
"391 49 OFFCURVE",
"386 49 QCURVE SMOOTH",
"376 49 OFFCURVE",
"376 74 QCURVE SMOOTH",
"376 86 OFFCURVE",
"380 106 QCURVE SMOOTH",
"431 330 LINE SMOOTH",
"434 344 OFFCURVE",
"439 394 OFFCURVE",
"439 401 QCURVE SMOOTH"
);
}
);
width = 520;
}
);
leftKerningGroup = f;
note = f_i;
rightKerningGroup = i;
unicode = FB01;
},
{
glyphname = f_j;
lastChange = "2018-03-12 14:51:38 +0000";
layers = (
{
layerId = "14E94935-86A2-4797-A25C-C4BEBC72BEDE";
paths = (
{
closed = 1;
nodes = (
"439 407 OFFCURVE",
"429 418 OFFCURVE",
"425 418 QCURVE SMOOTH",
"394 418 OFFCURVE",
"331 412 QCURVE SMOOTH",
"319 411 OFFCURVE",
"210 407 OFFCURVE",
"190 407 QCURVE SMOOTH",
"187 407 OFFCURVE",
"187 411 QCURVE SMOOTH",
"187 413 LINE",
"207 530 OFFCURVE",
"279 661 OFFCURVE",
"311 661 QCURVE SMOOTH",
"317 661 OFFCURVE",
"327 659 OFFCURVE",
"335 656 OFFCURVE",
"344 650 OFFCURVE",
"349 646 OFFCURVE",
"357 637 OFFCURVE",
"360 632 OFFCURVE",
"367 621 OFFCURVE",
"370 617 OFFCURVE",
"376 605 OFFCURVE",
"377 603 QCURVE",
"383 593 OFFCURVE",
"389 585 OFFCURVE",
"400 572 OFFCURVE",
"412 566 OFFCURVE",
"420 566 QCURVE SMOOTH",
"442 566 OFFCURVE",
"465 606 OFFCURVE",
"465 630 QCURVE",
"457 650 OFFCURVE",
"433 672 QCURVE SMOOTH",
"419 685 OFFCURVE",
"384 699 OFFCURVE",
"347 699 QCURVE SMOOTH",
"271 699 OFFCURVE",
"139 539 OFFCURVE",
"119 416 QCURVE",
"117 407 OFFCURVE",
"113 407 QCURVE SMOOTH",
"84 407 LINE SMOOTH",
"69 407 OFFCURVE",
"36 373 OFFCURVE",
"36 364 QCURVE SMOOTH",
"36 361 OFFCURVE",
"38 361 QCURVE SMOOTH",
"103 361 LINE SMOOTH",
"106 361 OFFCURVE",
"106 356 QCURVE SMOOTH",
"106 354 LINE",
"46 15 LINE SMOOTH",
"42 -10 OFFCURVE",
"24 -74 OFFCURVE",
"-4 -145 OFFCURVE",
"-42 -192 OFFCURVE",
"-61 -192 QCURVE SMOOTH",
"-75 -192 OFFCURVE",
"-98 -173 OFFCURVE",
"-110 -150 OFFCURVE",
"-126 -131 OFFCURVE",
"-135 -131 QCURVE SMOOTH",
"-153 -131 OFFCURVE",
"-177 -167 OFFCURVE",
"-176 -190 QCURVE",
"-171 -206 OFFCURVE",
"-130 -231 OFFCURVE",
"-95 -231 QCURVE SMOOTH",
"-62 -231 OFFCURVE",
"4 -197 OFFCURVE",
"62 -129 OFFCURVE",
"109 -17 OFFCURVE",
"121 54 QCURVE SMOOTH",
"176 353 LINE",
"177 357 OFFCURVE",
"179 361 OFFCURVE",
"180 361 OFFCURVE",
"182 361 QCURVE",
"206 362 LINE SMOOTH",
"230 363 OFFCURVE",
"304 366 OFFCURVE",
"329 366 QCURVE SMOOTH",
"342 366 OFFCURVE",
"355 340 OFFCURVE",
"355 321 QCURVE SMOOTH",
"355 305 OFFCURVE",
"352 293 QCURVE",
"298 22 LINE SMOOTH",
"282 -61 OFFCURVE",
"207 -187 OFFCURVE",
"156 -215 QCURVE",
"156 -220 OFFCURVE",
"162 -233 OFFCURVE",
"165 -235 QCURVE",
"195 -223 OFFCURVE",
"275 -162 OFFCURVE",
"304 -124 QCURVE SMOOTH",
"333 -86 OFFCURVE",
"368 8 OFFCURVE",
"375 45 QCURVE SMOOTH",
"430 330 LINE",
"439 393 OFFCURVE",
"439 401 QCURVE SMOOTH"
);
}
);
width = 483;
}
);
leftKerningGroup = f;
note = f_j;
rightKerningGroup = j;
},
{
glyphname = f_k;
lastChange = "2018-03-12 14:51:38 +0000";
layers = (
{
layerId = "14E94935-86A2-4797-A25C-C4BEBC72BEDE";
paths = (
{
closed = 1;
nodes = (
"609 330 OFFCURVE",
"584 289 OFFCURVE",
"544 260 OFFCURVE",
"494 240 OFFCURVE",
"446 230 OFFCURVE",
"425 230 QCURVE",
"435 279 OFFCURVE",
"535 388 OFFCURVE",
"576 388 QCURVE SMOOTH",
"595 388 OFFCURVE",
"609 370 OFFCURVE",
"609 354 QCURVE SMOOTH"
);
},
{
closed = 1;
nodes = (
"329 -5 OFFCURVE",
"345 -5 QCURVE SMOOTH",
"362 -5 OFFCURVE",
"380 0 QCURVE",
"417 191 LINE",
"425 179 OFFCURVE",
"454 126 OFFCURVE",
"474 90 OFFCURVE",
"505 44 OFFCURVE",
"533 16 OFFCURVE",
"570 -4 OFFCURVE",
"589 -4 QCURVE SMOOTH",
"618 -4 OFFCURVE",
"701 70 OFFCURVE",
"711 88 QCURVE",
"711 92 OFFCURVE",
"703 107 OFFCURVE",
"701 107 QCURVE",
"689 92 OFFCURVE",
"644 51 OFFCURVE",
"633 51 QCURVE SMOOTH",
"602 51 OFFCURVE",
"542 113 OFFCURVE",
"476 211 QCURVE",
"520 219 OFFCURVE",
"593 243 OFFCURVE",
"653 280 OFFCURVE",
"687 334 OFFCURVE",
"687 367 QCURVE SMOOTH",
"687 396 OFFCURVE",
"642 435 OFFCURVE",
"612 435 QCURVE SMOOTH",
"588 435 OFFCURVE",
"537 413 OFFCURVE",
"496 380 OFFCURVE",
"465 348 OFFCURVE",
"454 335 QCURVE SMOOTH",
"443 322 LINE",
"495 591 LINE SMOOTH",
"506 646 OFFCURVE",
"525 678 QCURVE",
"525 694 OFFCURVE",
"520 694 QCURVE SMOOTH",
"517 694 OFFCURVE",
"455 678 OFFCURVE",
"442 678 QCURVE SMOOTH",
"441 678 OFFCURVE",
"379 699 OFFCURVE",
"347 699 QCURVE SMOOTH",
"271 699 OFFCURVE",
"139 539 OFFCURVE",
"119 416 QCURVE",
"117 407 OFFCURVE",
"113 407 QCURVE SMOOTH",
"84 407 LINE SMOOTH",
"69 407 OFFCURVE",
"36 373 OFFCURVE",
"36 364 QCURVE SMOOTH",
"36 361 OFFCURVE",
"38 361 QCURVE SMOOTH",
"103 361 LINE SMOOTH",
"106 361 OFFCURVE",
"106 356 QCURVE SMOOTH",
"106 354 LINE",
"46 15 LINE SMOOTH",
"42 -10 OFFCURVE",
"24 -74 OFFCURVE",
"-4 -145 OFFCURVE",
"-42 -192 OFFCURVE",
"-61 -192 QCURVE SMOOTH",
"-75 -192 OFFCURVE",
"-98 -173 OFFCURVE",
"-110 -150 OFFCURVE",
"-126 -131 OFFCURVE",
"-135 -131 QCURVE SMOOTH",
"-153 -131 OFFCURVE",
"-177 -167 OFFCURVE",
"-176 -190 QCURVE",
"-171 -206 OFFCURVE",
"-130 -231 OFFCURVE",
"-95 -231 QCURVE SMOOTH",
"-62 -231 OFFCURVE",
"4 -197 OFFCURVE",
"62 -129 OFFCURVE",
"109 -17 OFFCURVE",
"121 54 QCURVE SMOOTH",
"176 353 LINE",
"177 361 OFFCURVE",
"182 361 QCURVE SMOOTH",
"299 361 LINE",
"310 379 OFFCURVE",
"310 395 QCURVE SMOOTH",
"310 407 OFFCURVE",
"305 407 QCURVE SMOOTH",
"190 407 LINE SMOOTH",
"187 407 OFFCURVE",
"187 411 QCURVE SMOOTH",
"187 413 LINE",
"229 661 OFFCURVE",
"329 661 QCURVE SMOOTH",
"366 661 OFFCURVE",
"422 620 OFFCURVE",
"422 589 QCURVE SMOOTH",
"422 579 OFFCURVE",
"418 559 QCURVE SMOOTH",
"309 0 LINE"
);
}
);
width = 743;
}
);
leftKerningGroup = f;
note = f_k;
rightKerningGroup = k;
},
{
glyphname = f_l;
lastChange = "2018-03-12 14:51:37 +0000";
layers = (
{
layerId = "14E94935-86A2-4797-A25C-C4BEBC72BEDE";
paths = (
{
closed = 1;
nodes = (
"525 694 OFFCURVE",
"520 694 QCURVE SMOOTH",
"517 694 OFFCURVE",
"455 678 OFFCURVE",
"442 678 QCURVE SMOOTH",
"441 678 OFFCURVE",
"379 699 OFFCURVE",
"347 699 QCURVE SMOOTH",
"271 699 OFFCURVE",
"139 539 OFFCURVE",
"119 416 QCURVE",
"117 407 OFFCURVE",
"113 407 QCURVE SMOOTH",
"84 407 LINE SMOOTH",
"69 407 OFFCURVE",
"36 373 OFFCURVE",
"36 364 QCURVE SMOOTH",
"36 361 OFFCURVE",
"38 361 QCURVE SMOOTH",
"103 361 LINE SMOOTH",
"106 361 OFFCURVE",
"106 356 QCURVE SMOOTH",
"106 354 LINE",
"46 15 LINE SMOOTH",
"42 -10 OFFCURVE",
"24 -74 OFFCURVE",
"-4 -145 OFFCURVE",
"-42 -192 OFFCURVE",
"-61 -192 QCURVE SMOOTH",
"-75 -192 OFFCURVE",
"-98 -173 OFFCURVE",
"-110 -150 OFFCURVE",
"-126 -131 OFFCURVE",
"-135 -131 QCURVE SMOOTH",
"-153 -131 OFFCURVE",
"-177 -167 OFFCURVE",
"-176 -190 QCURVE",
"-171 -206 OFFCURVE",
"-130 -231 OFFCURVE",
"-95 -231 QCURVE SMOOTH",
"-62 -231 OFFCURVE",
"4 -197 OFFCURVE",
"62 -129 OFFCURVE",
"109 -17 OFFCURVE",
"121 54 QCURVE SMOOTH",
"176 353 LINE",
"177 361 OFFCURVE",
"182 361 QCURVE SMOOTH",
"299 361 LINE",
"310 379 OFFCURVE",
"310 395 QCURVE SMOOTH",
"310 407 OFFCURVE",
"305 407 QCURVE SMOOTH",
"190 407 LINE SMOOTH",
"187 407 OFFCURVE",
"187 411 QCURVE SMOOTH",
"187 413 LINE",
"229 661 OFFCURVE",
"329 661 QCURVE SMOOTH",
"366 661 OFFCURVE",
"422 620 OFFCURVE",
"422 589 QCURVE SMOOTH",
"422 575 OFFCURVE",
"418 559 QCURVE",
"328 99 LINE SMOOTH",
"321 62 OFFCURVE",
"321 46 QCURVE SMOOTH",
"321 23 OFFCURVE",
"339 -6 OFFCURVE",
"355 -6 QCURVE SMOOTH",
"386 -6 OFFCURVE",
"474 67 OFFCURVE",
"486 88 QCURVE",
"486 93 OFFCURVE",
"479 107 OFFCURVE",
"476 107 QCURVE",
"471 102 LINE SMOOTH",
"466 97 OFFCURVE",
"456 85 OFFCURVE",
"440 70 OFFCURVE",
"426 58 OFFCURVE",
"411 49 OFFCURVE",
"406 49 QCURVE SMOOTH",
"396 49 OFFCURVE",
"396 74 QCURVE SMOOTH",
"396 90 OFFCURVE",
"400 106 QCURVE",
"495 591 LINE SMOOTH",
"506 646 OFFCURVE",
"525 678 QCURVE"
);
}
);
width = 530;
}
);
leftKerningGroup = f;
note = f_l;
rightKerningGroup = j;
unicode = FB02;
},
{
glyphname = ordfeminine;
lastChange = "2018-03-12 14:51:37 +0000";
layers = (
{
layerId = "14E94935-86A2-4797-A25C-C4BEBC72BEDE";
paths = (
{
closed = 1;
nodes = (
"358 318 OFFCURVE",
"353 328 OFFCURVE",
"351 328 QCURVE",
"311 288 OFFCURVE",
"296 288 QCURVE SMOOTH",
"289 288 OFFCURVE",
"289 305 QCURVE SMOOTH",
"289 318 OFFCURVE",
"292 327 QCURVE",
"339 548 LINE",
"312 557 OFFCURVE",
"279 557 QCURVE SMOOTH",
"245 557 OFFCURVE",
"167 520 OFFCURVE",
"102 461 OFFCURVE",
"59 376 OFFCURVE",
"59 332 QCURVE SMOOTH",
"59 295 OFFCURVE",
"96 250 OFFCURVE",
"127 250 QCURVE SMOOTH",
"156 250 OFFCURVE",
"222 315 OFFCURVE",
"241 344 QCURVE",
"241 344 OFFCURVE",
"237 331 OFFCURVE",
"236 323 QCURVE",
"231 298 OFFCURVE",
"231 286 QCURVE SMOOTH",
"231 270 OFFCURVE",
"245 249 OFFCURVE",
"257 249 QCURVE SMOOTH",
"281 249 OFFCURVE",
"349 301 OFFCURVE",
"358 315 QCURVE"
);
},
{
closed = 1;
nodes = (
"263 445 LINE SMOOTH",
"251 392 OFFCURVE",
"183 290 OFFCURVE",
"155 290 QCURVE SMOOTH",
"116 290 OFFCURVE",
"116 359 QCURVE SMOOTH",
"116 398 OFFCURVE",
"155 478 OFFCURVE",
"215 529 OFFCURVE",
"244 529 QCURVE SMOOTH",
"269 529 OFFCURVE",
"279 519 QCURVE"
);
}
);
width = 380;
}
);
note = ordfeminine;
unicode = 00AA;
},
{
glyphname = ordmasculine;
lastChange = "2018-03-12 14:51:37 +0000";
layers = (
{
layerId = "14E94935-86A2-4797-A25C-C4BEBC72BEDE";
paths = (
{
closed = 1;
nodes = (
"281 344 OFFCURVE",
"242 271 OFFCURVE",
"204 271 QCURVE SMOOTH",
"158 271 OFFCURVE",
"107 356 OFFCURVE",
"107 411 QCURVE SMOOTH",
"107 459 OFFCURVE",
"147 530 OFFCURVE",
"187 530 QCURVE SMOOTH",
"218 530 OFFCURVE",
"262 487 OFFCURVE",
"281 426 OFFCURVE",
"281 391 QCURVE SMOOTH"
);
},
{
closed = 1;
nodes = (
"38 337 OFFCURVE",
"131 247 OFFCURVE",
"196 247 QCURVE SMOOTH",
"261 247 OFFCURVE",
"350 340 OFFCURVE",
"350 403 QCURVE SMOOTH",
"350 466 OFFCURVE",
"261 554 OFFCURVE",
"196 554 QCURVE SMOOTH",
"130 554 OFFCURVE",
"38 463 OFFCURVE",
"38 399 QCURVE SMOOTH"
);
}
);
width = 388;
}
);
note = ordmasculine;
unicode = 00BA;
},
{
glyphname = uni0621;
lastChange = "2018-03-12 14:51:37 +0000";
layers = (
{
layerId = "14E94935-86A2-4797-A25C-C4BEBC72BEDE";
paths = (
{
closed = 1;
nodes = (
"300 181 OFFCURVE",
"281 178 QCURVE",
"269 176 OFFCURVE",
"236 154 OFFCURVE",
"223 152 QCURVE SMOOTH",
"177 143 OFFCURVE",
"139 160 QCURVE SMOOTH",
"76 188 OFFCURVE",
"92 220 QCURVE SMOOTH",
"107 248 OFFCURVE",
"161 204 QCURVE SMOOTH",
"178 190 OFFCURVE",
"194 228 OFFCURVE",
"192 248 QCURVE SMOOTH",
"187 305 OFFCURVE",
"134 306 QCURVE SMOOTH",
"110 306 OFFCURVE",
"82 265 QCURVE SMOOTH",
"35 198 OFFCURVE",
"38 156 QCURVE SMOOTH",
"40 105 OFFCURVE",
"129 75 QCURVE",
"75 22 OFFCURVE",
"95 4 QCURVE SMOOTH",
"103 -3 OFFCURVE",
"112 4 QCURVE SMOOTH",
"212 81 OFFCURVE",
"284 108 QCURVE",
"291 113 OFFCURVE",
"293 128 QCURVE SMOOTH",
"297 155 LINE SMOOTH"
);
}
);
width = 391;
}
);
note = uni0621;
unicode = 0621;
},
{
glyphname = uni06C1.fina;
lastChange = "2018-03-12 14:51:38 +0000";
layers = (
{
layerId = "14E94935-86A2-4797-A25C-C4BEBC72BEDE";
paths = (
{
closed = 1;
nodes = (
"276 147 OFFCURVE",
"238 190 QCURVE SMOOTH",
"210 223 OFFCURVE",
"186 177 QCURVE SMOOTH",
"117 43 OFFCURVE",
"85 -34 QCURVE SMOOTH",
"81 -45 OFFCURVE",
"94 -52 OFFCURVE",
"100 -45 QCURVE",
"108 -34 OFFCURVE",
"154 38 QCURVE SMOOTH",
"181 79 OFFCURVE",
"194 91 QCURVE SMOOTH",
"205 101 OFFCURVE",
"214 92 QCURVE",
"258 44 OFFCURVE",
"307 21 QCURVE SMOOTH",
"359 -4 OFFCURVE",
"418 0 QCURVE SMOOTH",
"434 1 OFFCURVE",
"438 23 QCURVE SMOOTH",
"439 31 OFFCURVE",
"435 73 QCURVE SMOOTH",
"434 91 OFFCURVE",
"402 93 QCURVE SMOOTH",
"362 95 OFFCURVE",
"319 122 QCURVE SMOOTH"
);
}
);
width = 418;
}
);
note = uni06C1.fina;
},
{
glyphname = uni08AC.ref1;
lastChange = "2018-03-12 14:51:38 +0000";
layers = (
{
layerId = "14E94935-86A2-4797-A25C-C4BEBC72BEDE";
paths = (
{
closed = 1;
nodes = (
"419 152 OFFCURVE",
"389 152 QCURVE SMOOTH",
"360 152 OFFCURVE",
"304 213 OFFCURVE",
"313 228 QCURVE",
"343 284 OFFCURVE",
"392 280 QCURVE",
"439 270 OFFCURVE",
"450 191 QCURVE"
);
},
{
closed = 1;
nodes = (
"297 301 OFFCURVE",
"281 216 QCURVE SMOOTH",
"270 164 OFFCURVE",
"286 119 QCURVE",
"190 80 OFFCURVE",
"81 97 QCURVE SMOOTH",
"43 103 OFFCURVE",
"55 58 QCURVE SMOOTH",
"93 -84 OFFCURVE",
"132 -193 QCURVE SMOOTH",
"136 -204 OFFCURVE",
"143 -203 QCURVE SMOOTH",
"149 -202 OFFCURVE",
"148 -193 QCURVE SMOOTH",
"146 -178 OFFCURVE",
"128 -85 QCURVE SMOOTH",
"118 -32 OFFCURVE",
"118 -13 QCURVE SMOOTH",
"118 9 OFFCURVE",
"129 7 QCURVE SMOOTH",
"247 -9 OFFCURVE",
"364 59 QCURVE",
"503 -9 OFFCURVE",
"586 0 QCURVE SMOOTH",
"603 2 OFFCURVE",
"585 67 QCURVE SMOOTH",
"579 92 OFFCURVE",
"569 93 QCURVE SMOOTH",
"521 95 OFFCURVE",
"454 118 QCURVE",
"470 151 OFFCURVE",
"479 184 QCURVE SMOOTH",
"499 252 OFFCURVE",
"471 330 QCURVE SMOOTH",
"457 371 OFFCURVE",
"430 386 QCURVE",
"425 388 OFFCURVE",
"419 388 QCURVE SMOOTH",
"398 388 OFFCURVE",
"370 364 QCURVE SMOOTH"
);
}
);
width = 1024;
}
);
note = uni08AC.ref1;
},
{
glyphname = uni0640;
lastChange = "2018-03-12 14:51:37 +0000";
layers = (
{
layerId = "14E94935-86A2-4797-A25C-C4BEBC72BEDE";
paths = (
{
closed = 1;
nodes = (
"0 0 LINE",
"0 0 LINE",
"-17 93 LINE",
"-17 93 LINE"
);
}
);
width = 0;
}
);
note = uni0640;
unicode = 0640;
},
{
glyphname = uni0640.05;
lastChange = "2018-03-12 14:51:38 +0000";
layers = (
{
layerId = "14E94935-86A2-4797-A25C-C4BEBC72BEDE";
paths = (
{
closed = 1;
nodes = (
"75 -3 OFFCURVE",
"95 0 QCURVE",
"105 2 OFFCURVE",
"106 16 QCURVE",
"111 60 LINE SMOOTH",
"115 96 OFFCURVE",
"79 93 QCURVE SMOOTH",
"62 91 OFFCURVE",
"32 91 QCURVE SMOOTH",
"-6 91 OFFCURVE",
"-17 93 QCURVE SMOOTH",
"-54 98 OFFCURVE",
"-37 60 QCURVE SMOOTH",
"-16 16 LINE SMOOTH",
"-9 1 OFFCURVE",
"0 0 QCURVE SMOOTH",
"23 -3 OFFCURVE",
"48 -3 QCURVE SMOOTH"
);
}
);
width = 95;
}
);
note = uni0640.05;
},
{
glyphname = uni0640.1;
lastChange = "2018-03-12 14:51:38 +0000";
layers = (
{
layerId = "14E94935-86A2-4797-A25C-C4BEBC72BEDE";
paths = (
{
closed = 1;
nodes = (
"143 -3 OFFCURVE",
"190 0 QCURVE SMOOTH",
"199 1 OFFCURVE",
"201 16 QCURVE SMOOTH",
"206 60 LINE",
"208 94 OFFCURVE",
"174 93 QCURVE SMOOTH",
"127 90 OFFCURVE",
"79 90 QCURVE SMOOTH",
"32 90 OFFCURVE",
"-17 93 QCURVE SMOOTH",
"-51 94 OFFCURVE",
"-37 60 QCURVE",
"-16 16 LINE SMOOTH",
"-9 1 OFFCURVE",
"0 0 QCURVE SMOOTH",
"48 -3 OFFCURVE",
"96 -3 QCURVE SMOOTH"
);
}
);
width = 190;
}
);
note = uni0640.1;
},
{
glyphname = uni0640.2;
lastChange = "2018-03-12 14:51:38 +0000";
layers = (
{
layerId = "14E94935-86A2-4797-A25C-C4BEBC72BEDE";
paths = (
{
closed = 1;
nodes = (
"359 1 OFFCURVE",
"361 16 QCURVE SMOOTH",
"366 60 LINE",
"368 94 OFFCURVE",
"333 93 QCURVE SMOOTH",
"246 90 OFFCURVE",
"159 90 QCURVE SMOOTH",
"72 90 OFFCURVE",
"-17 93 QCURVE SMOOTH",
"-51 94 OFFCURVE",
"-37 60 QCURVE SMOOTH",
"-16 16 LINE SMOOTH",
"-9 1 OFFCURVE",
"0 0 QCURVE SMOOTH",
"88 -4 OFFCURVE",
"176 -4 QCURVE SMOOTH",
"264 -4 OFFCURVE",
"351 0 QCURVE SMOOTH"
);
}
);
width = 350;
}
);
note = uni0640.2;
},
{
glyphname = uni0640.3;
lastChange = "2018-03-12 14:51:38 +0000";
layers = (
{
layerId = "14E94935-86A2-4797-A25C-C4BEBC72BEDE";
paths = (
{
closed = 1;
nodes = (
"766 60 LINE",
"768 95 OFFCURVE",
"734 93 QCURVE SMOOTH",
"573 80 OFFCURVE",
"361 80 QCURVE SMOOTH",
"142 80 OFFCURVE",
"-17 93 QCURVE SMOOTH",
"-52 95 OFFCURVE",
"-37 60 QCURVE",
"-16 16 LINE",
"-9 0 OFFCURVE",
"0 0 QCURVE",
"159 -13 OFFCURVE",
"378 -13 QCURVE SMOOTH",
"590 -13 OFFCURVE",
"750 0 QCURVE SMOOTH",
"759 1 OFFCURVE",
"761 16 QCURVE SMOOTH"
);
}
);
width = 750;
}
);
note = uni0640.3;
},
{
glyphname = uni0640.4;
lastChange = "2018-03-12 14:51:38 +0000";
layers = (
{
layerId = "14E94935-86A2-4797-A25C-C4BEBC72BEDE";
paths = (
{
closed = 1;
nodes = (
"286 64 OFFCURVE",
"-17 93 QCURVE SMOOTH",
"-44 96 OFFCURVE",
"-41 74 QCURVE SMOOTH",
"-40 68 OFFCURVE",
"-37 60 QCURVE SMOOTH",
"-16 16 LINE SMOOTH",
"-9 1 OFFCURVE",
"0 0 QCURVE",
"302 -30 OFFCURVE",
"631 -30 QCURVE SMOOTH",
"933 -31 OFFCURVE",
"1250 0 QCURVE",
"1259 1 OFFCURVE",
"1261 16 QCURVE SMOOTH",
"1266 60 LINE",
"1266 67 OFFCURVE",
"1265 73 QCURVE SMOOTH",
"1261 94 OFFCURVE",
"1234 93 QCURVE",
"917 63 OFFCURVE",
"614 63 QCURVE SMOOTH"
);
}
);
width = 1250;
}
);
note = uni0640.4;
},
{
glyphname = uni0640.long1;
lastChange = "2018-03-12 14:51:38 +0000";
layers = (
{
layerId = "14E94935-86A2-4797-A25C-C4BEBC72BEDE";
paths = (
{
closed = 1;
nodes = (
"-52 96 OFFCURVE",
"-37 60 QCURVE SMOOTH",
"-16 16 LINE SMOOTH",
"-9 1 OFFCURVE",
"0 0 QCURVE",
"300 0 LINE",
"309 1 OFFCURVE",
"311 16 QCURVE SMOOTH",
"316 60 LINE SMOOTH",
"319 96 OFFCURVE",
"284 93 QCURVE",
"-17 93 LINE"
);
}
);
width = 300;
}
);
note = uni0640.long1;
},
{
glyphname = uniFDFA;
lastChange = "2018-03-12 14:51:38 +0000";
layers = (
{
layerId = "14E94935-86A2-4797-A25C-C4BEBC72BEDE";
paths = (
{
closed = 1;
nodes = (
"454 297 OFFCURVE",
"277 285 OFFCURVE",
"240 338 QCURVE SMOOTH",
"213 377 OFFCURVE",
"214 421 QCURVE SMOOTH",
"215 442 OFFCURVE",
"236 494 QCURVE",
"238 503 OFFCURVE",
"229 504 QCURVE",
"225 503 OFFCURVE",
"224 500 QCURVE",
"158 346 OFFCURVE",
"235 274 QCURVE SMOOTH",
"279 233 OFFCURVE",
"444 233 OFFCURVE",
"515 299 QCURVE SMOOTH",
"545 327 OFFCURVE",
"531 377 QCURVE SMOOTH",
"530 381 OFFCURVE",
"493 406 OFFCURVE",
"437 415 QCURVE",
"458 472 OFFCURVE",
"453 522 QCURVE",
"506 445 OFFCURVE",
"631 441 OFFCURVE",
"666 483 QCURVE SMOOTH",
"673 491 OFFCURVE",
"679 491 OFFCURVE",
"708 463 OFFCURVE",
"739 450 QCURVE",
"733 423 OFFCURVE",
"733 403 QCURVE",
"734 401 LINE SMOOTH",
"737 389 OFFCURVE",
"748 389 QCURVE",
"754 391 OFFCURVE",
"754 396 QCURVE",
"761 442 LINE",
"792 435 OFFCURVE",
"826 434 QCURVE SMOOTH",
"912 434 OFFCURVE",
"958 472 QCURVE",
"964 478 OFFCURVE",
"986 538 OFFCURVE",
"980 572 OFFCURVE",
"925 607 OFFCURVE",
"909 607 QCURVE SMOOTH",
"866 607 OFFCURVE",
"805 545 QCURVE SMOOTH",
"784 523 OFFCURVE",
"765 496 QCURVE",
"719 510 OFFCURVE",
"696 538 QCURVE",
"689 546 OFFCURVE",
"674 546 OFFCURVE",
"671 539 QCURVE",
"637 498 OFFCURVE",
"576 495 QCURVE SMOOTH",
"522 493 OFFCURVE",
"447 591 OFFCURVE",
"368 837 QCURVE SMOOTH",
"367 840 OFFCURVE",
"356 841 OFFCURVE",
"356 837 QCURVE",
"352 772 OFFCURVE",
"355 764 QCURVE SMOOTH",
"390 653 LINE SMOOTH",
"399 623 OFFCURVE",
"420 554 QCURVE SMOOTH",
"436 503 OFFCURVE",
"426 425 OFFCURVE",
"409 407 QCURVE",
"406 404 OFFCURVE",
"406 382 QCURVE",
"407 382 LINE",
"490 368 OFFCURVE",
"512 356 QCURVE"
);
},
{
closed = 1;
nodes = (
"948 500 OFFCURVE",
"824 486 OFFCURVE",
"790 491 QCURVE",
"799 503 OFFCURVE",
"858 547 OFFCURVE",
"915 546 OFFCURVE",
"950 519 QCURVE SMOOTH",
"952 518 OFFCURVE",
"952 517 QCURVE"
);
},
{
closed = 1;
nodes = (
"265 834 LINE SMOOTH",
"262 843 OFFCURVE",
"256 843 OFFCURVE",
"254 833 QCURVE",
"247 803 LINE",
"245 793 OFFCURVE",
"248 784 QCURVE SMOOTH",
"280 671 LINE SMOOTH",
"299 602 OFFCURVE",
"311 562 QCURVE SMOOTH",
"321 531 OFFCURVE",
"335 452 QCURVE SMOOTH",
"336 443 OFFCURVE",
"342 443 OFFCURVE",
"344 447 QCURVE",
"360 494 OFFCURVE",
"304 688 QCURVE SMOOTH"
);
},
{
closed = 1;
nodes = (
"24 822 LINE",
"22 830 OFFCURVE",
"13 829 OFFCURVE",
"8 801 OFFCURVE",
"12 779 QCURVE SMOOTH",
"17 752 OFFCURVE",
"44 752 QCURVE SMOOTH",
"62 752 OFFCURVE",
"71 774 QCURVE",
"83 762 OFFCURVE",
"114 764 OFFCURVE",
"123 806 OFFCURVE",
"118 837 OFFCURVE",
"113 838 QCURVE",
"106 838 OFFCURVE",
"107 805 OFFCURVE",
"80 805 OFFCURVE",
"76 826 QCURVE SMOOTH",
"74 833 OFFCURVE",
"64 833 OFFCURVE",
"63 826 QCURVE",
"59 799 OFFCURVE",
"40 787 OFFCURVE",
"26 805 OFFCURVE",
"25 812 QCURVE SMOOTH"
);
},
{
closed = 1;
nodes = (
"14 650 OFFCURVE",
"12 665 QCURVE",
"9 675 OFFCURVE",
"4 666 QCURVE",
"-12 635 OFFCURVE",
"-10 619 QCURVE",
"-10 619 LINE",
"-4 591 LINE",
"-36 583 OFFCURVE",
"-60 559 QCURVE SMOOTH",
"-84 535 OFFCURVE",
"-90 488 OFFCURVE",
"-80 481 QCURVE",
"-49 462 OFFCURVE",
"-5 472 QCURVE SMOOTH",
"8 475 OFFCURVE",
"22 502 QCURVE",
"41 445 OFFCURVE",
"139 442 OFFCURVE",
"151 502 QCURVE",
"171 473 OFFCURVE",
"208 443 OFFCURVE",
"234 443 QCURVE SMOOTH",
"266 444 OFFCURVE",
"261 512 QCURVE SMOOTH",
"259 536 OFFCURVE",
"242 582 QCURVE SMOOTH",
"189 717 LINE",
"182 731 OFFCURVE",
"179 723 QCURVE SMOOTH",
"169 699 LINE",
"167 693 OFFCURVE",
"172 671 OFFCURVE",
"233 525 OFFCURVE",
"236 511 QCURVE",
"201 500 OFFCURVE",
"170 538 QCURVE SMOOTH",
"153 558 OFFCURVE",
"101 722 OFFCURVE",
"100 721 QCURVE",
"95 734 OFFCURVE",
"91 725 QCURVE",
"79 698 LINE SMOOTH",
"76 692 OFFCURVE",
"89 644 OFFCURVE",
"132 533 QCURVE",
"124 504 OFFCURVE",
"43 505 OFFCURVE",
"24 598 QCURVE SMOOTH"
);
},
{
closed = 1;
nodes = (
"5 525 OFFCURVE",
"-40 522 OFFCURVE",
"-51 529 QCURVE",
"-46 541 OFFCURVE",
"-9 561 OFFCURVE",
"3 563 QCURVE",
"9 539 OFFCURVE",
"11 531 QCURVE"
);
},
{
closed = 1;
nodes = (
"-27 280 OFFCURVE",
"-42 239 OFFCURVE",
"-40 227 QCURVE",
"-36 205 OFFCURVE",
"8 198 QCURVE SMOOTH",
"32 194 OFFCURVE",
"66 208 OFFCURVE",
"77 239 QCURVE",
"137 125 OFFCURVE",
"311 125 QCURVE SMOOTH",
"455 125 OFFCURVE",
"524 174 QCURVE",
"557 145 OFFCURVE",
"584 138 QCURVE SMOOTH",
"624 129 OFFCURVE",
"655 195 QCURVE SMOOTH",
"663 212 OFFCURVE",
"666 224 QCURVE",
"709 140 OFFCURVE",
"898 136 OFFCURVE",
"975 182 QCURVE SMOOTH",
"996 195 OFFCURVE",
"998 204 QCURVE",
"1007 243 LINE",
"1013 262 OFFCURVE",
"981 242 QCURVE SMOOTH",
"926 205 OFFCURVE",
"877 204 QCURVE SMOOTH",
"847 203 OFFCURVE",
"795 266 OFFCURVE",
"791 295 OFFCURVE",
"816 305 QCURVE SMOOTH",
"867 324 OFFCURVE",
"926 305 QCURVE SMOOTH",
"934 303 OFFCURVE",
"937 309 QCURVE",
"940 315 OFFCURVE",
"933 322 QCURVE SMOOTH",
"850 399 OFFCURVE",
"790 327 QCURVE SMOOTH",
"762 295 OFFCURVE",
"776 217 OFFCURVE",
"799 192 QCURVE",
"701 201 OFFCURVE",
"657 342 QCURVE SMOOTH",
"636 409 OFFCURVE",
"580 650 QCURVE",
"579 656 OFFCURVE",
"577 656 QCURVE",
"574 655 OFFCURVE",
"574 653 QCURVE SMOOTH",
"559 613 LINE SMOOTH",
"556 604 OFFCURVE",
"557 596 QCURVE SMOOTH",
"602 382 OFFCURVE",
"650 254 QCURVE",
"647 219 OFFCURVE",
"585 174 OFFCURVE",
"528 234 QCURVE",
"469 177 OFFCURVE",
"302 177 QCURVE SMOOTH",
"112 177 OFFCURVE",
"70 332 QCURVE SMOOTH",
"53 393 OFFCURVE",
"53 397 QCURVE",
"50 410 OFFCURVE",
"43 403 QCURVE SMOOTH",
"33 392 LINE SMOOTH",
"28 386 OFFCURVE",
"31 374 QCURVE SMOOTH",
"39 338 LINE",
"-3 315 OFFCURVE",
"-23 287 QCURVE SMOOTH"
);
},
{
closed = 1;
nodes = (
"59 276 OFFCURVE",
"66 261 QCURVE",
"59 253 OFFCURVE",
"-5 252 OFFCURVE",
"-9 262 QCURVE",
"-5 287 OFFCURVE",
"49 303 QCURVE"
);
},
{
closed = 1;
nodes = (
"459 85 OFFCURVE",
"447 88 QCURVE SMOOTH",
"435 92 OFFCURVE",
"434 90 QCURVE SMOOTH",
"413 48 LINE",
"414 46 OFFCURVE",
"415 45 QCURVE",
"445 19 OFFCURVE",
"459 20 QCURVE",
"465 21 OFFCURVE",
"465 19 QCURVE",
"481 53 LINE",
"514 36 OFFCURVE",
"518 33 QCURVE",
"522 30 OFFCURVE",
"523 32 QCURVE SMOOTH",
"543 75 LINE",
"543 78 OFFCURVE",
"541 80 QCURVE",
"520 96 OFFCURVE",
"507 100 QCURVE SMOOTH",
"492 105 OFFCURVE",
"492 103 QCURVE",
"477 73 LINE"
);
},
{
closed = 1;
nodes = (
"854 -126 OFFCURVE",
"950 -142 OFFCURVE",
"1001 -138 OFFCURVE",
"1031 -95 QCURVE SMOOTH",
"1079 -26 OFFCURVE",
"1062 69 QCURVE SMOOTH",
"1057 100 OFFCURVE",
"1013 154 OFFCURVE",
"997 154 QCURVE SMOOTH",
"970 153 OFFCURVE",
"960 98 QCURVE SMOOTH",
"955 71 OFFCURVE",
"958 52 QCURVE SMOOTH",
"966 9 OFFCURVE",
"1013 9 QCURVE",
"1027 8 OFFCURVE",
"1037 31 QCURVE",
"1042 28 OFFCURVE",
"1049 5 QCURVE",
"1045 -23 OFFCURVE",
"968 -104 OFFCURVE",
"921 -115 OFFCURVE",
"880 -115 OFFCURVE",
"853 -113 OFFCURVE",
"853 -116 QCURVE SMOOTH",
"853 -118 LINE"
);
},
{
closed = 1;
nodes = (
"994 104 OFFCURVE",
"1015 77 QCURVE",
"996 64 OFFCURVE",
"979 80 QCURVE"
);
},
{
closed = 1;
nodes = (
"837 69 LINE",
"836 76 OFFCURVE",
"830 77 QCURVE",
"824 77 OFFCURVE",
"823 73 QCURVE",
"799 -3 OFFCURVE",
"772 -6 QCURVE",
"742 -8 OFFCURVE",
"722 13 QCURVE",
"734 28 OFFCURVE",
"729 35 QCURVE",
"726 40 OFFCURVE",
"719 34 QCURVE SMOOTH",
"655 -20 OFFCURVE",
"330 -21 OFFCURVE",
"265 52 QCURVE SMOOTH",
"226 96 OFFCURVE",
"200 181 QCURVE SMOOTH",
"190 213 OFFCURVE",
"152 355 OFFCURVE",
"145 355 OFFCURVE",
"142 349 QCURVE",
"135 324 LINE",
"132 317 OFFCURVE",
"133 312 QCURVE",
"133 312 LINE",
"184 125 LINE",
"185 117 LINE SMOOTH",
"197 48 OFFCURVE",
"161 19 QCURVE",
"150 18 OFFCURVE",
"140 9 QCURVE SMOOTH",
"121 -6 OFFCURVE",
"128 -46 QCURVE SMOOTH",
"130 -56 LINE SMOOTH",
"135 -86 OFFCURVE",
"29 -131 QCURVE",
"24 -134 OFFCURVE",
"24 -137 QCURVE",
"26 -143 OFFCURVE",
"34 -144 QCURVE SMOOTH",
"85 -148 OFFCURVE",
"126 -125 QCURVE SMOOTH",
"143 -114 OFFCURVE",
"149 -79 QCURVE",
"178 -98 OFFCURVE",
"214 -99 QCURVE SMOOTH",
"214 -99 LINE SMOOTH",
"231 -99 OFFCURVE",
"235 -89 QCURVE",
"250 -41 OFFCURVE",
"220 2 OFFCURVE",
"192 12 QCURVE",
"208 38 OFFCURVE",
"203 86 QCURVE",
"262 -72 OFFCURVE",
"494 -72 QCURVE SMOOTH",
"630 -72 OFFCURVE",
"700 -30 QCURVE",
"736 -61 OFFCURVE",
"765 -61 QCURVE",
"809 -60 OFFCURVE",
"823 -3 QCURVE",
"857 -31 OFFCURVE",
"895 -31 QCURVE SMOOTH",
"899 -31 LINE",
"918 -30 OFFCURVE",
"921 16 QCURVE SMOOTH",
"922 34 OFFCURVE",
"914 81 OFFCURVE",
"903 95 OFFCURVE",
"887 76 OFFCURVE",
"890 61 QCURVE",
"908 23 OFFCURVE",
"891 22 QCURVE",
"860 23 OFFCURVE",
"835 44 QCURVE"
);
},
{
closed = 1;
nodes = (
"146 -16 OFFCURVE",
"159 -16 QCURVE SMOOTH",
"197 -16 OFFCURVE",
"223 -54 QCURVE",
"182 -53 OFFCURVE",
"140 -27 QCURVE"
);
},
{
closed = 1;
nodes = (
"469 751 OFFCURVE",
"464 741 QCURVE SMOOTH",
"458 730 LINE SMOOTH",
"449 713 OFFCURVE",
"465 719 QCURVE SMOOTH",
"499 732 OFFCURVE",
"597 767 QCURVE SMOOTH",
"697 802 OFFCURVE",
"700 810 QCURVE SMOOTH",
"708 827 LINE SMOOTH",
"715 843 OFFCURVE",
"696 836 QCURVE SMOOTH",
"479 755 LINE SMOOTH"
);
},
{
closed = 1;
nodes = (
"702 694 OFFCURVE",
"696 683 QCURVE SMOOTH",
"691 673 LINE SMOOTH",
"681 655 OFFCURVE",
"697 661 QCURVE SMOOTH",
"732 674 OFFCURVE",
"830 710 QCURVE SMOOTH",
"930 745 OFFCURVE",
"933 753 QCURVE",
"941 770 LINE SMOOTH",
"948 785 OFFCURVE",
"929 778 QCURVE SMOOTH",
"711 697 LINE SMOOTH"
);
}
);
width = 1081;
}
);
note = uniFDFA;
unicode = FDFA;
},
{
glyphname = uniFDFB;
lastChange = "2018-03-12 14:51:38 +0000";
layers = (
{
layerId = "14E94935-86A2-4797-A25C-C4BEBC72BEDE";
paths = (
{
closed = 1;
nodes = (
"76 326 OFFCURVE",
"68 323 QCURVE SMOOTH",
"19 309 OFFCURVE",
"-15 329 QCURVE",
"-6 351 OFFCURVE",
"42 379 OFFCURVE",
"62 382 QCURVE",
"75 343 LINE"
);
},
{
closed = 1;
nodes = (
"159 520 OFFCURVE",
"160 518 QCURVE",
"95 594 OFFCURVE",
"3 671 QCURVE",
"-5 678 OFFCURVE",
"-16 676 QCURVE SMOOTH",
"-26 673 OFFCURVE",
"-26 666 QCURVE SMOOTH",
"-24 599 LINE SMOOTH",
"-24 587 OFFCURVE",
"-12 575 QCURVE",
"28 547 LINE SMOOTH",
"47 534 OFFCURVE",
"47 534 QCURVE",
"54 534 OFFCURVE",
"56 539 QCURVE",
"60 547 LINE SMOOTH",
"63 553 OFFCURVE",
"73 544 QCURVE SMOOTH",
"144 480 OFFCURVE",
"193 415 QCURVE",
"210 357 OFFCURVE",
"219 323 QCURVE SMOOTH",
"235 263 OFFCURVE",
"229 247 QCURVE",
"224 245 OFFCURVE",
"206 248 QCURVE",
"153 263 OFFCURVE",
"128 317 QCURVE SMOOTH",
"93 389 OFFCURVE",
"64 491 QCURVE",
"55 516 OFFCURVE",
"50 502 QCURVE SMOOTH",
"40 469 LINE",
"37 463 OFFCURVE",
"42 449 QCURVE",
"50 419 LINE",
"-6 396 OFFCURVE",
"-30 364 QCURVE",
"-38 353 OFFCURVE",
"-51 298 QCURVE",
"-54 282 OFFCURVE",
"-35 266 QCURVE SMOOTH",
"-28 259 OFFCURVE",
"38 253 OFFCURVE",
"80 260 OFFCURVE",
"86 320 QCURVE",
"121 219 OFFCURVE",
"169 183 QCURVE SMOOTH",
"191 167 OFFCURVE",
"216 168 QCURVE SMOOTH",
"260 169 OFFCURVE",
"253 272 QCURVE SMOOTH",
"251 302 OFFCURVE",
"246 332 QCURVE",
"272 283 OFFCURVE",
"287 233 QCURVE SMOOTH",
"291 218 OFFCURVE",
"302 221 QCURVE",
"309 224 OFFCURVE",
"306 238 QCURVE SMOOTH",
"287 338 OFFCURVE",
"220 438 QCURVE",
"209 478 OFFCURVE",
"191 531 QCURVE SMOOTH",
"156 634 OFFCURVE",
"158 635 QCURVE",
"164 646 OFFCURVE",
"176 669 OFFCURVE",
"167 676 QCURVE SMOOTH",
"143 695 OFFCURVE",
"128 726 QCURVE SMOOTH",
"124 733 OFFCURVE",
"113 734 OFFCURVE",
"111 718 OFFCURVE",
"103 686 OFFCURVE",
"114 662 OFFCURVE",
"158 523 QCURVE SMOOTH"
);
},
{
closed = 1;
nodes = (
"667 224 LINE SMOOTH",
"579 200 OFFCURVE",
"545 202 QCURVE",
"551 233 OFFCURVE",
"583 267 OFFCURVE",
"605 267 QCURVE SMOOTH",
"646 267 OFFCURVE",
"696 241 QCURVE",
"701 237 OFFCURVE",
"700 233 OFFCURVE",
"696 232 QCURVE"
);
},
{
closed = 1;
nodes = (
"363 449 OFFCURVE",
"369 361 QCURVE SMOOTH",
"372 301 OFFCURVE",
"365 257 QCURVE",
"347 323 OFFCURVE",
"319 431 QCURVE SMOOTH",
"245 715 LINE SMOOTH",
"234 754 OFFCURVE",
"228 730 QCURVE",
"218 687 LINE",
"216 679 OFFCURVE",
"223 651 QCURVE SMOOTH",
"337 186 LINE",
"317 161 OFFCURVE",
"277 133 QCURVE SMOOTH",
"211 88 OFFCURVE",
"167 70 QCURVE SMOOTH",
"163 69 OFFCURVE",
"164 64 QCURVE SMOOTH",
"167 49 OFFCURVE",
"280 77 QCURVE SMOOTH",
"316 86 OFFCURVE",
"343 119 QCURVE SMOOTH",
"347 124 OFFCURVE",
"351 130 QCURVE",
"366 68 LINE",
"312 4 OFFCURVE",
"230 -2 QCURVE SMOOTH",
"131 -8 OFFCURVE",
"91 58 QCURVE SMOOTH",
"58 111 OFFCURVE",
"102 200 QCURVE SMOOTH",
"105 207 OFFCURVE",
"100 215 OFFCURVE",
"90 216 OFFCURVE",
"87 212 QCURVE",
"47 140 OFFCURVE",
"53 1 OFFCURVE",
"101 -39 QCURVE SMOOTH",
"148 -79 OFFCURVE",
"219 -78 QCURVE SMOOTH",
"289 -77 OFFCURVE",
"358 -20 QCURVE SMOOTH",
"392 8 OFFCURVE",
"397 31 QCURVE SMOOTH",
"401 49 OFFCURVE",
"392 94 QCURVE",
"431 -6 OFFCURVE",
"517 1 QCURVE SMOOTH",
"544 2 OFFCURVE",
"643 38 QCURVE SMOOTH",
"678 51 OFFCURVE",
"770 68 OFFCURVE",
"809 63 QCURVE",
"815 63 OFFCURVE",
"825 86 OFFCURVE",
"833 114 QCURVE",
"835 121 OFFCURVE",
"825 127 OFFCURVE",
"819 127 QCURVE SMOOTH",
"778 127 OFFCURVE",
"736 137 QCURVE SMOOTH",
"697 148 OFFCURVE",
"668 159 QCURVE",
"688 165 OFFCURVE",
"710 173 QCURVE SMOOTH",
"808 208 OFFCURVE",
"882 199 QCURVE",
"888 199 OFFCURVE",
"898 222 OFFCURVE",
"906 250 QCURVE SMOOTH",
"910 263 OFFCURVE",
"893 263 QCURVE SMOOTH",
"817 262 OFFCURVE",
"703 310 QCURVE SMOOTH",
"642 336 OFFCURVE",
"616 337 QCURVE SMOOTH",
"593 338 OFFCURVE",
"564 295 QCURVE",
"538 261 OFFCURVE",
"523 210 QCURVE",
"491 226 OFFCURVE",
"468 280 QCURVE SMOOTH",
"410 422 OFFCURVE",
"336 743 QCURVE SMOOTH",
"330 770 OFFCURVE",
"321 751 QCURVE SMOOTH",
"307 721 LINE SMOOTH",
"302 710 OFFCURVE",
"312 667 QCURVE SMOOTH"
);
},
{
closed = 1;
nodes = (
"853 13 OFFCURVE",
"856 11 QCURVE SMOOTH",
"906 -17 OFFCURVE",
"918 -26 OFFCURVE",
"920 -23 QCURVE",
"944 32 LINE",
"946 35 OFFCURVE",
"942 38 QCURVE",
"916 59 OFFCURVE",
"886 68 QCURVE",
"882 70 OFFCURVE",
"880 67 QCURVE SMOOTH",
"854 15 LINE"
);
},
{
closed = 1;
nodes = (
"668 -24 OFFCURVE",
"672 -26 QCURVE SMOOTH",
"722 -53 OFFCURVE",
"733 -61 OFFCURVE",
"735 -58 QCURVE",
"760 -4 LINE",
"761 0 OFFCURVE",
"757 3 QCURVE",
"730 24 OFFCURVE",
"701 33 QCURVE",
"697 34 OFFCURVE",
"695 31 QCURVE SMOOTH",
"670 -21 LINE"
);
},
{
closed = 1;
nodes = (
"630 97 OFFCURVE",
"627 96 QCURVE",
"598 88 LINE SMOOTH",
"515 65 OFFCURVE",
"481 66 QCURVE",
"481 67 OFFCURVE",
"479 68 OFFCURVE",
"478 68 QCURVE",
"484 98 OFFCURVE",
"514 131 OFFCURVE",
"536 131 QCURVE SMOOTH",
"575 131 OFFCURVE",
"625 104 QCURVE",
"631 101 OFFCURVE",
"631 99 QCURVE"
);
},
{
closed = 1;
nodes = (
"595 493 OFFCURVE",
"588 481 QCURVE SMOOTH",
"581 468 LINE SMOOTH",
"570 447 OFFCURVE",
"589 454 QCURVE SMOOTH",
"802 532 LINE",
"810 536 OFFCURVE",
"812 541 QCURVE SMOOTH",
"821 561 LINE SMOOTH",
"829 580 OFFCURVE",
"807 571 QCURVE SMOOTH",
"606 497 LINE SMOOTH"
);
},
{
closed = 1;
nodes = (
"420 683 OFFCURVE",
"413 670 QCURVE SMOOTH",
"406 658 LINE SMOOTH",
"394 637 OFFCURVE",
"414 644 QCURVE SMOOTH",
"741 766 LINE SMOOTH",
"749 769 OFFCURVE",
"753 778 QCURVE SMOOTH",
"762 799 LINE SMOOTH",
"771 818 OFFCURVE",
"748 809 QCURVE SMOOTH",
"431 687 LINE SMOOTH"
);
},
{
closed = 1;
nodes = (
"469 117 OFFCURVE",
"457 79 QCURVE",
"420 100 OFFCURVE",
"395 161 QCURVE SMOOTH",
"390 175 OFFCURVE",
"381 204 QCURVE",
"395 267 OFFCURVE",
"389 357 QCURVE SMOOTH",
"387 391 OFFCURVE",
"389 390 QCURVE",
"393 388 OFFCURVE",
"419 297 QCURVE SMOOTH",
"449 194 OFFCURVE",
"494 157 QCURVE",
"492 153 OFFCURVE",
"490 149 QCURVE SMOOTH"
);
}
);
width = 951;
}
);
note = uniFDFB;
unicode = FDFB;
},
{
glyphname = uni0627.fina_Wide;
lastChange = "2018-03-12 14:51:38 +0000";
layers = (
{
layerId = "14E94935-86A2-4797-A25C-C4BEBC72BEDE";
paths = (
{
closed = 1;
nodes = (
"399 94 OFFCURVE",
"370 93 QCURVE SMOOTH",
"283 90 OFFCURVE",
"224 102 QCURVE SMOOTH",
"118 124 OFFCURVE",
"100 193 QCURVE SMOOTH",
"56 372 OFFCURVE",
"43 431 QCURVE SMOOTH",
"10 582 OFFCURVE",
"-34 722 QCURVE SMOOTH",
"-44 756 OFFCURVE",
"-52 738 QCURVE SMOOTH",
"-75 685 LINE SMOOTH",
"-79 675 OFFCURVE",
"-73 658 QCURVE SMOOTH",
"-42 574 OFFCURVE",
"-22 508 QCURVE SMOOTH",
"-6 459 OFFCURVE",
"19 346 QCURVE SMOOTH",
"43 242 OFFCURVE",
"68 135 QCURVE SMOOTH",
"84 64 OFFCURVE",
"158 31 QCURVE SMOOTH",
"233 -3 OFFCURVE",
"387 0 QCURVE SMOOTH",
"407 1 OFFCURVE",
"401 71 QCURVE SMOOTH"
);
}
);
width = 385;
}
);
note = uni0627.fina_Wide;
},
{
glyphname = uni0644.medi_Lellah;
lastChange = "2018-03-12 14:51:38 +0000";
layers = (
{
layerId = "14E94935-86A2-4797-A25C-C4BEBC72BEDE";
paths = (
{
closed = 1;
nodes = (
"29 477 OFFCURVE",
"24 489 QCURVE",
"13 517 OFFCURVE",
"5 502 QCURVE SMOOTH",
"-17 455 LINE",
"-23 444 OFFCURVE",
"-6 393 OFFCURVE",
"21 321 QCURVE SMOOTH",
"63 205 LINE SMOOTH",
"79 160 OFFCURVE",
"79 160 QCURVE",
"65 108 OFFCURVE",
"-9 109 QCURVE SMOOTH",
"-41 109 OFFCURVE",
"-48 56 OFFCURVE",
"-13 1 OFFCURVE",
"11 2 QCURVE SMOOTH",
"50 4 OFFCURVE",
"73 19 QCURVE SMOOTH",
"95 33 OFFCURVE",
"112 105 QCURVE",
"148 53 OFFCURVE",
"216 0 OFFCURVE",
"260 1 QCURVE SMOOTH",
"269 2 OFFCURVE",
"270 58 OFFCURVE",
"248 115 OFFCURVE",
"229 118 QCURVE SMOOTH",
"184 123 OFFCURVE",
"117 208 OFFCURVE",
"49 415 QCURVE SMOOTH"
);
}
);
width = 237;
}
);
note = uni0644.medi_Lellah;
},
{
glyphname = uni0644.medi_FaLellah;
lastChange = "2018-03-12 14:51:38 +0000";
layers = (
{
layerId = "14E94935-86A2-4797-A25C-C4BEBC72BEDE";
paths = (
{
closed = 1;
nodes = (
"58 199 OFFCURVE",
"39 248 QCURVE SMOOTH",
"-56 489 LINE SMOOTH",
"-67 515 OFFCURVE",
"-75 499 QCURVE SMOOTH",
"-100 454 OFFCURVE",
"-90 425 QCURVE SMOOTH",
"-70 369 OFFCURVE",
"-21 251 QCURVE SMOOTH",
"23 146 OFFCURVE",
"28 121 QCURVE",
"12 113 OFFCURVE",
"-39 125 OFFCURVE",
"-65 87 OFFCURVE",
"-10 2 OFFCURVE",
"23 1 QCURVE SMOOTH",
"65 1 OFFCURVE",
"72 63 QCURVE",
"139 0 OFFCURVE",
"233 0 QCURVE SMOOTH",
"246 0 OFFCURVE",
"248 23 QCURVE SMOOTH",
"250 45 OFFCURVE",
"231 93 OFFCURVE",
"217 93 QCURVE SMOOTH",
"124 88 OFFCURVE",
"73 173 QCURVE SMOOTH"
);
}
);
width = 233;
}
);
note = uni0644.medi_FaLellah;
},
{
glyphname = uni0644.init_Lellah;
lastChange = "2018-03-12 14:51:38 +0000";
layers = (
{
layerId = "14E94935-86A2-4797-A25C-C4BEBC72BEDE";
paths = (
{
closed = 1;
nodes = (
"-99 452 OFFCURVE",
"-90 425 QCURVE SMOOTH",
"-65 356 OFFCURVE",
"23 146 OFFCURVE",
"28 121 QCURVE",
"12 113 OFFCURVE",
"-39 125 OFFCURVE",
"-65 87 OFFCURVE",
"-10 2 OFFCURVE",
"23 1 QCURVE SMOOTH",
"82 1 OFFCURVE",
"72 124 QCURVE SMOOTH",
"70 152 OFFCURVE",
"59 194 OFFCURVE",
"39 248 QCURVE SMOOTH",
"-56 489 LINE SMOOTH",
"-66 515 OFFCURVE",
"-75 499 QCURVE SMOOTH"
);
}
);
width = 160;
}
);
note = uni0644.init_Lellah;
},
{
glyphname = uni0645.medi_KafMemMediTatweel;
lastChange = "2018-03-12 14:51:38 +0000";
layers = (
{
layerId = "14E94935-86A2-4797-A25C-C4BEBC72BEDE";
paths = (
{
closed = 1;
nodes = (
"148 65 OFFCURVE",
"-17 93 QCURVE SMOOTH",
"-35 96 OFFCURVE",
"-29 70 QCURVE SMOOTH",
"-16 16 LINE SMOOTH",
"-12 0 OFFCURVE",
"0 -1 QCURVE SMOOTH",
"111 -12 OFFCURVE",
"193 32 OFFCURVE",
"208 102 QCURVE",
"303 46 OFFCURVE",
"400 40 QCURVE",
"403 40 OFFCURVE",
"407 46 QCURVE SMOOTH",
"423 72 OFFCURVE",
"425 115 QCURVE SMOOTH",
"426 149 OFFCURVE",
"374 203 QCURVE SMOOTH",
"331 248 OFFCURVE",
"274 241 QCURVE SMOOTH",
"247 238 OFFCURVE",
"241 232 QCURVE SMOOTH",
"217 212 OFFCURVE",
"208 180 QCURVE SMOOTH",
"195 130 OFFCURVE",
"192 125 QCURVE SMOOTH"
);
},
{
closed = 1;
nodes = (
"321 132 OFFCURVE",
"246 172 QCURVE",
"264 209 OFFCURVE",
"330 172 QCURVE SMOOTH",
"368 151 OFFCURVE",
"381 128 QCURVE"
);
}
);
width = 352;
}
);
note = uni0645.medi_KafMemMediTatweel;
},
{
glyphname = uni0647.fina_Lellah;
lastChange = "2018-03-12 14:51:38 +0000";
layers = (
{
layerId = "14E94935-86A2-4797-A25C-C4BEBC72BEDE";
paths = (
{
closed = 1;
nodes = (
"285 136 OFFCURVE",
"252 249 OFFCURVE",
"227 374 OFFCURVE",
"225 387 QCURVE SMOOTH",
"218 416 OFFCURVE",
"210 399 QCURVE",
"208 394 OFFCURVE",
"185 322 OFFCURVE",
"187 314 QCURVE SMOOTH",
"197 263 LINE",
"141 249 OFFCURVE",
"55 165 OFFCURVE",
"47 106 QCURVE SMOOTH",
"43 80 OFFCURVE",
"61 68 QCURVE SMOOTH",
"113 35 OFFCURVE",
"201 51 QCURVE SMOOTH",
"218 55 OFFCURVE",
"243 105 QCURVE",
"243 103 OFFCURVE",
"245 99 QCURVE SMOOTH",
"283 -8 OFFCURVE",
"370 2 QCURVE SMOOTH",
"385 3 OFFCURVE",
"386 56 OFFCURVE",
"365 108 OFFCURVE",
"351 109 QCURVE SMOOTH",
"329 109 OFFCURVE",
"314 118 QCURVE SMOOTH"
);
},
{
closed = 1;
nodes = (
"214 145 OFFCURVE",
"188 144 QCURVE SMOOTH",
"133 142 OFFCURVE",
"114 154 QCURVE",
"122 174 OFFCURVE",
"189 210 OFFCURVE",
"209 214 QCURVE",
"220 170 OFFCURVE",
"224 158 QCURVE"
);
}
);
width = 361;
}
);
note = uni0647.fina_Lellah;
},
